<svg xmlns="http://www.w3.org/2000/svg" width="320" height="685" viewBox="0 0 320 685"><defs><style>.a{fill:#fff;}.a,.b{stroke:#707070;}.b,.c,.o{fill:none;}.b{stroke-dasharray:3;}.c{stroke:#454545;}.d,.h,.i,.l,.m{fill:#2b2b2b;}.d{font-size:14px;font-family:SourceHanSerifK-SemiBold, Source Han Serif K;letter-spacing:-0.02em;}.d,.h,.j,.k{font-weight:600;}.e,.j{fill:#3bd9ff;}.f{fill:#ccc;}.g{fill:#f2f2f2;}.h,.i{font-size:16px;letter-spacing:-0.05em;}.h{font-family:NotoSerifKR-SemiBold, Noto Serif KR;}.i,.m{font-family:NotoSerifKR-Medium, Noto Serif KR;}.i,.l,.m{font-weight:500;}.j,.k{font-size:15px;font-family:Montserrat-SemiBold, Montserrat;letter-spacing:0.02em;}.k{fill:#383838;}.l,.m{font-size:12px;}.l{font-family:Montserrat-Medium, Montserrat;}.n{stroke:none;}</style></defs><g transform="translate(-20 -3596)"><g class="a" transform="translate(20 3596)"><rect class="n" width="320" height="685"/><rect class="o" x="0.5" y="0.5" width="319" height="684"/></g><line class="b" x2="230" transform="translate(82.5 3997)"/><line class="b" x2="230" transform="translate(82.5 3927)"/><line class="b" x2="230" transform="translate(82.5 3856)"/><line class="b" x2="230" transform="translate(82.5 3785)"/><line class="c" x2="230" transform="translate(82.5 4068)"/><text class="d" transform="translate(61 4072.5)"><tspan x="-3.948" y="0">0</tspan></text><text class="d" transform="translate(56 4002.5)"><tspan x="-9.933" y="0">0.5</tspan></text><text class="d" transform="translate(56 3931.5)"><tspan x="-9.933" y="0">1.0</tspan></text><text class="d" transform="translate(56 3861.5)"><tspan x="-9.933" y="0">1.5</tspan></text><text class="d" transform="translate(56 3790.5)"><tspan x="-9.933" y="0">2.0</tspan></text><circle class="e" cx="7.5" cy="7.5" r="7.5" transform="translate(129 3630)"/><circle class="f" cx="7.5" cy="7.5" r="7.5" transform="translate(128 3678)"/><path class="e" d="M10,0h0A10,10,0,0,1,20,10v98a0,0,0,0,1,0,0H0a0,0,0,0,1,0,0V10A10,10,0,0,1,10,0Z" transform="translate(96 3959)"/><path class="e" d="M10,0h0A10,10,0,0,1,20,10V61a0,0,0,0,1,0,0H0a0,0,0,0,1,0,0V10A10,10,0,0,1,10,0Z" transform="translate(174 4006)"/><path class="e" d="M10,0h0A10,10,0,0,1,20,10V61a0,0,0,0,1,0,0H0a0,0,0,0,1,0,0V10A10,10,0,0,1,10,0Z" transform="translate(253 4006)"/><path class="g" d="M10,0h0A10,10,0,0,1,20,10V179a0,0,0,0,1,0,0H0a0,0,0,0,1,0,0V10A10,10,0,0,1,10,0Z" transform="translate(126 3888)"/><path class="g" d="M10,0h0A10,10,0,0,1,20,10V268a0,0,0,0,1,0,0H0a0,0,0,0,1,0,0V10A10,10,0,0,1,10,0Z" transform="translate(205 3799)"/><path class="g" d="M10,0h0A10,10,0,0,1,20,10V127a0,0,0,0,1,0,0H0a0,0,0,0,1,0,0V10A10,10,0,0,1,10,0Z" transform="translate(284 3940)"/><text class="h" transform="translate(120 4097)"><tspan x="-29.712" y="0">복부통증</tspan></text><text class="i" transform="translate(180 4206)"><tspan x="-124.088" y="0">심각한 정도의 부작용 비율 : 전체 복용 </tspan><tspan x="-94.928" y="22">환자 대비 심각한 부작용으로 </tspan><tspan x="-71.296" y="44">분류된 환자 수의 비율</tspan></text><text class="j" transform="translate(106 3950)"><tspan x="-18.173" y="0">0.7%</tspan></text><text class="j" transform="translate(184 3992)"><tspan x="-18.517" y="0">0.4%</tspan></text><text class="k" transform="translate(136 3880)"><tspan x="-15.952" y="0">1.3%</tspan></text><text class="k" transform="translate(215 3780)"><tspan x="-16.29" y="0">1.9%</tspan></text><text class="j" transform="translate(263 3992)"><tspan x="-18.517" y="0">0.4%</tspan></text><text class="k" transform="translate(294 3922)"><tspan x="-18.39" y="0">0.9%</tspan></text><text class="h" transform="translate(199 4097)"><tspan x="-15.056" y="0">구역</tspan></text><text class="l" transform="translate(152 3634)"><tspan x="0" y="0">Ethynyl estradiol 0.015mg</tspan><tspan x="0" y="16">Gestodene 0.06mg(n=539)</tspan></text><text class="l" transform="translate(151 3682)"><tspan x="0" y="0">Ethynyl estradiol 0.02mg</tspan><tspan x="0" y="16">Desogestrel 0.15mg(n=535)</tspan></text><text class="h" transform="translate(278 4097)"><tspan x="-22.384" y="0">유방통</tspan></text><text class="m" transform="translate(278 4116)"><tspan x="-25.146" y="0">(p= 0.29)</tspan></text><text class="m" transform="translate(199 4116)"><tspan x="-23.61" y="0">(p=0.02)</tspan></text><text class="m" transform="translate(120 4116)"><tspan x="-23.61" y="0">(p=0.38)</tspan></text></g></svg>