<svg xmlns="http://www.w3.org/2000/svg" width="320" height="707" viewBox="0 0 320 707"><defs><style>.a{fill:#1ec2ef;}.b,.j{fill:#fd60ad;}.c{fill:#2eaac9;}.d{fill:#f8d719;}.e,.f{fill:#383838;}.e,.f,.g,.j{font-size:14px;}.e,.i,.j{font-family:NotoSansCJKkr-Regular, Noto Sans CJK KR;letter-spacing:-0.05em;}.f,.g{font-family:Montserrat-Bold, Montserrat;font-weight:700;letter-spacing:0.05em;}.g,.i,.k{fill:#fff;}.h,.l,.n{fill:none;}.h{stroke:#fff;}.i,.k{font-size:18px;}.k{font-family:NotoSansCJKkr-Medium, Noto Sans CJK KR;font-weight:500;letter-spacing:-0.02em;}.l{stroke:#f8d719;stroke-linecap:round;stroke-linejoin:round;stroke-width:2px;}.m{stroke:none;}</style></defs><g transform="translate(-20 -3605)"><rect class="a" width="320" height="707" rx="20" transform="translate(20 3605)"/><rect class="b" width="30" height="30" transform="translate(200 3908)"/><rect class="c" width="77" height="30" transform="translate(230 3908)"/><rect class="c" width="169.5" height="30" transform="translate(59 4060.384)"/><rect class="d" width="247" height="6" transform="translate(59 3719.616)"/><rect class="d" width="247" height="6" transform="translate(59 3811.616)"/><rect class="d" width="247" height="6" transform="translate(59 3902.616)"/><rect class="d" width="95" height="6" transform="translate(59 4054)"/><rect class="d" width="95" height="6" transform="translate(59 4147)"/><rect class="d" width="152" height="6" transform="translate(154 4054)"/><text class="e" transform="translate(59 3985)"><tspan x="0" y="0">즉시 1정을 복용하고 새로운 팩으로 교환하여 </tspan><tspan x="0" y="22">노란색약으로 평소 같이 9시에 복용</tspan></text><rect class="d" width="31" height="66" rx="15.5" transform="translate(53 3688.616)"/><text class="f" transform="translate(68 3743.616)"><tspan x="-7.805" y="0">01</tspan></text><text class="g" transform="translate(102 3743.616)"><tspan x="-9.191" y="0">02</tspan></text><text class="g" transform="translate(143 3743.616)"><tspan x="-9.177" y="0">03</tspan></text><text class="g" transform="translate(180 3743.616)"><tspan x="-9.926" y="0">04</tspan></text><text class="g" transform="translate(217 3743.616)"><tspan x="-9.268" y="0">05</tspan></text><text class="g" transform="translate(254 3743.616)"><tspan x="-9.562" y="0">06</tspan></text><text class="g" transform="translate(68 3835.616)"><tspan x="-9.723" y="0">08</tspan></text><text class="g" transform="translate(102 3835.616)"><tspan x="-9.562" y="0">09</tspan></text><text class="g" transform="translate(142 3835.616)"><tspan x="-7.847" y="0">10</tspan></text><text class="g" transform="translate(179 3835.616)"><tspan x="-5.838" y="0">11</tspan></text><text class="g" transform="translate(216 3835.616)"><tspan x="-7.224" y="0">12</tspan></text><text class="g" transform="translate(253 3835.616)"><tspan x="-7.238" y="0">13</tspan></text><text class="g" transform="translate(68 3927.616)"><tspan x="-7.259" y="0">15</tspan></text><text class="g" transform="translate(102 3927.616)"><tspan x="-7.553" y="0">16</tspan></text><text class="g" transform="translate(140 3927.616)"><tspan x="-7.434" y="0">17</tspan></text><text class="g" transform="translate(177 3927.616)"><tspan x="-7.714" y="0">18</tspan></text><text class="g" transform="translate(214 3927.616)"><tspan x="-7.553" y="0">19</tspan></text><text class="g" transform="translate(251 3927.616)"><tspan x="-9.219" y="0">20</tspan></text><text class="g" transform="translate(68 4079)"><tspan x="-8.61" y="0">22</tspan></text><text class="g" transform="translate(102 4079)"><tspan x="-8.624" y="0">23</tspan></text><text class="g" transform="translate(136 4079)"><tspan x="-9.233" y="0">24</tspan></text><text class="g" transform="translate(174 4079)"><tspan x="-8.645" y="0">25</tspan></text><text class="g" transform="translate(211 4079)"><tspan x="-8.925" y="0">26</tspan></text><text class="g" transform="translate(248 4079)"><tspan x="-8.806" y="0">27</tspan></text><text class="g" transform="translate(68 4171)"><tspan x="-8.939" y="0">29</tspan></text><text class="g" transform="translate(102 4171)"><tspan x="-9.247" y="0">30</tspan></text><text class="g" transform="translate(136 4171)"><tspan x="-7.238" y="0">31</tspan></text><text class="f" transform="translate(68 3710.616)"><tspan x="-6.685" y="0">M</tspan></text><text class="g" transform="translate(102 3710.616)"><tspan x="-4.326" y="0">T</tspan></text><text class="g" transform="translate(142 3710.616)"><tspan x="-8.141" y="0">W</tspan></text><text class="g" transform="translate(179 3710.616)"><tspan x="-4.326" y="0">T</tspan></text><text class="g" transform="translate(216 3710.616)"><tspan x="-4.473" y="0">F</tspan></text><text class="g" transform="translate(253 3710.616)"><tspan x="-4.466" y="0">S</tspan></text><g transform="translate(15275 -1173.384)"><g class="h" transform="translate(-14999 4862)"><rect class="m" width="31" height="66" rx="15.5"/><rect class="n" x="0.5" y="0.5" width="30" height="65" rx="15"/></g><text class="g" transform="translate(-14983 4917)"><tspan x="-9.415" y="0">07</tspan></text><text class="g" transform="translate(-14984 4884)"><tspan x="-4.466" y="0">S</tspan></text></g><text class="g" transform="translate(68 3802.616)"><tspan x="-6.685" y="0">M</tspan></text><text class="g" transform="translate(102 3802.616)"><tspan x="-4.326" y="0">T</tspan></text><text class="g" transform="translate(141 3802.616)"><tspan x="-8.141" y="0">W</tspan></text><text class="g" transform="translate(178 3802.616)"><tspan x="-4.326" y="0">T</tspan></text><text class="g" transform="translate(215 3802.616)"><tspan x="-4.473" y="0">F</tspan></text><text class="g" transform="translate(252 3802.616)"><tspan x="-4.466" y="0">S</tspan></text><g transform="translate(15276 -1173.384)"><g class="h" transform="translate(-15000 4954)"><rect class="m" width="31" height="66" rx="15.5"/><rect class="n" x="0.5" y="0.5" width="30" height="65" rx="15"/></g><text class="g" transform="translate(-14984 5009)"><tspan x="-7.917" y="0">14</tspan></text><text class="g" transform="translate(-14985 4976)"><tspan x="-4.466" y="0">S</tspan></text></g><text class="g" transform="translate(68 3894.616)"><tspan x="-6.685" y="0">M</tspan></text><text class="g" transform="translate(102 3894.616)"><tspan x="-4.326" y="0">T</tspan></text><text class="g" transform="translate(139 3894.616)"><tspan x="-8.141" y="0">W</tspan></text><text class="g" transform="translate(176 3894.616)"><tspan x="-4.326" y="0">T</tspan></text><text class="g" transform="translate(213 3894.616)"><tspan x="-4.473" y="0">F</tspan></text><text class="g" transform="translate(250 3894.616)"><tspan x="-4.466" y="0">S</tspan></text><g transform="translate(15274 -1173.384)"><g class="h" transform="translate(-14998 5046)"><rect class="m" width="31" height="66" rx="15.5"/><rect class="n" x="0.5" y="0.5" width="30" height="65" rx="15"/></g><text class="g" transform="translate(-14982 5101)"><tspan x="-7.224" y="0">21</tspan></text><text class="g" transform="translate(-14983 5068)"><tspan x="-4.466" y="0">S</tspan></text></g><text class="g" transform="translate(68 4046)"><tspan x="-6.685" y="0">M</tspan></text><text class="g" transform="translate(102 4046)"><tspan x="-4.326" y="0">T</tspan></text><text class="g" transform="translate(136 4046)"><tspan x="-8.141" y="0">W</tspan></text><text class="g" transform="translate(173 4046)"><tspan x="-4.326" y="0">T</tspan></text><text class="g" transform="translate(210 4046)"><tspan x="-4.473" y="0">F</tspan></text><text class="g" transform="translate(247 4046)"><tspan x="-4.466" y="0">S</tspan></text><g transform="translate(15281 -1114)"><g class="h" transform="translate(-15005 5138)"><rect class="m" width="31" height="66" rx="15.5"/><rect class="n" x="0.5" y="0.5" width="30" height="65" rx="15"/></g><text class="g" transform="translate(-14989 5193)"><tspan x="-9.1" y="0">28</tspan></text><text class="g" transform="translate(-14990 5160)"><tspan x="-4.466" y="0">S</tspan></text></g><text class="g" transform="translate(68 4138)"><tspan x="-6.685" y="0">M</tspan></text><text class="g" transform="translate(102 4138)"><tspan x="-4.326" y="0">T</tspan></text><text class="g" transform="translate(136 4138)"><tspan x="-8.141" y="0">W</tspan></text><text class="i" transform="translate(55.5 3774.616)"><tspan x="0" y="0">매일 9시에 1정씩 복용 중</tspan></text><text class="j" transform="translate(229 3866.616)"><tspan x="0" y="0">복용잊어버림</tspan></text><text class="k" transform="translate(89 3670)"><tspan x="0" y="0">생리시작일에 복용시작</tspan></text><g transform="translate(58.049 3655.384)"><path class="l" d="M20.84,4.61a5.5,5.5,0,0,0-7.78,0L12,5.67,10.94,4.61a5.5,5.5,0,0,0-7.78,7.78l1.06,1.06L12,21.23l7.78-7.78,1.06-1.06a5.5,5.5,0,0,0,0-7.78Z" transform="translate(-1.549 -2.998)"/></g><circle class="b" cx="7" cy="7" r="7" transform="translate(208 3854)"/><circle class="d" cx="7" cy="7" r="7" transform="translate(234.75 3947)"/><circle class="d" cx="7" cy="7" r="7" transform="translate(252.75 3947)"/><circle class="d" cx="7" cy="7" r="7" transform="translate(127 4099.616)"/><circle class="d" cx="7" cy="7" r="7" transform="translate(166 4099.616)"/><circle class="d" cx="7" cy="7" r="7" transform="translate(203 4099.616)"/><circle class="d" cx="7" cy="7" r="7" transform="translate(285 3947)"/><circle class="d" cx="7" cy="7" r="7" transform="translate(61 4099.384)"/><circle class="d" cx="7" cy="7" r="7" transform="translate(94 4099.616)"/><g class="h" transform="translate(271.5 3943.616) rotate(90)"><rect class="m" width="21.194" height="41.5" rx="10.597"/><rect class="n" x="0.5" y="0.5" width="20.194" height="40.5" rx="10.097"/></g><text class="e" transform="translate(180 4245)"><tspan x="-109.851" y="0">누락된 정제를 복용 후 반드시 첫 7일 동안</tspan><tspan x="-101.444" y="20">콘돔과 같은 격막피임법을 병행해야함</tspan></text></g></svg>