<svg xmlns="http://www.w3.org/2000/svg" width="320" height="707" viewBox="0 0 320 707"><defs><style>.a{fill:#1ec2ef;}.b,.k{fill:#fd60ad;}.c{fill:#2eaac9;}.d{fill:#f8d719;}.e,.f,.i,.l{fill:#fff;}.f,.l{font-size:18px;}.f,.g,.k{font-family:NotoSansCJKkr-Regular, Noto Sans CJK KR;letter-spacing:-0.05em;}.g,.h{fill:#383838;}.g,.h,.i,.k{font-size:14px;}.h,.i{font-family:Montserrat-Bold, Montserrat;font-weight:700;letter-spacing:0.05em;}.j,.m,.o{fill:none;}.j{stroke:#fff;}.l{font-family:NotoSansCJKkr-Medium, Noto Sans CJK KR;font-weight:500;letter-spacing:-0.02em;}.m{stroke:#f8d719;stroke-linecap:round;stroke-linejoin:round;stroke-width:2px;}.n{stroke:none;}</style></defs><g transform="translate(-20 -2683)"><rect class="a" width="320" height="707" rx="20" transform="translate(20 2683)"/><rect class="b" width="30" height="30" transform="translate(87 2986)"/><rect class="c" width="190" height="30" transform="translate(117 2986)"/><rect class="c" width="58" height="30" transform="translate(59 3119.769)"/><rect class="d" width="247" height="6" transform="translate(59 2797.616)"/><rect class="d" width="247" height="6" transform="translate(59 2889.616)"/><rect class="d" width="247" height="6" transform="translate(59 2980.616)"/><rect class="d" width="95" height="6" transform="translate(59 3113.384)"/><rect class="d" width="95" height="6" transform="translate(59 3206.384)"/><rect class="e" width="152" height="6" transform="translate(154 3113.384)"/><text class="f" transform="translate(58 3259.384)"><tspan x="0" y="0">새로운 팩으로 복용시작</tspan></text><text class="g" transform="translate(68 3063)"><tspan x="0" y="0">즉시 1정을 복용하고 평소 같이 9시에 복용</tspan></text><rect class="d" width="31" height="66" rx="15.5" transform="translate(53 2766.616)"/><text class="h" transform="translate(68 2821.616)"><tspan x="-7.805" y="0">01</tspan></text><text class="i" transform="translate(102 2821.616)"><tspan x="-9.191" y="0">02</tspan></text><text class="i" transform="translate(143 2821.616)"><tspan x="-9.177" y="0">03</tspan></text><text class="i" transform="translate(180 2821.616)"><tspan x="-9.926" y="0">04</tspan></text><text class="i" transform="translate(217 2821.616)"><tspan x="-9.268" y="0">05</tspan></text><text class="i" transform="translate(254 2821.616)"><tspan x="-9.562" y="0">06</tspan></text><text class="i" transform="translate(68 2913.616)"><tspan x="-9.723" y="0">08</tspan></text><text class="i" transform="translate(102 2913.616)"><tspan x="-9.562" y="0">09</tspan></text><text class="i" transform="translate(142 2913.616)"><tspan x="-7.847" y="0">10</tspan></text><text class="i" transform="translate(179 2913.616)"><tspan x="-5.838" y="0">11</tspan></text><text class="i" transform="translate(216 2913.616)"><tspan x="-7.224" y="0">12</tspan></text><text class="i" transform="translate(253 2913.616)"><tspan x="-7.238" y="0">13</tspan></text><text class="i" transform="translate(68 3005.616)"><tspan x="-7.259" y="0">15</tspan></text><text class="i" transform="translate(102 3005.616)"><tspan x="-7.553" y="0">16</tspan></text><text class="i" transform="translate(140 3005.616)"><tspan x="-7.434" y="0">17</tspan></text><text class="i" transform="translate(177 3005.616)"><tspan x="-7.714" y="0">18</tspan></text><text class="i" transform="translate(214 3005.616)"><tspan x="-7.553" y="0">19</tspan></text><text class="i" transform="translate(251 3005.616)"><tspan x="-9.219" y="0">20</tspan></text><text class="i" transform="translate(68 3138.384)"><tspan x="-8.61" y="0">22</tspan></text><text class="i" transform="translate(102 3138.384)"><tspan x="-8.624" y="0">23</tspan></text><text class="i" transform="translate(136 3138.384)"><tspan x="-9.233" y="0">24</tspan></text><text class="i" transform="translate(174 3138.384)"><tspan x="-8.645" y="0">25</tspan></text><text class="i" transform="translate(211 3138.384)"><tspan x="-8.925" y="0">26</tspan></text><text class="i" transform="translate(248 3138.384)"><tspan x="-8.806" y="0">27</tspan></text><text class="i" transform="translate(68 3230.384)"><tspan x="-8.939" y="0">29</tspan></text><text class="i" transform="translate(102 3230.384)"><tspan x="-9.247" y="0">30</tspan></text><text class="i" transform="translate(136 3230.384)"><tspan x="-7.238" y="0">31</tspan></text><text class="h" transform="translate(68 2788.616)"><tspan x="-6.685" y="0">M</tspan></text><text class="i" transform="translate(102 2788.616)"><tspan x="-4.326" y="0">T</tspan></text><text class="i" transform="translate(142 2788.616)"><tspan x="-8.141" y="0">W</tspan></text><text class="i" transform="translate(179 2788.616)"><tspan x="-4.326" y="0">T</tspan></text><text class="i" transform="translate(216 2788.616)"><tspan x="-4.473" y="0">F</tspan></text><text class="i" transform="translate(253 2788.616)"><tspan x="-4.466" y="0">S</tspan></text><g transform="translate(15275 -2095.384)"><g class="j" transform="translate(-14999 4862)"><rect class="n" width="31" height="66" rx="15.5"/><rect class="o" x="0.5" y="0.5" width="30" height="65" rx="15"/></g><text class="i" transform="translate(-14983 4917)"><tspan x="-9.415" y="0">07</tspan></text><text class="i" transform="translate(-14984 4884)"><tspan x="-4.466" y="0">S</tspan></text></g><text class="i" transform="translate(68 2880.616)"><tspan x="-6.685" y="0">M</tspan></text><text class="i" transform="translate(102 2880.616)"><tspan x="-4.326" y="0">T</tspan></text><text class="i" transform="translate(141 2880.616)"><tspan x="-8.141" y="0">W</tspan></text><text class="i" transform="translate(178 2880.616)"><tspan x="-4.326" y="0">T</tspan></text><text class="i" transform="translate(215 2880.616)"><tspan x="-4.473" y="0">F</tspan></text><text class="i" transform="translate(252 2880.616)"><tspan x="-4.466" y="0">S</tspan></text><g transform="translate(15276 -2095.384)"><g class="j" transform="translate(-15000 4954)"><rect class="n" width="31" height="66" rx="15.5"/><rect class="o" x="0.5" y="0.5" width="30" height="65" rx="15"/></g><text class="i" transform="translate(-14984 5009)"><tspan x="-7.917" y="0">14</tspan></text><text class="i" transform="translate(-14985 4976)"><tspan x="-4.466" y="0">S</tspan></text></g><text class="i" transform="translate(68 2972.616)"><tspan x="-6.685" y="0">M</tspan></text><text class="i" transform="translate(102 2972.616)"><tspan x="-4.326" y="0">T</tspan></text><text class="i" transform="translate(139 2972.616)"><tspan x="-8.141" y="0">W</tspan></text><text class="i" transform="translate(176 2972.616)"><tspan x="-4.326" y="0">T</tspan></text><text class="i" transform="translate(213 2972.616)"><tspan x="-4.473" y="0">F</tspan></text><text class="i" transform="translate(250 2972.616)"><tspan x="-4.466" y="0">S</tspan></text><g transform="translate(15274 -2095.384)"><g class="j" transform="translate(-14998 5046)"><rect class="n" width="31" height="66" rx="15.5"/><rect class="o" x="0.5" y="0.5" width="30" height="65" rx="15"/></g><text class="i" transform="translate(-14982 5101)"><tspan x="-7.224" y="0">21</tspan></text><text class="i" transform="translate(-14983 5068)"><tspan x="-4.466" y="0">S</tspan></text></g><text class="i" transform="translate(68 3105.384)"><tspan x="-6.685" y="0">M</tspan></text><text class="i" transform="translate(102 3105.384)"><tspan x="-4.326" y="0">T</tspan></text><text class="i" transform="translate(136 3105.384)"><tspan x="-8.141" y="0">W</tspan></text><text class="i" transform="translate(173 3105.384)"><tspan x="-4.326" y="0">T</tspan></text><text class="i" transform="translate(210 3105.384)"><tspan x="-4.473" y="0">F</tspan></text><text class="i" transform="translate(247 3105.384)"><tspan x="-4.466" y="0">S</tspan></text><g transform="translate(15281 -2054.616)"><g class="j" transform="translate(-15005 5138)"><rect class="n" width="31" height="66" rx="15.5"/><rect class="o" x="0.5" y="0.5" width="30" height="65" rx="15"/></g><text class="i" transform="translate(-14989 5193)"><tspan x="-9.1" y="0">28</tspan></text><text class="i" transform="translate(-14990 5160)"><tspan x="-4.466" y="0">S</tspan></text></g><text class="i" transform="translate(68 3197.384)"><tspan x="-6.685" y="0">M</tspan></text><text class="i" transform="translate(102 3197.384)"><tspan x="-4.326" y="0">T</tspan></text><text class="i" transform="translate(136 3197.384)"><tspan x="-8.141" y="0">W</tspan></text><text class="f" transform="translate(55.5 2852.616)"><tspan x="0" y="0">매일 9시에 1정씩 복용 중</tspan></text><text class="k" transform="translate(116 2948.616)"><tspan x="0" y="0">복용잊어버림</tspan></text><text class="f" transform="translate(181 3169.384)"><tspan x="0" y="0">흰색 위약 4정</tspan></text><text class="l" transform="translate(89 2748)"><tspan x="0" y="0">생리시작일에 복용시작</tspan></text><g transform="translate(58.049 2733.384)"><path class="m" d="M20.84,4.61a5.5,5.5,0,0,0-7.78,0L12,5.67,10.94,4.61a5.5,5.5,0,0,0-7.78,7.78l1.06,1.06L12,21.23l7.78-7.78,1.06-1.06a5.5,5.5,0,0,0,0-7.78Z" transform="translate(-1.549 -2.998)"/></g><circle class="b" cx="7" cy="7" r="7" transform="translate(95 2936)"/><circle class="d" cx="7" cy="7" r="7" transform="translate(124 3025)"/><circle class="d" cx="7" cy="7" r="7" transform="translate(142 3025)"/><circle class="d" cx="7" cy="7" r="7" transform="translate(169 3025)"/><circle class="d" cx="7" cy="7" r="7" transform="translate(206 3025)"/><circle class="d" cx="7" cy="7" r="7" transform="translate(243 3025)"/><circle class="d" cx="7" cy="7" r="7" transform="translate(285 3025)"/><circle class="d" cx="7" cy="7" r="7" transform="translate(61 3158.769)"/><circle class="d" cx="7" cy="7" r="7" transform="translate(94 3158.769)"/><g class="j" transform="translate(160.75 3021.616) rotate(90)"><rect class="n" width="21.194" height="41.5" rx="10.597"/><rect class="o" x="0.5" y="0.5" width="20.194" height="40.5" rx="10.097"/></g><text class="g" transform="translate(180 3323)"><tspan x="-109.851" y="0">누락된 정제를 복용 후 반드시 첫 7일 동안</tspan><tspan x="-101.444" y="20">콘돔과 같은 격막피임법을 병행해야함</tspan></text></g></svg>