<svg xmlns="http://www.w3.org/2000/svg" width="254" height="488.616" viewBox="0 0 254 488.616"><defs><style>.a{fill:#f8d719;}.b,.c,.d{fill:#fff;}.c{font-size:18px;font-family:NotoSansCJKkr-Medium, Noto Sans CJK KR;font-weight:500;letter-spacing:-0.02em;}.d{font-size:14px;font-family:Montserrat-Bold, Montserrat;font-weight:700;letter-spacing:0.05em;}.e,.f,.h{fill:none;}.e{stroke:#fff;}.f{stroke:#f8d719;stroke-linecap:round;stroke-linejoin:round;stroke-width:2px;}.g{stroke:none;}</style></defs><g transform="translate(-51 -4433.384)"><rect class="a" width="247" height="6" transform="translate(57 4499)"/><rect class="a" width="247" height="6" transform="translate(57 4591)"/><rect class="a" width="247" height="6" transform="translate(57 4682)"/><rect class="a" width="95" height="6" transform="translate(57 4774)"/><rect class="a" width="95" height="6" transform="translate(57 4867)"/><rect class="b" width="152" height="6" transform="translate(152 4774)"/><text class="c" transform="translate(56 4920)"><tspan x="0" y="0">새로운 팩으로 복용 시작</tspan></text><rect class="a" width="31" height="66" rx="15.5" transform="translate(51 4468)"/><text class="d" transform="translate(66 4523)"><tspan x="-7.805" y="0">01</tspan></text><text class="d" transform="translate(100 4523)"><tspan x="-9.191" y="0">02</tspan></text><text class="d" transform="translate(141 4523)"><tspan x="-9.177" y="0">03</tspan></text><text class="d" transform="translate(178 4523)"><tspan x="-9.926" y="0">04</tspan></text><text class="d" transform="translate(215 4523)"><tspan x="-9.268" y="0">05</tspan></text><text class="d" transform="translate(252 4523)"><tspan x="-9.562" y="0">06</tspan></text><text class="d" transform="translate(66 4615)"><tspan x="-9.723" y="0">08</tspan></text><text class="d" transform="translate(100 4615)"><tspan x="-9.562" y="0">09</tspan></text><text class="d" transform="translate(140 4615)"><tspan x="-7.847" y="0">10</tspan></text><text class="d" transform="translate(177 4615)"><tspan x="-5.838" y="0">11</tspan></text><text class="d" transform="translate(214 4615)"><tspan x="-7.224" y="0">12</tspan></text><text class="d" transform="translate(251 4615)"><tspan x="-7.238" y="0">13</tspan></text><text class="d" transform="translate(66 4707)"><tspan x="-7.259" y="0">15</tspan></text><text class="d" transform="translate(100 4707)"><tspan x="-7.553" y="0">16</tspan></text><text class="d" transform="translate(138 4707)"><tspan x="-7.434" y="0">17</tspan></text><text class="d" transform="translate(175 4707)"><tspan x="-7.714" y="0">18</tspan></text><text class="d" transform="translate(212 4707)"><tspan x="-7.553" y="0">19</tspan></text><text class="d" transform="translate(249 4707)"><tspan x="-9.219" y="0">20</tspan></text><text class="d" transform="translate(66 4799)"><tspan x="-8.61" y="0">22</tspan></text><text class="d" transform="translate(100 4799)"><tspan x="-8.624" y="0">23</tspan></text><text class="d" transform="translate(134 4799)"><tspan x="-9.233" y="0">24</tspan></text><text class="d" transform="translate(172 4799)"><tspan x="-8.645" y="0">25</tspan></text><text class="d" transform="translate(209 4799)"><tspan x="-8.925" y="0">26</tspan></text><text class="d" transform="translate(246 4799)"><tspan x="-8.806" y="0">27</tspan></text><text class="d" transform="translate(66 4891)"><tspan x="-8.939" y="0">29</tspan></text><text class="d" transform="translate(100 4891)"><tspan x="-9.247" y="0">30</tspan></text><text class="d" transform="translate(134 4891)"><tspan x="-7.238" y="0">31</tspan></text><text class="d" transform="translate(66 4490)"><tspan x="-6.685" y="0">M</tspan></text><text class="d" transform="translate(100 4490)"><tspan x="-4.326" y="0">T</tspan></text><text class="d" transform="translate(140 4490)"><tspan x="-8.141" y="0">W</tspan></text><text class="d" transform="translate(177 4490)"><tspan x="-4.326" y="0">T</tspan></text><text class="d" transform="translate(214 4490)"><tspan x="-4.473" y="0">F</tspan></text><text class="d" transform="translate(251 4490)"><tspan x="-4.466" y="0">S</tspan></text><g transform="translate(15273 -394)"><g class="e" transform="translate(-14999 4862)"><rect class="g" width="31" height="66" rx="15.5"/><rect class="h" x="0.5" y="0.5" width="30" height="65" rx="15"/></g><text class="d" transform="translate(-14983 4917)"><tspan x="-9.415" y="0">07</tspan></text><text class="d" transform="translate(-14984 4884)"><tspan x="-4.466" y="0">S</tspan></text></g><text class="d" transform="translate(66 4582)"><tspan x="-6.685" y="0">M</tspan></text><text class="d" transform="translate(100 4582)"><tspan x="-4.326" y="0">T</tspan></text><text class="d" transform="translate(139 4582)"><tspan x="-8.141" y="0">W</tspan></text><text class="d" transform="translate(176 4582)"><tspan x="-4.326" y="0">T</tspan></text><text class="d" transform="translate(213 4582)"><tspan x="-4.473" y="0">F</tspan></text><text class="d" transform="translate(250 4582)"><tspan x="-4.466" y="0">S</tspan></text><g transform="translate(15274 -394)"><g class="e" transform="translate(-15000 4954)"><rect class="g" width="31" height="66" rx="15.5"/><rect class="h" x="0.5" y="0.5" width="30" height="65" rx="15"/></g><text class="d" transform="translate(-14984 5009)"><tspan x="-7.917" y="0">14</tspan></text><text class="d" transform="translate(-14985 4976)"><tspan x="-4.466" y="0">S</tspan></text></g><text class="d" transform="translate(66 4674)"><tspan x="-6.685" y="0">M</tspan></text><text class="d" transform="translate(100 4674)"><tspan x="-4.326" y="0">T</tspan></text><text class="d" transform="translate(137 4674)"><tspan x="-8.141" y="0">W</tspan></text><text class="d" transform="translate(174 4674)"><tspan x="-4.326" y="0">T</tspan></text><text class="d" transform="translate(211 4674)"><tspan x="-4.473" y="0">F</tspan></text><text class="d" transform="translate(248 4674)"><tspan x="-4.466" y="0">S</tspan></text><g transform="translate(15272 -394)"><g class="e" transform="translate(-14998 5046)"><rect class="g" width="31" height="66" rx="15.5"/><rect class="h" x="0.5" y="0.5" width="30" height="65" rx="15"/></g><text class="d" transform="translate(-14982 5101)"><tspan x="-7.224" y="0">21</tspan></text><text class="d" transform="translate(-14983 5068)"><tspan x="-4.466" y="0">S</tspan></text></g><text class="d" transform="translate(66 4766)"><tspan x="-6.685" y="0">M</tspan></text><text class="d" transform="translate(100 4766)"><tspan x="-4.326" y="0">T</tspan></text><text class="d" transform="translate(134 4766)"><tspan x="-8.141" y="0">W</tspan></text><text class="d" transform="translate(171 4766)"><tspan x="-4.326" y="0">T</tspan></text><text class="d" transform="translate(208 4766)"><tspan x="-4.473" y="0">F</tspan></text><text class="d" transform="translate(245 4766)"><tspan x="-4.466" y="0">S</tspan></text><g transform="translate(15279 -394)"><g class="e" transform="translate(-15005 5138)"><rect class="g" width="31" height="66" rx="15.5"/><rect class="h" x="0.5" y="0.5" width="30" height="65" rx="15"/></g><text class="d" transform="translate(-14989 5193)"><tspan x="-9.1" y="0">28</tspan></text><text class="d" transform="translate(-14990 5160)"><tspan x="-4.466" y="0">S</tspan></text></g><text class="d" transform="translate(66 4858)"><tspan x="-6.685" y="0">M</tspan></text><text class="d" transform="translate(100 4858)"><tspan x="-4.326" y="0">T</tspan></text><text class="d" transform="translate(134 4858)"><tspan x="-8.141" y="0">W</tspan></text><text class="c" transform="translate(89 4554)"><tspan x="0" y="0">24일동안 노란색 1정씩</tspan></text><text class="c" transform="translate(158 4830)"><tspan x="0" y="0">4일동안 흰색 1정씩</tspan></text><text class="c" transform="translate(87 4449.384)"><tspan x="0" y="0">생리시작일에 복용시작</tspan></text><g transform="translate(56.049 4434.768)"><path class="f" d="M20.84,4.61a5.5,5.5,0,0,0-7.78,0L12,5.67,10.94,4.61a5.5,5.5,0,0,0-7.78,7.78l1.06,1.06L12,21.23l7.78-7.78,1.06-1.06a5.5,5.5,0,0,0,0-7.78Z" transform="translate(-1.549 -2.998)"/></g></g></svg>