<svg xmlns="http://www.w3.org/2000/svg" width="320" height="596" viewBox="0 0 320 596"><defs><style>.a{fill:#1ec2ef;}.b,.i{fill:#fd60ad;}.c{fill:#f8d719;}.d,.e,.g,.j{fill:#fff;}.e,.j{font-size:18px;}.e,.i,.l{font-family:NotoSansCJKkr-Regular, Noto Sans CJK KR;letter-spacing:-0.05em;}.f,.l{fill:#383838;}.f,.g,.i,.l{font-size:14px;}.f,.g{font-family:Montserrat-Bold, Montserrat;font-weight:700;letter-spacing:0.05em;}.h,.k,.n{fill:none;}.h{stroke:#fff;}.j{font-family:NotoSansCJKkr-Medium, Noto Sans CJK KR;font-weight:500;letter-spacing:-0.02em;}.k{stroke:#f8d719;stroke-linecap:round;stroke-linejoin:round;stroke-width:2px;}.m{stroke:none;}</style></defs><g transform="translate(-20 -2174)"><rect class="a" width="320" height="596" rx="20" transform="translate(20 2174)"/><rect class="b" width="30" height="30" transform="translate(196 2577.5)"/><rect class="c" width="247" height="6" transform="translate(59 2288.616)"/><rect class="c" width="247" height="6" transform="translate(59 2380.616)"/><rect class="c" width="247" height="6" transform="translate(59 2471.616)"/><rect class="c" width="95" height="6" transform="translate(59 2571.884)"/><rect class="c" width="95" height="6" transform="translate(59 2664.884)"/><rect class="d" width="152" height="6" transform="translate(154 2571.884)"/><text class="e" transform="translate(58 2718)"><tspan x="0" y="0">새로운 팩으로 복용시작</tspan></text><rect class="c" width="31" height="66" rx="15.5" transform="translate(53 2257.616)"/><text class="f" transform="translate(68 2312.616)"><tspan x="-7.805" y="0">01</tspan></text><text class="g" transform="translate(102 2312.616)"><tspan x="-9.191" y="0">02</tspan></text><text class="g" transform="translate(143 2312.616)"><tspan x="-9.177" y="0">03</tspan></text><text class="g" transform="translate(180 2312.616)"><tspan x="-9.926" y="0">04</tspan></text><text class="g" transform="translate(217 2312.616)"><tspan x="-9.268" y="0">05</tspan></text><text class="g" transform="translate(254 2312.616)"><tspan x="-9.562" y="0">06</tspan></text><text class="g" transform="translate(68 2404.616)"><tspan x="-9.723" y="0">08</tspan></text><text class="g" transform="translate(102 2404.616)"><tspan x="-9.562" y="0">09</tspan></text><text class="g" transform="translate(142 2404.616)"><tspan x="-7.847" y="0">10</tspan></text><text class="g" transform="translate(179 2404.616)"><tspan x="-5.838" y="0">11</tspan></text><text class="g" transform="translate(216 2404.616)"><tspan x="-7.224" y="0">12</tspan></text><text class="g" transform="translate(253 2404.616)"><tspan x="-7.238" y="0">13</tspan></text><text class="g" transform="translate(68 2496.616)"><tspan x="-7.259" y="0">15</tspan></text><text class="g" transform="translate(102 2496.616)"><tspan x="-7.553" y="0">16</tspan></text><text class="g" transform="translate(140 2496.616)"><tspan x="-7.434" y="0">17</tspan></text><text class="g" transform="translate(177 2496.616)"><tspan x="-7.714" y="0">18</tspan></text><text class="g" transform="translate(214 2496.616)"><tspan x="-7.553" y="0">19</tspan></text><text class="g" transform="translate(251 2496.616)"><tspan x="-9.219" y="0">20</tspan></text><text class="g" transform="translate(68 2596.884)"><tspan x="-8.61" y="0">22</tspan></text><text class="g" transform="translate(102 2596.884)"><tspan x="-8.624" y="0">23</tspan></text><text class="g" transform="translate(136 2596.884)"><tspan x="-9.233" y="0">24</tspan></text><text class="g" transform="translate(174 2596.884)"><tspan x="-8.645" y="0">25</tspan></text><text class="g" transform="translate(211 2596.884)"><tspan x="-8.925" y="0">26</tspan></text><text class="g" transform="translate(248 2596.884)"><tspan x="-8.806" y="0">27</tspan></text><text class="g" transform="translate(68 2688.884)"><tspan x="-8.939" y="0">29</tspan></text><text class="g" transform="translate(102 2688.884)"><tspan x="-9.247" y="0">30</tspan></text><text class="g" transform="translate(136 2688.884)"><tspan x="-7.238" y="0">31</tspan></text><text class="f" transform="translate(68 2279.616)"><tspan x="-6.685" y="0">M</tspan></text><text class="g" transform="translate(102 2279.616)"><tspan x="-4.326" y="0">T</tspan></text><text class="g" transform="translate(142 2279.616)"><tspan x="-8.141" y="0">W</tspan></text><text class="g" transform="translate(179 2279.616)"><tspan x="-4.326" y="0">T</tspan></text><text class="g" transform="translate(216 2279.616)"><tspan x="-4.473" y="0">F</tspan></text><text class="g" transform="translate(253 2279.616)"><tspan x="-4.466" y="0">S</tspan></text><g transform="translate(15275 -2604.384)"><g class="h" transform="translate(-14999 4862)"><rect class="m" width="31" height="66" rx="15.5"/><rect class="n" x="0.5" y="0.5" width="30" height="65" rx="15"/></g><text class="g" transform="translate(-14983 4917)"><tspan x="-9.415" y="0">07</tspan></text><text class="g" transform="translate(-14984 4884)"><tspan x="-4.466" y="0">S</tspan></text></g><text class="g" transform="translate(68 2371.616)"><tspan x="-6.685" y="0">M</tspan></text><text class="g" transform="translate(102 2371.616)"><tspan x="-4.326" y="0">T</tspan></text><text class="g" transform="translate(141 2371.616)"><tspan x="-8.141" y="0">W</tspan></text><text class="g" transform="translate(178 2371.616)"><tspan x="-4.326" y="0">T</tspan></text><text class="g" transform="translate(215 2371.616)"><tspan x="-4.473" y="0">F</tspan></text><text class="g" transform="translate(252 2371.616)"><tspan x="-4.466" y="0">S</tspan></text><g transform="translate(15276 -2604.384)"><g class="h" transform="translate(-15000 4954)"><rect class="m" width="31" height="66" rx="15.5"/><rect class="n" x="0.5" y="0.5" width="30" height="65" rx="15"/></g><text class="g" transform="translate(-14984 5009)"><tspan x="-7.917" y="0">14</tspan></text><text class="g" transform="translate(-14985 4976)"><tspan x="-4.466" y="0">S</tspan></text></g><text class="g" transform="translate(68 2463.616)"><tspan x="-6.685" y="0">M</tspan></text><text class="g" transform="translate(102 2463.616)"><tspan x="-4.326" y="0">T</tspan></text><text class="g" transform="translate(139 2463.616)"><tspan x="-8.141" y="0">W</tspan></text><text class="g" transform="translate(176 2463.616)"><tspan x="-4.326" y="0">T</tspan></text><text class="g" transform="translate(213 2463.616)"><tspan x="-4.473" y="0">F</tspan></text><text class="g" transform="translate(250 2463.616)"><tspan x="-4.466" y="0">S</tspan></text><g transform="translate(15274 -2604.384)"><g class="h" transform="translate(-14998 5046)"><rect class="m" width="31" height="66" rx="15.5"/><rect class="n" x="0.5" y="0.5" width="30" height="65" rx="15"/></g><text class="g" transform="translate(-14982 5101)"><tspan x="-7.224" y="0">21</tspan></text><text class="g" transform="translate(-14983 5068)"><tspan x="-4.466" y="0">S</tspan></text></g><text class="g" transform="translate(68 2563.884)"><tspan x="-6.685" y="0">M</tspan></text><text class="g" transform="translate(102 2563.884)"><tspan x="-4.326" y="0">T</tspan></text><text class="g" transform="translate(136 2563.884)"><tspan x="-8.141" y="0">W</tspan></text><text class="g" transform="translate(173 2563.884)"><tspan x="-4.326" y="0">T</tspan></text><text class="g" transform="translate(210 2563.884)"><tspan x="-4.473" y="0">F</tspan></text><text class="g" transform="translate(247 2563.884)"><tspan x="-4.466" y="0">S</tspan></text><g transform="translate(15281 -2596.116)"><g class="h" transform="translate(-15005 5138)"><rect class="m" width="31" height="66" rx="15.5"/><rect class="n" x="0.5" y="0.5" width="30" height="65" rx="15"/></g><text class="g" transform="translate(-14989 5193)"><tspan x="-9.1" y="0">28</tspan></text><text class="g" transform="translate(-14990 5160)"><tspan x="-4.466" y="0">S</tspan></text></g><text class="g" transform="translate(68 2655.884)"><tspan x="-6.685" y="0">M</tspan></text><text class="g" transform="translate(102 2655.884)"><tspan x="-4.326" y="0">T</tspan></text><text class="g" transform="translate(136 2655.884)"><tspan x="-8.141" y="0">W</tspan></text><text class="e" transform="translate(55.5 2343.616)"><tspan x="0" y="0">매일 9시에 1정씩 복용 중</tspan></text><text class="i" transform="translate(225.5 2535.884)"><tspan x="0" y="0">복용잊어버림</tspan></text><text class="e" transform="translate(181 2627.884)"><tspan x="0" y="0">흰색 위약 4정</tspan></text><text class="j" transform="translate(89 2239)"><tspan x="0" y="0">생리시작일에 복용시작</tspan></text><g transform="translate(58.049 2224.384)"><path class="k" d="M20.84,4.61a5.5,5.5,0,0,0-7.78,0L12,5.67,10.94,4.61a5.5,5.5,0,0,0-7.78,7.78l1.06,1.06L12,21.23l7.78-7.78,1.06-1.06a5.5,5.5,0,0,0,0-7.78Z" transform="translate(-1.549 -2.998)"/></g><circle class="b" cx="7" cy="7" r="7" transform="translate(204.5 2523.269)"/><text class="l" transform="translate(242 2646.5)"><tspan x="-62.349" y="0">평소와 같이 9시에 복용</tspan></text></g></svg>