<svg xmlns="http://www.w3.org/2000/svg" width="1194" height="600" viewBox="0 0 1194 600"><defs><style>.a{fill:#fff;}.a,.b{stroke:#707070;}.b,.c,.n{fill:none;}.b{stroke-dasharray:3;}.c{stroke:#454545;}.d,.h,.k,.l{fill:#2b2b2b;}.d,.l{font-size:14px;}.d{font-family:SourceHanSerifK-SemiBold, Source Han Serif K;letter-spacing:-0.02em;}.d,.i,.j{font-weight:600;}.e,.i{fill:#3bd9ff;}.f{fill:#ccc;}.g{fill:#f2f2f2;}.h{font-size:18px;}.h,.l{font-family:NotoSerifKR-Medium, Noto Serif KR;letter-spacing:-0.05em;}.h,.k,.l{font-weight:500;}.i,.j{font-size:15px;font-family:Montserrat-SemiBold, Montserrat;letter-spacing:0.02em;}.j{fill:#383838;}.k{font-size:12px;font-family:Montserrat-Medium, Montserrat;}.m{stroke:none;}</style></defs><g transform="translate(-363 -3759)"><g class="a" transform="translate(363 3759)"><rect class="m" width="1194" height="600"/><rect class="n" x="0.5" y="0.5" width="1193" height="599"/></g><line class="b" x2="742" transform="translate(595.5 4113)"/><line class="b" x2="742" transform="translate(595.5 4043)"/><line class="b" x2="742" transform="translate(595.5 3972)"/><line class="b" x2="742" transform="translate(595.5 3901)"/><line class="c" x2="742" transform="translate(595.5 4184)"/><text class="d" transform="translate(574 4188.5)"><tspan x="-3.948" y="0">0</tspan></text><text class="d" transform="translate(569 4118.5)"><tspan x="-9.933" y="0">0.5</tspan></text><text class="d" transform="translate(569 4047.5)"><tspan x="-9.933" y="0">1.0</tspan></text><text class="d" transform="translate(569 3977.5)"><tspan x="-9.933" y="0">1.5</tspan></text><text class="d" transform="translate(569 3906.5)"><tspan x="-9.933" y="0">2.0</tspan></text><circle class="e" cx="7.5" cy="7.5" r="7.5" transform="translate(784 3799)"/><circle class="f" cx="7.5" cy="7.5" r="7.5" transform="translate(1160 3799)"/><path class="e" d="M15,0h0A15,15,0,0,1,30,15v93a0,0,0,0,1,0,0H0a0,0,0,0,1,0,0V15A15,15,0,0,1,15,0Z" transform="translate(730 4075)"/><path class="e" d="M15,0h0A15,15,0,0,1,30,15V61a0,0,0,0,1,0,0H0a0,0,0,0,1,0,0V15A15,15,0,0,1,15,0Z" transform="translate(938 4122)"/><path class="e" d="M15,0h0A15,15,0,0,1,30,15V61a0,0,0,0,1,0,0H0a0,0,0,0,1,0,0V15A15,15,0,0,1,15,0Z" transform="translate(1137 4122)"/><path class="g" d="M15,0h0A15,15,0,0,1,30,15V179a0,0,0,0,1,0,0H0a0,0,0,0,1,0,0V15A15,15,0,0,1,15,0Z" transform="translate(768 4004)"/><path class="g" d="M15,0h0A15,15,0,0,1,30,15V268a0,0,0,0,1,0,0H0a0,0,0,0,1,0,0V15A15,15,0,0,1,15,0Z" transform="translate(976 3915)"/><path class="g" d="M15,0h0A15,15,0,0,1,30,15V127a0,0,0,0,1,0,0H0a0,0,0,0,1,0,0V15A15,15,0,0,1,15,0Z" transform="translate(1175 4056)"/><text class="h" transform="translate(764 4219)"><tspan x="-33.426" y="0">복부통증</tspan></text><text class="h" transform="translate(960 4306)"><tspan x="-323.847" y="0">심각한 정도의 부작용 비율: 전체 복용 환자 대비 심각한 부작용으로 분류된 환자 수의 비율</tspan></text><text class="i" transform="translate(747 4066)"><tspan x="-18.173" y="0">0.7%</tspan></text><text class="i" transform="translate(954 4108)"><tspan x="-18.517" y="0">0.4%</tspan></text><text class="j" transform="translate(785 3996)"><tspan x="-15.952" y="0">1.3%</tspan></text><text class="j" transform="translate(992 3891)"><tspan x="-16.29" y="0">1.9%</tspan></text><text class="i" transform="translate(1153 4108)"><tspan x="-18.517" y="0">0.4%</tspan></text><text class="j" transform="translate(1192 4037)"><tspan x="-18.39" y="0">0.9%</tspan></text><text class="h" transform="translate(972 4219)"><tspan x="-16.938" y="0">구역</tspan></text><text class="k" transform="translate(807 3812)"><tspan x="0" y="0" xml:space="preserve">Ethynyl estradiol 0.015mg  Gestodene 0.06mg(n=539)</tspan></text><text class="k" transform="translate(1183 3812)"><tspan x="0" y="0" xml:space="preserve">Ethynyl estradiol 0.02mg   Desogestrel 0.15mg(n=535)</tspan></text><text class="h" transform="translate(1171 4219)"><tspan x="-25.182" y="0">유방통</tspan></text><text class="l" transform="translate(1171 4240)"><tspan x="-26.537" y="0">(p= 0.29)</tspan></text><text class="l" transform="translate(972 4240)"><tspan x="-25.095" y="0">(p=0.02)</tspan></text><text class="l" transform="translate(763 4240)"><tspan x="-25.095" y="0">(p=0.38)</tspan></text></g></svg>