<svg xmlns="http://www.w3.org/2000/svg" width="1194" height="600" viewBox="0 0 1194 600"><defs><style>.a{fill:#fff;}.a,.b{stroke:#707070;}.b,.c,.n{fill:none;}.b{stroke-dasharray:3;}.c{stroke:#454545;}.d,.h,.k,.l{fill:#2b2b2b;}.d,.l{font-size:14px;}.d{font-family:SourceHanSerifK-SemiBold, Source Han Serif K;letter-spacing:-0.02em;}.d,.i,.j{font-weight:600;}.e,.i{fill:#3bd9ff;}.f{fill:#ccc;}.g{fill:#f2f2f2;}.h{font-size:18px;}.h,.l{font-family:NotoSerifKR-Medium, Noto Serif KR;letter-spacing:-0.05em;}.h,.k,.l{font-weight:500;}.i,.j{font-size:15px;font-family:Montserrat-SemiBold, Montserrat;letter-spacing:0.02em;}.j{fill:#383838;}.k{font-size:12px;font-family:Montserrat-Medium, Montserrat;}.m{stroke:none;}</style></defs><g transform="translate(-363 -3759)"><g class="a" transform="translate(363 3759)"><rect class="m" width="1194" height="600"/><rect class="n" x="0.5" y="0.5" width="1193" height="599"/></g><line class="b" x2="742" transform="translate(595.5 4113)"/><line class="b" x2="742" transform="translate(595.5 4043)"/><line class="b" x2="742" transform="translate(595.5 3972)"/><line class="b" x2="742" transform="translate(595.5 3901)"/><line class="c" x2="742" transform="translate(595.5 4184)"/><text class="d" transform="translate(574 4188.5)"><tspan x="-3.948" y="0">0</tspan></text><text class="d" transform="translate(569 4118.5)"><tspan x="-9.933" y="0">0.3</tspan></text><text class="d" transform="translate(569 4047.5)"><tspan x="-9.933" y="0">0.6</tspan></text><text class="d" transform="translate(569 3977.5)"><tspan x="-9.933" y="0">0.9</tspan></text><text class="d" transform="translate(569 3906.5)"><tspan x="-9.933" y="0">1.2</tspan></text><circle class="e" cx="7.5" cy="7.5" r="7.5" transform="translate(784 3799)"/><circle class="f" cx="7.5" cy="7.5" r="7.5" transform="translate(1160 3799)"/><path class="e" d="M15,0h0A15,15,0,0,1,30,15v93a0,0,0,0,1,0,0H0a0,0,0,0,1,0,0V15A15,15,0,0,1,15,0Z" transform="translate(730 4075)"/><path class="g" d="M15,0h0A15,15,0,0,1,30,15v91a0,0,0,0,1,0,0H0a0,0,0,0,1,0,0V15A15,15,0,0,1,15,0Z" transform="translate(768 4077)"/><path class="g" d="M15,0h0A15,15,0,0,1,30,15V169a0,0,0,0,1,0,0H0a0,0,0,0,1,0,0V15A15,15,0,0,1,15,0Z" transform="translate(976 4014)"/><path class="g" d="M15,0h0A15,15,0,0,1,30,15V212a0,0,0,0,1,0,0H0a0,0,0,0,1,0,0V15A15,15,0,0,1,15,0Z" transform="translate(1175 3971)"/><text class="h" transform="translate(764 4219)"><tspan x="-33.426" y="0">복부통증</tspan></text><text class="i" transform="translate(745 4066)"><tspan x="-18.517" y="0">0.4%</tspan></text><text class="i" transform="translate(954 4170)"><tspan x="-11.648" y="0">0%</tspan></text><text class="j" transform="translate(786 4066)"><tspan x="-18.517" y="0">0.4%</tspan></text><text class="j" transform="translate(993 4003)"><tspan x="-18.173" y="0">0.7%</tspan></text><text class="i" transform="translate(1153 4170)"><tspan x="-11.648" y="0">0%</tspan></text><text class="j" transform="translate(1192 3959)"><tspan x="-18.39" y="0">0.9%</tspan></text><text class="h" transform="translate(972 4219)"><tspan x="-18.792" y="0">구역 </tspan></text><text class="k" transform="translate(807 3812)"><tspan x="0" y="0" xml:space="preserve">Ethynyl estradiol 0.015mg  Gestodene 0.06mg(n=539)</tspan></text><text class="k" transform="translate(1183 3812)"><tspan x="0" y="0" xml:space="preserve">Ethynyl estradiol 0.02mg   Desogestrel 0.15mg(n=535)</tspan></text><text class="h" transform="translate(1171 4219)"><tspan x="-25.182" y="0">유방통</tspan></text><text class="h" transform="translate(960 4306)"><tspan x="-332.091" y="0">부작용으로 인해 복용을 중단한 비율: 전체 복용 환자 중 부작용으로 인해 복용을 중단한 비율</tspan></text><text class="l" transform="translate(1171 4240)"><tspan x="-25.095" y="0">(p=0.03)</tspan></text><text class="l" transform="translate(970 4240)"><tspan x="-25.095" y="0">(p=0.06)</tspan></text><text class="l" transform="translate(764 4240)"><tspan x="-25.095" y="0">(p=1.00)</tspan></text></g></svg>