<svg xmlns="http://www.w3.org/2000/svg" width="24" height="24" viewBox="0 0 24 24"><defs><style>.a{fill:none;}.b{fill:#383838;}</style></defs><rect class="a" width="24" height="24"/><path class="b" d="M19.516,5.262a8.148,8.148,0,0,1-2.3.631,4.039,4.039,0,0,0,1.762-2.218,8.28,8.28,0,0,1-2.548.965A4.007,4.007,0,0,0,9.495,7.375a4.1,4.1,0,0,0,.1.916A11.353,11.353,0,0,1,1.336,4.114,3.928,3.928,0,0,0,.794,6.131,4.009,4.009,0,0,0,2.576,9.468a4,4,0,0,1-1.815-.5v.05a4.011,4.011,0,0,0,3.215,3.933,4.045,4.045,0,0,1-1.8.069A4.022,4.022,0,0,0,5.925,15.8,8.04,8.04,0,0,1,.953,17.517,8.509,8.509,0,0,1,0,17.462a11.4,11.4,0,0,0,6.157,1.8A11.323,11.323,0,0,0,17.562,7.867c0-.17,0-.342-.012-.513a8.1,8.1,0,0,0,2-2.076Z" transform="translate(2.105 0.47)"/></svg>