<svg xmlns="http://www.w3.org/2000/svg" width="373.499" height="415.088" viewBox="0 0 373.499 415.088"><defs><style>.a{fill:#1f6d7f;}.b{fill:#ffc5bc;}.c{fill:#ffc5c1;}.d{fill:#1d8ea8;}.e{fill:#218197;}.f{fill:#2eaac9;}.g{fill:#ec6166;}.h{fill:none;stroke:#3bd9ff;stroke-linecap:round;stroke-linejoin:round;stroke-width:6px;}</style></defs><g transform="translate(-421.471 -2228.98)"><ellipse class="a" cx="156" cy="156.5" rx="156" ry="156.5" transform="translate(421.471 2312.98)"/><path class="b" d="M0,0,68.015,22.163,93.093,20.1A21.98,21.98,0,0,1,116.5,37.976l-.4,13.86c.834,4.469-9.675,5.813-14.034,4.515L5.219,26.314Z" transform="translate(588.484 2514.776) rotate(17)"/><g transform="translate(422.604 2248.893)"><circle class="b" cx="51" cy="51" r="51" transform="translate(116.867 15.088)"/><rect class="c" width="31" height="40" transform="translate(126.867 97.088)"/><path class="d" d="M543.127,2335.536s-104.113,132.052-114,149-12.54,66.526,15,75,58,4,58,4l92-3-15-220Z" transform="translate(-422.261 -2202.448)"/><path class="e" d="M531.238,2333.6s-84.326,109.709-79,139,13.38,56.36,46,75c21.744,12.424,43.693,20.164,54,32,5.566,6.391,11.557,13.266,20,14h9c12.758,1.11,23.659,2.591,26-10l13-69a24.42,24.42,0,0,0-6-21c-16.283-18.452-50.067-67.15-46-148C568.238,2345.6,543.22,2344.1,531.238,2333.6Z" transform="translate(-409.372 -2203.509)"/><path class="f" d="M533.4,2329.2s-84.325,110.709-79,140,13.38,56.362,46,75c21.744,12.426,40.693,32.165,51,44a32.962,32.962,0,0,0,22,11l10,1c12.757,1.109,23.659-8.41,26-21l13-68a26.506,26.506,0,0,0-6-22c-16.284-18.452-50.068-67.151-46-148C570.4,2341.2,545.38,2339.7,533.4,2329.2Z" transform="translate(-408.532 -2205.111)"/><path class="a" d="M587.682,2244.285c-18.015-.623-31.923-.269-49,15l-19,19c-18.125,17.184-35.315,22.366-52,37-13.683,12-8.189,31.021,9,37,7.385,2.568,31.23,6.527,42,10,63.842,20.583,36-20,36-20s-3.989-3.162-17-19c-4.232-5.151,7.186-11.73,14-12,17.03.027,18.286,0,35,0,32.148,0,43.619-16.874,40-38C624.659,2261.481,619.811,2245.4,587.682,2244.285Z" transform="translate(-405.815 -2242.198)"/><path class="f" d="M586.568,2242.926c-18.015-.624-31.923-.269-49,15l-18,19c-18.125,17.183-35.313,21.368-52,36-13.682,12-12.19,34.022,5,40,7.385,2.568,36.068,7.075,47,10,65.6,17.548,34-22,34-22s-3.989-4.163-17-20c-4.232-5.151,8.184-10.73,15-11,17.028.029,18.286,0,35,0,32.148,0,49.62-19.875,46-41C630.546,2257.119,618.7,2244.039,586.568,2242.926Z" transform="translate(-406.702 -2242.838)"/></g><g transform="translate(508.368 2228.879)"><rect class="a" width="7" height="29" transform="translate(0.104 0.101)"/><rect class="a" width="7" height="10" transform="translate(0.104 34.101)"/></g><g transform="translate(643.938 2344.672)"><path class="g" d="M704.607,2424.65c.034,32.549-25.452,58.966-58,59a59.044,59.044,0,0,1-59-59h0c0-58.934,30.064-36.953,54-19C665.787,2423.785,704.607,2383.849,704.607,2424.65Z" transform="translate(-572.075 -2276.342)"/><path class="h" d="M724.672,2455.452a74,74,0,0,1-148,0c0-74.025,72-146,72-146S724.672,2381.427,724.672,2455.452Z" transform="translate(-576.64 -2309.644)"/><g transform="translate(66.787 89.992)"><path class="g" d="M634.969,2383.729a6,6,0,0,1-12,0c0-.075,0,.075,0,0,0-3.313,2.417-6.81,4-9,1.189-1.649,2-3,2-3S634.969,2377.924,634.969,2383.729Z" transform="translate(-623.223 -2372.413)"/></g><rect class="g" width="3" height="30" rx="1.024" transform="translate(71.533 22.308)"/><rect class="g" width="3" height="12" rx="1.024" transform="translate(71.533 62.308)"/></g></g></svg>