<svg xmlns="http://www.w3.org/2000/svg" xmlns:xlink="http://www.w3.org/1999/xlink" width="583" height="490.616" viewBox="0 0 583 490.616"><defs><style>.a,.k,.t{fill:none;}.b,.n,.r{font-size:14px;}.b{font-family:NotoSerifKR-SemiBold, Noto Serif KR;letter-spacing:-0.05em;}.b,.g,.q{font-weight:600;}.c,.f{fill:#fce681;}.c,.e,.h,.t{stroke:#5aa8c5;}.d{fill:#f8f8f8;}.d,.i{stroke:#2eaac9;}.e,.h,.i{fill:#fff;}.e,.t{stroke-width:2px;}.g,.j,.n,.q,.r,.s{fill:#2eaac9;}.g,.q,.s{font-size:12px;}.g,.q{font-family:Montserrat-SemiBold, Montserrat;}.g,.n,.q{letter-spacing:0.05em;}.k{stroke:#f0f0f0;}.l{fill:#44b5cf;font-size:8px;font-family:NotoSansCJKkr-Medium, Noto Sans CJK KR;letter-spacing:-0.02em;}.l,.r,.s{font-weight:500;}.m,.n{font-family:NotoSansCJKkr-Bold, Noto Sans CJK KR;font-weight:700;}.o{clip-path:url(#a);}.p{clip-path:url(#b);}.q{opacity:0.8;}.r,.s{font-family:NotoSerifKR-Medium, Noto Serif KR;}.t{stroke-linecap:round;stroke-linejoin:round;}.u{stroke:none;}</style><clipPath id="a"><rect class="a" width="480" height="50"/></clipPath><clipPath id="b"><rect class="a" width="391" height="12"/></clipPath></defs><g transform="translate(-974 -2355.384)"><g transform="translate(6 -1)"><text class="b" transform="translate(1254 2420)"><tspan x="0" y="0">활성약 : 성분이 있는 약</tspan></text><g class="c" transform="translate(1232 2407)"><circle class="u" cx="7.5" cy="7.5" r="7.5"/><circle class="a" cx="7.5" cy="7.5" r="7"/></g></g><g transform="translate(0 -1)"><text class="b" transform="translate(1433 2420)"><tspan x="0" y="0">위약 : 성분이 없는 약</tspan></text><g class="d" transform="translate(1411 2407)"><circle class="u" cx="7.5" cy="7.5" r="7.5"/><circle class="a" cx="7.5" cy="7.5" r="7"/></g></g><g transform="translate(8121 7465)"><g class="e" transform="translate(-7147 -5030)"><rect class="u" width="583" height="362" rx="20"/><rect class="a" x="1" y="1" width="581" height="360" rx="19"/></g><g transform="translate(-6930 -4810)"><circle class="f" cx="21" cy="21" r="21"/><g transform="translate(-1166 -2561)"><text class="g" transform="translate(1187 2587)"><tspan x="-7.776" y="0">24</tspan></text></g></g><g transform="translate(-6860 -4750)"><g class="h"><circle class="u" cx="21" cy="21" r="21"/><circle class="a" cx="21" cy="21" r="20.5"/></g><g transform="translate(-1166 -2561)"><text class="g" transform="translate(1187 2587)"><tspan x="-7.296" y="0">25</tspan></text></g></g><g transform="translate(-6790 -4750)"><g class="i"><circle class="u" cx="21" cy="21" r="21"/><circle class="a" cx="21" cy="21" r="20.5"/></g><g transform="translate(-1166 -2561)"><text class="g" transform="translate(1187 2587)"><tspan x="-7.536" y="0">26</tspan></text></g></g><g transform="translate(-6720 -4750)"><g class="i"><circle class="u" cx="21" cy="21" r="21"/><circle class="a" cx="21" cy="21" r="20.5"/></g><g transform="translate(-1166 -2561)"><text class="g" transform="translate(1187 2587)"><tspan x="-7.422" y="0">27</tspan></text></g></g><g transform="translate(-6650 -4750)"><g class="i"><circle class="u" cx="21" cy="21" r="21"/><circle class="a" cx="21" cy="21" r="20.5"/></g><g transform="translate(-1166 -2561)"><text class="g" transform="translate(1187 2587)"><tspan x="-7.704" y="0">28</tspan></text></g></g><path class="j" d="M6,0l6,7H0Z" transform="translate(-6800 -4735) rotate(90)"/><path class="j" d="M6,0l6,7H0Z" transform="translate(-6730 -4735) rotate(90)"/><g class="k" transform="translate(-6860 -4795)"><rect class="u" width="252" height="14" rx="7"/><rect class="a" x="0.5" y="0.5" width="251" height="13" rx="6.5"/></g><path class="j" d="M6,0l6,7H0Z" transform="translate(-6660 -4735) rotate(90)"/><g transform="translate(1857.646 43.861)"><g transform="translate(-8689 -4862.861)"><g transform="translate(36.028 2.301)"><path class="j" d="M215.094,265.4a1.041,1.041,0,0,1-.665-.18.76.76,0,0,1-.222-.623v-2.578h.687a1.082,1.082,0,0,1,.433.074.664.664,0,0,1,.4.446,1.042,1.042,0,0,1,.037.266v1.423h5.029V265.4h-2.546v.972h3.508v1.173h-8.59V266.37h3.508V265.4Zm5.674,6.508h-.6a1.122,1.122,0,0,1-.444-.074.786.786,0,0,1-.274-.19.613.613,0,0,1-.143-.253,1.014,1.014,0,0,1-.037-.264v-1.659H214.1v-1.194h5.737a.916.916,0,0,1,.734.238,1.1,1.1,0,0,1,.2.713Z" transform="translate(-213.161 -261.879)"/><path class="j" d="M244.719,262.978a2.445,2.445,0,0,0,.539,1.606,3.318,3.318,0,0,0,1.469.993v1.289a5.194,5.194,0,0,1-1.733-.861,3.928,3.928,0,0,1-1.046-1.168,4.179,4.179,0,0,1-1.025,1.226,5.064,5.064,0,0,1-1.722.919v-1.289a3.946,3.946,0,0,0,1.448-1.109,2.522,2.522,0,0,0,.517-1.6v-1.2h.983q.37,0,.47.164a.768.768,0,0,1,.1.407Zm-2.039,4.268h.9q.38,0,.481.159a.757.757,0,0,1,.1.412v.549h3.55v-1.12h1.479v3.17a1.165,1.165,0,0,1-.285.85,1.245,1.245,0,0,1-.919.29h-4.1a1.231,1.231,0,0,1-.919-.3,1.3,1.3,0,0,1-.285-.93Zm5.029,3.138v-.877h-3.55v.877Zm0-8.77h.644a1.1,1.1,0,0,1,.433.074.608.608,0,0,1,.254.19.7.7,0,0,1,.116.254,1.17,1.17,0,0,1,.031.264v4.374h-1.479Z" transform="translate(-231.608 -261.615)"/><path class="j" d="M268.506,262.61h5.135V263.8h-1.765v1.12a3.66,3.66,0,0,0,.454,1.8,3.734,3.734,0,0,0,1.521,1.416v1.479a6.965,6.965,0,0,1-.882-.491,6.188,6.188,0,0,1-.792-.613,5.114,5.114,0,0,1-.639-.7,3.107,3.107,0,0,1-.422-.745,3.6,3.6,0,0,1-.47.761,5.686,5.686,0,0,1-.682.718,6.718,6.718,0,0,1-.8.613,5.088,5.088,0,0,1-.835.444l-.011-1.469a3.665,3.665,0,0,0,1.511-1.368,3.541,3.541,0,0,0,.486-1.822V263.8h-1.807Zm6.064-.655h.676a.762.762,0,0,1,.645.238.865.865,0,0,1,.18.533v2.916h1.5v1.194h-1.5v4.734h-.6a1.12,1.12,0,0,1-.444-.074.83.83,0,0,1-.274-.185.57.57,0,0,1-.143-.254,1.074,1.074,0,0,1-.037-.269Z" transform="translate(-249.446 -261.839)"/></g><g transform="translate(0 0)"><g transform="translate(17.754 2.269)"><path class="j" d="M163.361,267.575h1.807v.359a1.89,1.89,0,0,1-.441,1.31,1.76,1.76,0,0,1-1.365.552,1.606,1.606,0,0,1-1.227-.51c-.359-.414-.469-.9-.469-2.772s.11-2.345.469-2.758a1.614,1.614,0,0,1,1.227-.524,1.656,1.656,0,0,1,1.765,1.434h1.931a3.773,3.773,0,0,0-6.316-2.11c-.979.979-.993,2.082-.993,3.958s.014,2.979.993,3.958a3.919,3.919,0,0,0,5.392-.083,3.829,3.829,0,0,0,.938-2.993v-1.434h-3.71Z" transform="translate(-159.748 -261.521)"/><path class="j" d="M188.948,269.8a1.585,1.585,0,0,1-1.227-.51c-.359-.414-.483-.9-.483-2.772s.124-2.358.483-2.772a1.583,1.583,0,0,1,1.227-.51,1.609,1.609,0,0,1,1.641,1.393h1.958a3.457,3.457,0,0,0-3.6-3.1,3.551,3.551,0,0,0-2.634,1.035c-.979.979-.993,2.082-.993,3.958s.014,2.979.993,3.958a3.551,3.551,0,0,0,2.634,1.034,3.466,3.466,0,0,0,3.6-3.1H190.6A1.623,1.623,0,0,1,188.948,269.8Z" transform="translate(-176.572 -261.521)"/></g><path class="j" d="M120.844,260.143l-3-.653-.654-2.925a2.041,2.041,0,0,0-4.016,0l-.653,2.925-3,.653a2.039,2.039,0,0,0,0,4.014l3,.653.653,2.925a2.041,2.041,0,0,0,4.016,0l.652-2.919,3-.66a2.039,2.039,0,0,0,0-4.014Zm-4.268,7.454,0,.013,0,.013a1.407,1.407,0,0,1-2.768,0l0-.013,0-.013-.654-2.925-.088-.4-.4-.086-3-.653-.011,0-.011,0a1.406,1.406,0,0,1,0-2.766l.011,0,.011,0,2.815-.614a2.118,2.118,0,0,0,.386,1.289,3.07,3.07,0,0,0,2.289,1.022,2.551,2.551,0,0,1,1.854.774,1.858,1.858,0,0,1,.206,1.505Zm4.155-4.064-.012,0-.012,0-2.814.619a2.122,2.122,0,0,0-.386-1.295,3.071,3.071,0,0,0-2.29-1.022,2.55,2.55,0,0,1-1.853-.773,1.851,1.851,0,0,1-.207-1.5l.64-2.865,0-.013,0-.013a1.407,1.407,0,0,1,2.768,0l0,.013,0,.013.653,2.925.088.395.4.086,3,.653.011,0,.012,0a1.406,1.406,0,0,1,0,2.766Z" transform="translate(-107.853 -254.889)"/></g></g><g transform="translate(-8689 -4844.513)"><g transform="translate(121.792 23.65)"><path class="j" d="M388.9,587.91h1.95v2.558h.618v-4.6a.632.632,0,0,0-.066-.29.292.292,0,0,0-.286-.128h-.266v1.95H388.9Z" transform="translate(-384.981 -585.447)"/><path class="j" d="M386.492,588.1a3.385,3.385,0,0,0,.923,1.126,5.328,5.328,0,0,0,1.341.775v-.58a4.211,4.211,0,0,1-.765-.419,3.278,3.278,0,0,1-.618-.551,2.573,2.573,0,0,1-.414-.656,1.872,1.872,0,0,1-.152-.752v-.732h1.854V585.8h-4.336v.513h1.845v.742a2.13,2.13,0,0,1-.152.8,2.519,2.519,0,0,1-.414.685,3.227,3.227,0,0,1-.613.556,4,4,0,0,1-.761.419v.58a5.078,5.078,0,0,0,1.341-.789A3.35,3.35,0,0,0,386.492,588.1Z" transform="translate(-384.229 -585.504)"/><path class="j" d="M390.819,592.7a1.393,1.393,0,0,0-.471-.56,2.422,2.422,0,0,0-.827-.362,5.038,5.038,0,0,0-1.226-.128,5.1,5.1,0,0,0-1.232.128,2.365,2.365,0,0,0-.827.362,1.407,1.407,0,0,0-.466.56,1.913,1.913,0,0,0,0,1.474,1.4,1.4,0,0,0,.466.561,2.379,2.379,0,0,0,.827.362,5.142,5.142,0,0,0,1.232.128,5.078,5.078,0,0,0,1.226-.128,2.437,2.437,0,0,0,.827-.362,1.389,1.389,0,0,0,.471-.561,1.913,1.913,0,0,0,0-1.474Zm-1,1.716a4.073,4.073,0,0,1-3.045,0,1.164,1.164,0,0,1,0-1.959,4.085,4.085,0,0,1,3.045,0,1.162,1.162,0,0,1,0,1.959Z" transform="translate(-384.454 -586.446)"/></g><g transform="translate(0 0.211)"><path class="j" d="M246.79,578.088q2.241,0,4.917-.217a44.912,44.912,0,0,0,5.062-.687v2.857q-.977.218-2.242.4t-2.6.326q-1.339.145-2.658.235t-2.4.091h-5.026a2.965,2.965,0,0,1-2.079-.651,2.683,2.683,0,0,1-.7-2.06V559.4H253.7v3H242.74v15.692Zm16.342,11.643h-1.3a2.962,2.962,0,0,1-1.175-.2,1.788,1.788,0,0,1-1.066-1.194,2.7,2.7,0,0,1-.108-.741V557.551H261a1.907,1.907,0,0,1,1.7.651,2.435,2.435,0,0,1,.434,1.374Z" transform="translate(-239.053 -557.515)"/><path class="j" d="M281.824,581.262q-4.339,0-6.31-2.711t-1.971-8.425q0-5.677,1.971-8.388t6.31-2.711q3.977,0,5.966,2.314t2.278,7.2h5.822V557.508h1.663a1.815,1.815,0,0,1,1.609.615,2.717,2.717,0,0,1,.416,1.555v30.046h-1.3a2.954,2.954,0,0,1-1.174-.2,2.06,2.06,0,0,1-.724-.506,1.779,1.779,0,0,1-.38-.688,2.69,2.69,0,0,1-.107-.741V571.646h-5.822q-.253,4.772-2.151,7.195T281.824,581.262Zm0-3.181a5,5,0,0,0,2.314-.47,3.388,3.388,0,0,0,1.429-1.446,7.528,7.528,0,0,0,.741-2.477,25.2,25.2,0,0,0,.217-3.561,21.588,21.588,0,0,0-.272-3.724,7.057,7.057,0,0,0-.85-2.459,3.307,3.307,0,0,0-1.464-1.337,5.825,5.825,0,0,0-4.231,0,3.307,3.307,0,0,0-1.464,1.337,7.076,7.076,0,0,0-.85,2.459,21.684,21.684,0,0,0-.271,3.724,21.942,21.942,0,0,0,.271,3.761,7.065,7.065,0,0,0,.85,2.458,3.3,3.3,0,0,0,1.464,1.338A5.14,5.14,0,0,0,281.824,578.081Z" transform="translate(-244.609 -557.508)"/><path class="j" d="M323.653,559.388a2.466,2.466,0,0,1,1.935.56,2.922,2.922,0,0,1,.452,1.826v16.813a3.487,3.487,0,0,1-.56,2.08,2.5,2.5,0,0,1-2.151.777H313.24a2.869,2.869,0,0,1-1.772-.47,2.024,2.024,0,0,1-.614-1.7V559.388Zm-9.147,19.091h7.882V562.353h-7.882Zm20.79,11.245h-1.3a2.955,2.955,0,0,1-1.175-.2,1.786,1.786,0,0,1-1.067-1.194,2.7,2.7,0,0,1-.109-.741V557.508h1.518a1.906,1.906,0,0,1,1.7.651,2.435,2.435,0,0,1,.435,1.373Z" transform="translate(-250.618 -557.508)"/></g><g transform="translate(92.284 0)"><path class="j" d="M364.961,575.729v7.228h-2.349v-7.228H349.055v-1.954H377v1.954Zm-1.88-11.533a12.612,12.612,0,0,1-4.048,3.9,19.94,19.94,0,0,1-6.4,2.529V568.5a17.657,17.657,0,0,0,3.706-1.283,13.453,13.453,0,0,0,2.91-1.862,7.807,7.807,0,0,0,1.9-2.333,5.747,5.747,0,0,0,.669-2.692v-3.071h1.193a1.106,1.106,0,0,1,1.085.486,2.366,2.366,0,0,1,.253,1.1v1.482a5.749,5.749,0,0,0,.669,2.692,7.781,7.781,0,0,0,1.9,2.333,13.457,13.457,0,0,0,2.911,1.862,17.62,17.62,0,0,0,3.706,1.283v2.133a19.911,19.911,0,0,1-6.4-2.529A12.613,12.613,0,0,1,363.081,564.2Zm10.665,25.3h-18.51a2.626,2.626,0,0,1-1.409-.358,1.416,1.416,0,0,1-.579-1.3v-8.1h1.3q1.048,0,1.049.974v6.834h18.148Z" transform="translate(-349.055 -557.256)"/></g></g><g transform="translate(-8627.813 -4809.25)"><path class="j" d="M310.042,612.715a.733.733,0,0,1-.487-.139.6.6,0,0,1-.163-.474V605.61h2.3a3.659,3.659,0,0,1,1.161.153,2.058,2.058,0,0,1,.789.5,1.875,1.875,0,0,1,.362.5,2.654,2.654,0,0,1,.2.613,5.013,5.013,0,0,1,.088.771c.013.284.019.61.019.976,0,.384-.005.721-.019,1.012a5.156,5.156,0,0,1-.088.785,2.58,2.58,0,0,1-.2.623,2.194,2.194,0,0,1-.368.524,1.851,1.851,0,0,1-.8.5,3.276,3.276,0,0,1-1,.149Zm.353-.845h1.3a1.677,1.677,0,0,0,.743-.153,1.41,1.41,0,0,0,.52-.422,1.6,1.6,0,0,0,.274-.8,12.171,12.171,0,0,0,.061-1.365,10.687,10.687,0,0,0-.065-1.329,1.542,1.542,0,0,0-.278-.771,1.447,1.447,0,0,0-.534-.427,1.738,1.738,0,0,0-.757-.158h-1.263Z" transform="translate(-309.392 -605.61)"/><path class="j" d="M317.558,611.024a2.42,2.42,0,0,0,.116.7,1.217,1.217,0,0,0,1.24.822,1.911,1.911,0,0,0,.692-.116,1.6,1.6,0,0,0,.571-.395l.51.631a2.68,2.68,0,0,1-.766.5,2.586,2.586,0,0,1-1.017.176,3.084,3.084,0,0,1-.878-.112,1.84,1.84,0,0,1-.7-.4,2.106,2.106,0,0,1-.548-.841,3.722,3.722,0,0,1-.2-1.323,2.88,2.88,0,0,1,.585-1.951,2,2,0,0,1,1.6-.641,2.124,2.124,0,0,1,.906.176,2.178,2.178,0,0,1,.645.456,1.778,1.778,0,0,1,.442.808,4.036,4.036,0,0,1,.125,1.022v.483Zm2.358-.743a3.244,3.244,0,0,0-.065-.529,1.118,1.118,0,0,0-.186-.4,1.165,1.165,0,0,0-.371-.329,1.221,1.221,0,0,0-1.05-.014,1.049,1.049,0,0,0-.362.315,1.375,1.375,0,0,0-.218.418,2.653,2.653,0,0,0-.1.538Z" transform="translate(-311.039 -606.177)"/><path class="j" d="M326.553,613.282a.489.489,0,0,1-.529-.445,1.666,1.666,0,0,1-.617.385,2.836,2.836,0,0,1-.887.116,1.664,1.664,0,0,1-1.216-.418,1.487,1.487,0,0,1-.428-1.114,1.453,1.453,0,0,1,.465-1.124,1.879,1.879,0,0,1,1.318-.428h1.329v-.315a1.02,1.02,0,0,0-.274-.794,1.08,1.08,0,0,0-.748-.247,1.415,1.415,0,0,0-.711.167,4.01,4.01,0,0,0-.59.418l-.492-.64a3.09,3.09,0,0,1,.766-.529,2.251,2.251,0,0,1,1.027-.232,2.169,2.169,0,0,1,1.491.46,1.666,1.666,0,0,1,.515,1.314v3.427Zm-.566-2.257h-1.235a1.07,1.07,0,0,0-.683.19.69.69,0,0,0-.237.572.729.729,0,0,0,.223.6,1.156,1.156,0,0,0,.716.176,1.487,1.487,0,0,0,.715-.186,1.22,1.22,0,0,0,.5-.464Z" transform="translate(-312.484 -606.177)"/><path class="j" d="M330.61,613.282H330.2q-.566,0-.566-.483v-4.653h.947v.446c.087-.075.173-.144.26-.209a1.378,1.378,0,0,1,.284-.163,1.755,1.755,0,0,1,.344-.1,2.46,2.46,0,0,1,.451-.037,1.644,1.644,0,0,1,.682.14,2.458,2.458,0,0,1,.534.316l-.51.751a1.459,1.459,0,0,0-.4-.287,1.29,1.29,0,0,0-.557-.1,1.037,1.037,0,0,0-.752.3,1.026,1.026,0,0,0-.307.771Z" transform="translate(-314.034 -606.177)"/><path class="j" d="M333.383,614.452v-1.226H334.6v1.226Z" transform="translate(-314.893 -607.356)"/><path class="j" d="M341.655,610.071a1.253,1.253,0,0,0-.274-.887.963.963,0,0,0-.738-.293,1.05,1.05,0,0,0-.747.265,1.154,1.154,0,0,0-.284.877v3.251h-.436a.559.559,0,0,1-.408-.13.582.582,0,0,1-.13-.427v-4.579h.946v.419a1.773,1.773,0,0,1,.558-.358,2.252,2.252,0,0,1,.8-.116,1.628,1.628,0,0,1,.822.186,1.877,1.877,0,0,1,.58.548,1.934,1.934,0,0,1,.687-.557,2.258,2.258,0,0,1,.947-.177,1.691,1.691,0,0,1,.72.144,1.53,1.53,0,0,1,.525.39,1.7,1.7,0,0,1,.325.571,2.109,2.109,0,0,1,.111.687v3.4h-.445a.516.516,0,0,1-.4-.149.569.569,0,0,1-.135-.4v-2.656a1.635,1.635,0,0,0-.084-.563.962.962,0,0,0-.227-.366.851.851,0,0,0-.324-.2,1.17,1.17,0,0,0-.377-.061,1.016,1.016,0,0,0-.751.279,1.231,1.231,0,0,0-.279.9v3.213H342.2q-.548,0-.548-.511Z" transform="translate(-316.098 -606.179)"/><path class="j" d="M349.936,611.024a2.421,2.421,0,0,0,.116.7,1.217,1.217,0,0,0,1.24.822,1.911,1.911,0,0,0,.692-.116,1.6,1.6,0,0,0,.571-.395l.51.631a2.68,2.68,0,0,1-.766.5,2.586,2.586,0,0,1-1.017.176,3.085,3.085,0,0,1-.878-.112,1.841,1.841,0,0,1-.7-.4,2.106,2.106,0,0,1-.548-.841,3.72,3.72,0,0,1-.205-1.323,2.88,2.88,0,0,1,.585-1.951,2,2,0,0,1,1.6-.641,2.125,2.125,0,0,1,.906.176,2.178,2.178,0,0,1,.645.456,1.779,1.779,0,0,1,.442.808,4.034,4.034,0,0,1,.125,1.022v.483Zm2.358-.743a3.331,3.331,0,0,0-.065-.529,1.117,1.117,0,0,0-.186-.4,1.16,1.16,0,0,0-.372-.329,1.074,1.074,0,0,0-.538-.126,1.086,1.086,0,0,0-.511.112,1.049,1.049,0,0,0-.362.315,1.376,1.376,0,0,0-.218.418,2.659,2.659,0,0,0-.1.538Z" transform="translate(-318.463 -606.177)"/><path class="j" d="M361.86,611.8a1.386,1.386,0,0,1-.153.66,1.4,1.4,0,0,1-.423.482,1.9,1.9,0,0,1-.641.293,3.19,3.19,0,0,1-.808.1,3.6,3.6,0,0,1-.533-.038,2.539,2.539,0,0,1-.479-.121,2.946,2.946,0,0,1-.46-.214,3.582,3.582,0,0,1-.459-.316l.529-.705a3.154,3.154,0,0,0,.691.436,1.889,1.889,0,0,0,.711.149,1.257,1.257,0,0,0,.766-.182.626.626,0,0,0,.265-.543.835.835,0,0,0-.121-.469.8.8,0,0,0-.52-.264l-.929-.214a1.893,1.893,0,0,1-.961-.45,1.258,1.258,0,0,1-.292-.906,1.234,1.234,0,0,1,.478-1.049,2.813,2.813,0,0,1,2.4-.172,2.926,2.926,0,0,1,.752.478l-.51.651a3.336,3.336,0,0,0-.539-.362,1.4,1.4,0,0,0-.669-.149,1.21,1.21,0,0,0-.706.158.5.5,0,0,0-.214.428,1.181,1.181,0,0,0,.018.218.373.373,0,0,0,.079.171.535.535,0,0,0,.177.135,1.344,1.344,0,0,0,.311.107l.873.2a3.962,3.962,0,0,1,.608.19,1.264,1.264,0,0,1,.423.278,1.11,1.11,0,0,1,.25.418A1.884,1.884,0,0,1,361.86,611.8Z" transform="translate(-320.516 -606.177)"/><path class="j" d="M368.2,610.7a6.581,6.581,0,0,1-.1,1.058,2.147,2.147,0,0,1-.325.832,1.583,1.583,0,0,1-.645.543,2.437,2.437,0,0,1-1.05.2,2.488,2.488,0,0,1-1.049-.191,1.56,1.56,0,0,1-.645-.534,2.1,2.1,0,0,1-.325-.831,6,6,0,0,1-.089-1.073,5.864,5.864,0,0,1,.089-1.059,2.136,2.136,0,0,1,.325-.831,1.546,1.546,0,0,1,.645-.539,2.488,2.488,0,0,1,1.049-.19,2.522,2.522,0,0,1,1.054.19,1.581,1.581,0,0,1,.655.539,2.089,2.089,0,0,1,.329.826A5.378,5.378,0,0,1,368.2,610.7Zm-1,0a6.177,6.177,0,0,0-.037-.71,1.808,1.808,0,0,0-.153-.576.91.91,0,0,0-.334-.385,1.087,1.087,0,0,0-.59-.14,1.1,1.1,0,0,0-.6.144.891.891,0,0,0-.334.39,1.752,1.752,0,0,0-.139.576c-.018.22-.028.454-.028.7a6.4,6.4,0,0,0,.037.711,1.831,1.831,0,0,0,.153.576.943.943,0,0,0,.335.39,1.257,1.257,0,0,0,1.2-.018,1.007,1.007,0,0,0,.334-.418,1.742,1.742,0,0,0,.135-.58C367.192,611.143,367.2,610.923,367.2,610.7Z" transform="translate(-321.908 -606.177)"/><path class="j" d="M374.613,610.7a6.5,6.5,0,0,1-.1,1.058,2.159,2.159,0,0,1-.325.832,1.59,1.59,0,0,1-.646.543,2.433,2.433,0,0,1-1.049.2,2.483,2.483,0,0,1-1.049-.191,1.566,1.566,0,0,1-.646-.534,2.1,2.1,0,0,1-.325-.831,6.066,6.066,0,0,1-.088-1.073,5.931,5.931,0,0,1,.088-1.059,2.135,2.135,0,0,1,.325-.831,1.553,1.553,0,0,1,.646-.539,2.484,2.484,0,0,1,1.049-.19,2.518,2.518,0,0,1,1.054.19,1.581,1.581,0,0,1,.655.539,2.1,2.1,0,0,1,.33.826A5.44,5.44,0,0,1,374.613,610.7Zm-1,0a6.361,6.361,0,0,0-.037-.71,1.849,1.849,0,0,0-.153-.576.906.906,0,0,0-.334-.385,1.084,1.084,0,0,0-.59-.14,1.1,1.1,0,0,0-.6.144.886.886,0,0,0-.334.39,1.734,1.734,0,0,0-.139.576c-.019.22-.029.454-.029.7a6.4,6.4,0,0,0,.037.711,1.83,1.83,0,0,0,.154.576.925.925,0,0,0,.334.39,1.257,1.257,0,0,0,1.2-.018,1.013,1.013,0,0,0,.334-.418,1.742,1.742,0,0,0,.135-.58C373.6,611.143,373.61,610.923,373.61,610.7Z" transform="translate(-323.378 -606.177)"/><path class="j" d="M380.175,609.987a1.179,1.179,0,0,0-.256-.808.925.925,0,0,0-.729-.288,1,1,0,0,0-1.151,1.114v3.279h-.446a.543.543,0,0,1-.4-.13.584.584,0,0,1-.126-.418v-4.588h.947v.436a1.436,1.436,0,0,1,.558-.362,2.211,2.211,0,0,1,.789-.13,2.021,2.021,0,0,1,.78.139,1.551,1.551,0,0,1,.557.385,1.688,1.688,0,0,1,.339.572,2.064,2.064,0,0,1,.116.7v3.4h-.408a.682.682,0,0,1-.418-.112.519.519,0,0,1-.148-.436Z" transform="translate(-324.909 -606.179)"/></g></g><text class="l" transform="translate(-6690 -4795)"><tspan x="0" y="0">에티닐에스트라디올</tspan><tspan class="m"><tspan x="0" y="10">0.015mg</tspan></tspan></text><text class="l" transform="translate(-6690 -4770)"><tspan x="0" y="0">게스토덴</tspan><tspan class="m"><tspan x="0" y="10">0.06mg</tspan></tspan></text><text class="n" transform="translate(-7112 -4849) rotate(90)"><tspan x="-30.912" y="0">LOT/EXP</tspan></text><g transform="translate(-8125 -7521)"><g class="o" transform="translate(1051 2527)"><g transform="translate(-1051 -2527)"><g transform="translate(1055 2531)"><circle class="f" cx="21" cy="21" r="21"/><g transform="translate(-1166 -2561)"><text class="g" transform="translate(1187 2587)"><tspan x="-2.286" y="0">1</tspan></text></g></g></g><g transform="translate(-981 -2527)"><g transform="translate(1055 2531)"><path class="f" d="M21,0A21,21,0,1,1,0,21,21,21,0,0,1,21,0Z"/><g transform="translate(-1166 -2561)"><text class="g" transform="translate(1187 2587)"><tspan x="-3.492" y="0">2</tspan></text></g></g></g><g transform="translate(-911 -2527)"><g transform="translate(1055 2531)"><circle class="f" cx="21" cy="21" r="21"/><g transform="translate(-1166 -2561)"><text class="g" transform="translate(1187 2587)"><tspan x="-3.492" y="0">3</tspan></text></g></g></g><g transform="translate(-841 -2527)"><g transform="translate(1055 2531)"><circle class="f" cx="21" cy="21" r="21"/><g transform="translate(-1166 -2561)"><text class="g" transform="translate(1187 2587)"><tspan x="-4.074" y="0">4</tspan></text></g></g></g><g transform="translate(-771 -2527)"><g transform="translate(1055 2531)"><circle class="f" cx="21" cy="21" r="21"/><g transform="translate(-1166 -2561)"><text class="g" transform="translate(1187 2587)"><tspan x="-3.504" y="0">5</tspan></text></g></g></g><g transform="translate(-701 -2527)"><g transform="translate(1055 2531)"><circle class="f" cx="21" cy="21" r="21"/><g transform="translate(-1166 -2561)"><text class="g" transform="translate(1187 2587)"><tspan x="-3.762" y="0">6</tspan></text></g></g></g><g transform="translate(-631 -2527)"><g transform="translate(1055 2531)"><circle class="f" cx="21" cy="21" r="21"/><g transform="translate(-1166 -2561)"><text class="g" transform="translate(1187 2587)"><tspan x="-3.648" y="0">7</tspan></text></g></g></g></g><g class="p" transform="translate(1108 2546)"><g transform="translate(-1108 -2546)"><path class="j" d="M6,0l6,7H0Z" transform="translate(1115 2546) rotate(90)"/></g><g transform="translate(-1038 -2546)"><path class="j" d="M6,0l6,7H0Z" transform="translate(1115 2546) rotate(90)"/></g><g transform="translate(-968 -2546)"><path class="j" d="M6,0l6,7H0Z" transform="translate(1115 2546) rotate(90)"/></g><g transform="translate(-898 -2546)"><path class="j" d="M6,0l6,7H0Z" transform="translate(1115 2546) rotate(90)"/></g><g transform="translate(-828 -2546)"><path class="j" d="M6,0l6,7H0Z" transform="translate(1115 2546) rotate(90)"/></g><g transform="translate(-758 -2546)"><path class="j" d="M6,0l6,7H0Z" transform="translate(1115 2546) rotate(90)"/></g></g></g><g transform="translate(-8125 -7461)"><g class="o" transform="translate(1051 2527)"><g transform="translate(-1051 -2527)"><g transform="translate(1055 2531)"><circle class="f" cx="21" cy="21" r="21"/><g transform="translate(-1166 -2561)"><text class="q" transform="translate(1187 2587)"><tspan x="-3.912" y="0">8</tspan></text></g></g></g><g transform="translate(-981 -2527)"><g transform="translate(1055 2531)"><path class="f" d="M21,0A21,21,0,1,1,0,21,21,21,0,0,1,21,0Z"/><g transform="translate(-1166 -2561)"><text class="g" transform="translate(1187 2587)"><tspan x="-3.762" y="0">9</tspan></text></g></g></g><g transform="translate(-911 -2527)"><g transform="translate(1055 2531)"><circle class="f" cx="21" cy="21" r="21"/><g transform="translate(-1166 -2561)"><text class="g" transform="translate(1187 2587)"><tspan x="-6.624" y="0">10</tspan></text></g></g></g><g transform="translate(-841 -2527)"><g transform="translate(1055 2531)"><circle class="f" cx="21" cy="21" r="21"/><g transform="translate(-1166 -2561)"><text class="g" transform="translate(1187 2587)"><tspan x="-4.872" y="0">11</tspan></text></g></g></g><g transform="translate(-771 -2527)"><g transform="translate(1055 2531)"><circle class="f" cx="21" cy="21" r="21"/><g transform="translate(-1166 -2561)"><text class="g" transform="translate(1187 2587)"><tspan x="-6.078" y="0">12</tspan></text></g></g></g><g transform="translate(-701 -2527)"><g transform="translate(1055 2531)"><circle class="f" cx="21" cy="21" r="21"/><g transform="translate(-1166 -2561)"><text class="g" transform="translate(1187 2587)"><tspan x="-6.078" y="0">13</tspan></text></g></g></g><g transform="translate(-631 -2527)"><g transform="translate(1055 2531)"><circle class="f" cx="21" cy="21" r="21"/><g transform="translate(-1166 -2561)"><text class="g" transform="translate(1187 2587)"><tspan x="-6.66" y="0">14</tspan></text></g></g></g></g><g class="p" transform="translate(1108 2546)"><g transform="translate(-1108 -2546)"><path class="j" d="M6,0l6,7H0Z" transform="translate(1115 2546) rotate(90)"/></g><g transform="translate(-1038 -2546)"><path class="j" d="M6,0l6,7H0Z" transform="translate(1115 2546) rotate(90)"/></g><g transform="translate(-968 -2546)"><path class="j" d="M6,0l6,7H0Z" transform="translate(1115 2546) rotate(90)"/></g><g transform="translate(-898 -2546)"><path class="j" d="M6,0l6,7H0Z" transform="translate(1115 2546) rotate(90)"/></g><g transform="translate(-828 -2546)"><path class="j" d="M6,0l6,7H0Z" transform="translate(1115 2546) rotate(90)"/></g><g transform="translate(-758 -2546)"><path class="j" d="M6,0l6,7H0Z" transform="translate(1115 2546) rotate(90)"/></g></g></g><g transform="translate(-8125 -7401)"><g class="o" transform="translate(1051 2527)"><g transform="translate(-1051 -2527)"><g transform="translate(1055 2531)"><circle class="f" cx="21" cy="21" r="21"/><g transform="translate(-1166 -2561)"><text class="g" transform="translate(1187 2587)"><tspan x="-6.09" y="0">15</tspan></text></g></g></g><g transform="translate(-981 -2527)"><g transform="translate(1055 2531)"><path class="f" d="M21,0A21,21,0,1,1,0,21,21,21,0,0,1,21,0Z"/><g transform="translate(-1166 -2561)"><text class="g" transform="translate(1187 2587)"><tspan x="-6.348" y="0">16</tspan></text></g></g></g><g transform="translate(-911 -2527)"><g transform="translate(1055 2531)"><circle class="f" cx="21" cy="21" r="21"/><g transform="translate(-1166 -2561)"><text class="g" transform="translate(1187 2587)"><tspan x="-6.234" y="0">17</tspan></text></g></g></g><g transform="translate(-841 -2527)"><g transform="translate(1055 2531)"><circle class="f" cx="21" cy="21" r="21"/><g transform="translate(-1166 -2561)"><text class="g" transform="translate(1187 2587)"><tspan x="-6.498" y="0">18</tspan></text></g></g></g><g transform="translate(-771 -2527)"><g transform="translate(1055 2531)"><circle class="f" cx="21" cy="21" r="21"/><g transform="translate(-1166 -2561)"><text class="g" transform="translate(1187 2587)"><tspan x="-6.348" y="0">19</tspan></text></g></g></g><g transform="translate(-701 -2527)"><g transform="translate(1055 2531)"><circle class="f" cx="21" cy="21" r="21"/><g transform="translate(-1166 -2561)"><text class="g" transform="translate(1187 2587)"><tspan x="-7.812" y="0">20</tspan></text></g></g></g><g transform="translate(-631 -2527)"><g transform="translate(1055 2531)"><circle class="f" cx="21" cy="21" r="21"/><g transform="translate(-1166 -2561)"><text class="g" transform="translate(1187 2587)"><tspan x="-6.078" y="0">21</tspan></text></g></g></g></g><g class="p" transform="translate(1108 2546)"><g transform="translate(-1108 -2546)"><path class="j" d="M6,0l6,7H0Z" transform="translate(1115 2546) rotate(90)"/></g><g transform="translate(-1038 -2546)"><path class="j" d="M6,0l6,7H0Z" transform="translate(1115 2546) rotate(90)"/></g><g transform="translate(-968 -2546)"><path class="j" d="M6,0l6,7H0Z" transform="translate(1115 2546) rotate(90)"/></g><g transform="translate(-898 -2546)"><path class="j" d="M6,0l6,7H0Z" transform="translate(1115 2546) rotate(90)"/></g><g transform="translate(-828 -2546)"><path class="j" d="M6,0l6,7H0Z" transform="translate(1115 2546) rotate(90)"/></g><g transform="translate(-758 -2546)"><path class="j" d="M6,0l6,7H0Z" transform="translate(1115 2546) rotate(90)"/></g></g></g><g transform="translate(-7070 -4810)"><circle class="f" cx="21" cy="21" r="21"/><g transform="translate(-1166 -2561)"><text class="g" transform="translate(1187 2587)"><tspan x="-7.284" y="0">22</tspan></text></g></g><g transform="translate(-7000 -4810)"><path class="f" d="M21,0A21,21,0,1,1,0,21,21,21,0,0,1,21,0Z"/><g transform="translate(-1166 -2561)"><text class="g" transform="translate(1187 2587)"><tspan x="-7.284" y="0">23</tspan></text></g></g><path class="j" d="M6,0l6,7H0Z" transform="translate(-7010 -4795) rotate(90)"/><path class="j" d="M6,0l6,7H0Z" transform="translate(-6940 -4795) rotate(90)"/><g class="k" transform="translate(-7070 -4736)"><rect class="u" width="182" height="14" rx="7"/><rect class="a" x="0.5" y="0.5" width="181" height="13" rx="6.5"/></g></g><text class="r" transform="translate(1085 2402)"><tspan x="0" y="0">24일동안 </tspan><tspan x="0" y="20">노란색 1정씩</tspan></text><text class="s" transform="translate(1129 2461)"><tspan x="0" y="0">호일 뒷면에 표기된 요일은 하나의 가이드라인입니다.</tspan></text><rect class="j" width="1" height="89" transform="translate(1071 2386)"/><text class="r" transform="translate(1291 2822)"><tspan x="0" y="0">4일동안 </tspan><tspan x="0" y="20">흰색 1정씩</tspan></text><rect class="j" width="1" height="89" transform="translate(1281 2757)"/><text class="r" transform="translate(1092 2373)"><tspan x="0" y="0">생리시작일에 복용시작</tspan></text><g transform="translate(1061.549 2356.384)"><path class="t" d="M20.84,4.61a5.5,5.5,0,0,0-7.78,0L12,5.67,10.94,4.61a5.5,5.5,0,0,0-7.78,7.78l1.06,1.06L12,21.23l7.78-7.78,1.06-1.06a5.5,5.5,0,0,0,0-7.78Z" transform="translate(-1.549 -2.998)"/></g></g></svg>