<svg xmlns="http://www.w3.org/2000/svg" width="54" height="54" viewBox="0 0 54 54"><defs><style>.a,.c{fill:#fd60ad;}.b{fill:none;stroke-linecap:round;stroke-linejoin:round;}.b,.c{stroke:#fff;stroke-width:2px;}.c{stroke-miterlimit:10;}</style></defs><g transform="translate(-695 -2821)"><circle class="a" cx="27" cy="27" r="27" transform="translate(695 2821)"/><g transform="translate(-17 41)"><circle class="a" cx="1" cy="1" r="1" transform="translate(737 2801)"/><circle class="a" cx="1" cy="1" r="1" transform="translate(738 2798)"/><g transform="translate(28 -3)"><g transform="translate(703.331 2799)"><path class="b" d="M23.556,22.333V19.889A4.889,4.889,0,0,0,18.667,15H6.331" transform="translate(-6.331 -0.333)"/><circle class="b" cx="5" cy="5" r="5" transform="translate(2.669)"/></g></g></g><g transform="translate(-385.943 2184.588)"><path class="c" d="M1102.1,672.022a3.05,3.05,0,0,1-6.1,0c0-3.05,2.972-6.022,2.972-6.022S1102.1,668.972,1102.1,672.022Z" transform="translate(0 0)"/></g></g></svg>