<svg xmlns="http://www.w3.org/2000/svg" width="36.001" height="41.227" viewBox="0 0 36.001 41.227"><defs><style>.a{fill:#3bd9ff;}.b{fill:#fff;}</style></defs><g transform="translate(-712.999 -2727.001)"><path class="a" d="M9576.615-3778.052A18,18,0,0,1,9560-3796a18,18,0,0,1,18-18,18,18,0,0,1,18,18,18.006,18.006,0,0,1-13.676,17.477,8.414,8.414,0,0,0,2.389,4.958c.594.547.628.792.288.792C9583.954-3772.772,9579.355-3775.093,9576.615-3778.052Z" transform="translate(-8847 6541)"/><g transform="translate(724 2739)"><path class="b" d="M8.5,2l2.008,4.069L15,6.726,11.75,9.891l.767,4.472L8.5,12.25,4.483,14.363,5.25,9.891,2,6.726l4.491-.657Z" transform="translate(-2 -2)"/></g></g></svg>