<svg xmlns="http://www.w3.org/2000/svg" width="54" height="54" viewBox="0 0 54 54"><defs><style>.a{fill:#3bd9ff;}.b,.c{fill:none;stroke:#fff;stroke-linecap:round;stroke-width:2px;}.b{stroke-linejoin:round;}.c{stroke-miterlimit:10;}</style></defs><g transform="translate(-862 -2842)"><circle class="a" cx="27" cy="27" r="27" transform="translate(862 2842)"/><g transform="translate(706.002 2606)"><path class="b" d="M178.232,270A8.416,8.416,0,0,1,176,264.2"/><path class="b" d="M178.868,247l3.685,4.207a37.348,37.348,0,0,0,7.061,6.264C192.274,259.284,195,261,195,261c.463.89.3,2.429-.111,4.027A10.438,10.438,0,0,1,186,272.736"/><line class="b" x2="1" y2="3" transform="translate(194 261)"/><line class="c" x2="1" transform="translate(195 261)"/><path class="b" d="M183,270l-4,6h6l-4,6"/></g></g></svg>