<?xml version="1.0" encoding="utf-8"?>
<!-- Generator: Adobe Illustrator 23.0.0, SVG Export Plug-In . SVG Version: 6.00 Build 0)  -->
<svg version="1.1" id="Layer_1" xmlns="http://www.w3.org/2000/svg" xmlns:xlink="http://www.w3.org/1999/xlink" x="0px" y="0px"
	 viewBox="0 0 32 32" style="enable-background:new 0 0 32 32;" xml:space="preserve">
<style type="text/css">
	.st0{fill:none;}
	.st1{fill:none;stroke:#FFFFFF;stroke-width:2;stroke-miterlimit:10;}
	.st2{fill:#FFFFFF;stroke:#FFFFFF;stroke-linecap:round;stroke-linejoin:round;}
	.st3{fill:none;stroke:#FFFFFF;stroke-width:2;stroke-linecap:round;stroke-linejoin:round;}
	.st4{fill:#FFFFFF;}
</style>
<rect class="st0" width="32" height="32"/>
<path class="st1" d="M4.7,15.6C4.8,9.3,9.9,4.3,16.1,4.4c6.1,0.1,11.1,5,11.2,11.2"/>
<path class="st2" d="M25.4,24c2.6,0,4.7-2.1,4.7-4.7c0-2.6-2.1-4.7-4.7-4.7V24z"/>
<path class="st2" d="M6.6,24c-2.6,0-4.7-2.1-4.7-4.7c0-2.6,2.1-4.7,4.7-4.7V24z"/>
<path class="st3" d="M27.3,22.1v3.3c0,1.3-1.1,2.4-2.4,2.4l0,0h-3.3"/>
<circle class="st4" cx="11.4" cy="19.2" r="1.5"/>
<circle class="st4" cx="16.4" cy="19.2" r="1.5"/>
<circle class="st4" cx="21.4" cy="19.2" r="1.5"/>
</svg>
