<svg xmlns="http://www.w3.org/2000/svg" width="75" height="75" viewBox="0 0 75 75"><defs><style>.a{fill:#3bd9ff;}.b{fill:#fff;}</style></defs><g transform="translate(-675 -3834)"><circle class="a" cx="37.5" cy="37.5" r="37.5" transform="translate(675 3834)"/><path class="b" d="M11.5.225a22.369,22.369,0,0,1,5.929,4.89,18.547,18.547,0,0,1,3.482,7.526,13.022,13.022,0,0,1-.77,8.154A9.9,9.9,0,0,1,11.109,27a10.848,10.848,0,0,1-7.9-3.355A11.587,11.587,0,0,1,0,15.591a12.073,12.073,0,0,1,2.529-7q.807-1.2,1.781-2.423A70.925,70.925,0,0,1,9.769.313,1.526,1.526,0,0,1,11.5.225Z" transform="translate(701.883 3858)"/></g></svg>