<svg xmlns="http://www.w3.org/2000/svg" width="24" height="24" viewBox="0 0 24 24"><defs><style>.a{fill:none;}.b{fill:#383838;}</style></defs><rect class="a" width="24" height="24"/><path class="b" d="M9.777,0C7.121,0,6.789.012,5.746.059A7.209,7.209,0,0,0,3.373.513,4.788,4.788,0,0,0,1.641,1.641,4.77,4.77,0,0,0,.513,3.373,7.188,7.188,0,0,0,.059,5.746C.01,6.789,0,7.121,0,9.777s.012,2.988.059,4.03A7.213,7.213,0,0,0,.513,16.18a4.8,4.8,0,0,0,1.128,1.732A4.781,4.781,0,0,0,3.373,19.04a7.218,7.218,0,0,0,2.373.455c1.043.049,1.374.059,4.03.059s2.988-.012,4.03-.059a7.235,7.235,0,0,0,2.373-.455,5,5,0,0,0,2.86-2.86,7.213,7.213,0,0,0,.455-2.373c.049-1.043.059-1.374.059-4.03s-.012-2.988-.059-4.03a7.23,7.23,0,0,0-.455-2.373,4.8,4.8,0,0,0-1.128-1.732A4.764,4.764,0,0,0,16.181.513,7.193,7.193,0,0,0,13.807.059C12.764.01,12.433,0,9.777,0Zm0,1.76c2.61,0,2.921.013,3.951.058a5.387,5.387,0,0,1,1.814.338A3.217,3.217,0,0,1,17.4,4.011a5.4,5.4,0,0,1,.336,1.814c.046,1.031.057,1.341.057,3.951s-.012,2.921-.06,3.951a5.5,5.5,0,0,1-.343,1.814,3.1,3.1,0,0,1-.732,1.126,3.05,3.05,0,0,1-1.124.73,5.438,5.438,0,0,1-1.821.336c-1.038.046-1.343.057-3.959.057s-2.922-.012-3.959-.06a5.544,5.544,0,0,1-1.822-.343,3.028,3.028,0,0,1-1.124-.732,2.969,2.969,0,0,1-.733-1.124,5.548,5.548,0,0,1-.342-1.821c-.037-1.027-.05-1.343-.05-3.947s.013-2.922.05-3.96a5.542,5.542,0,0,1,.342-1.82,2.9,2.9,0,0,1,.733-1.125,2.892,2.892,0,0,1,1.124-.732,5.411,5.411,0,0,1,1.81-.343c1.039-.037,1.344-.049,3.959-.049l.037.024Zm0,3a5.02,5.02,0,1,0,5.02,5.02A5.02,5.02,0,0,0,9.777,4.756Zm0,8.279a3.259,3.259,0,1,1,3.259-3.259A3.258,3.258,0,0,1,9.777,13.036Zm6.392-8.477A1.173,1.173,0,1,1,15,3.386,1.174,1.174,0,0,1,16.169,4.558Z" transform="translate(2 2)"/></svg>