<svg xmlns="http://www.w3.org/2000/svg" xmlns:xlink="http://www.w3.org/1999/xlink" width="1152" height="157" viewBox="0 0 1152 157"><defs><style>.a,.b,.e{fill:none;}.b{stroke:#fff;}.c{fill:#f8d719;}.d,.g,.h{fill:#fff;}.d{font-size:18px;font-family:NotoSansCJKkr-Medium, Noto Sans CJK KR;font-weight:500;letter-spacing:-0.02em;}.e{stroke:#f8d719;stroke-linecap:round;stroke-linejoin:round;stroke-width:2px;}.f{clip-path:url(#a);}.g{font-size:14px;font-family:Montserrat-Bold, Montserrat;font-weight:700;letter-spacing:0.05em;}.i{stroke:none;}</style><clipPath id="a"><rect class="a" width="1146" height="33"/></clipPath></defs><g transform="translate(-388 -4561)"><g class="b" transform="translate(610 4593)"><rect class="i" width="31" height="66" rx="15.5"/><rect class="a" x="0.5" y="0.5" width="30" height="65" rx="15"/></g><rect class="c" width="31" height="66" rx="15.5" transform="translate(388 4593)"/><g class="b" transform="translate(869 4593)"><rect class="i" width="31" height="66" rx="15.5"/><rect class="a" x="0.5" y="0.5" width="30" height="65" rx="15"/></g><g class="b" transform="translate(1128 4593)"><rect class="i" width="31" height="66" rx="15.5"/><rect class="a" x="0.5" y="0.5" width="30" height="65" rx="15"/></g><g class="b" transform="translate(1387 4593)"><rect class="i" width="31" height="66" rx="15.5"/><rect class="a" x="0.5" y="0.5" width="30" height="65" rx="15"/></g><text class="d" transform="translate(424 4577)"><tspan x="0" y="0">생리시작일에 복용시작</tspan></text><text class="d" transform="translate(393 4703)"><tspan x="0" y="0">24일동안 노란색 1정씩</tspan></text><text class="d" transform="translate(1429 4690)"><tspan x="0" y="0">새로운 팩으로</tspan><tspan x="0" y="26">복용 시작</tspan></text><text class="d" transform="translate(1274 4690)"><tspan x="0" y="0">4일동안 흰색 1정씩</tspan></text><g transform="translate(393.049 4562.384)"><path class="e" d="M20.84,4.61a5.5,5.5,0,0,0-7.78,0L12,5.67,10.94,4.61a5.5,5.5,0,0,0-7.78,7.78l1.06,1.06L12,21.23l7.78-7.78,1.06-1.06a5.5,5.5,0,0,0,0-7.78Z" transform="translate(-1.549 -2.998)"/></g><g class="f" transform="translate(388 4622)"><g transform="translate(-362 -5655)"><text class="g" transform="translate(378 5681)"><tspan x="-7.805" y="0">01</tspan></text></g><g transform="translate(-325 -5655)"><text class="g" transform="translate(378 5681)"><tspan x="-9.191" y="0">02</tspan></text></g><g transform="translate(-288 -5655)"><text class="g" transform="translate(378 5681)"><tspan x="-9.177" y="0">03</tspan></text></g><g transform="translate(-251 -5655)"><text class="g" transform="translate(378 5681)"><tspan x="-9.926" y="0">04</tspan></text></g><g transform="translate(-214 -5655)"><text class="g" transform="translate(378 5681)"><tspan x="-9.268" y="0">05</tspan></text></g><g transform="translate(-177 -5655)"><text class="g" transform="translate(378 5681)"><tspan x="-9.562" y="0">06</tspan></text></g><g transform="translate(-140 -5655)"><text class="g" transform="translate(378 5681)"><tspan x="-9.415" y="0">07</tspan></text></g><g transform="translate(-103 -5655)"><text class="g" transform="translate(378 5681)"><tspan x="-9.723" y="0">08</tspan></text></g><g transform="translate(-66 -5655)"><text class="g" transform="translate(378 5681)"><tspan x="-9.562" y="0">09</tspan></text></g><g transform="translate(-29 -5655)"><text class="g" transform="translate(378 5681)"><tspan x="-7.847" y="0">10</tspan></text></g><g transform="translate(8 -5655)"><text class="g" transform="translate(378 5681)"><tspan x="-5.838" y="0">11</tspan></text></g><g transform="translate(45 -5655)"><text class="g" transform="translate(378 5681)"><tspan x="-7.224" y="0">12</tspan></text></g><g transform="translate(82 -5655)"><text class="g" transform="translate(378 5681)"><tspan x="-7.238" y="0">13</tspan></text></g><g transform="translate(119 -5655)"><text class="g" transform="translate(378 5681)"><tspan x="-7.917" y="0">14</tspan></text></g><g transform="translate(156 -5655)"><text class="g" transform="translate(378 5681)"><tspan x="-7.259" y="0">15</tspan></text></g><g transform="translate(193 -5655)"><text class="g" transform="translate(378 5681)"><tspan x="-7.553" y="0">16</tspan></text></g><g transform="translate(230 -5655)"><text class="g" transform="translate(378 5681)"><tspan x="-7.434" y="0">17</tspan></text></g><g transform="translate(267 -5655)"><text class="g" transform="translate(378 5681)"><tspan x="-7.714" y="0">18</tspan></text></g><g transform="translate(304 -5655)"><text class="g" transform="translate(378 5681)"><tspan x="-7.553" y="0">19</tspan></text></g><g transform="translate(341 -5655)"><text class="g" transform="translate(378 5681)"><tspan x="-9.219" y="0">20</tspan></text></g><g transform="translate(378 -5655)"><text class="g" transform="translate(378 5681)"><tspan x="-7.224" y="0">21</tspan></text></g><g transform="translate(415 -5655)"><text class="g" transform="translate(378 5681)"><tspan x="-8.61" y="0">22</tspan></text></g><g transform="translate(452 -5655)"><text class="g" transform="translate(378 5681)"><tspan x="-8.624" y="0">23</tspan></text></g><g transform="translate(489 -5655)"><text class="g" transform="translate(378 5681)"><tspan x="-9.233" y="0">24</tspan></text></g><g transform="translate(526 -5655)"><text class="g" transform="translate(378 5681)"><tspan x="-8.645" y="0">25</tspan></text></g><g transform="translate(563 -5655)"><text class="g" transform="translate(378 5681)"><tspan x="-8.925" y="0">26</tspan></text></g><g transform="translate(600 -5655)"><text class="g" transform="translate(378 5681)"><tspan x="-8.806" y="0">27</tspan></text></g><g transform="translate(637 -5655)"><text class="g" transform="translate(378 5681)"><tspan x="-9.1" y="0">28</tspan></text></g><g transform="translate(674 -5655)"><text class="g" transform="translate(378 5681)"><tspan x="-8.939" y="0">29</tspan></text></g><g transform="translate(711 -5655)"><text class="g" transform="translate(378 5681)"><tspan x="-9.247" y="0">30</tspan></text></g><g transform="translate(748 -5655)"><text class="g" transform="translate(378 5681)"><tspan x="-7.238" y="0">31</tspan></text></g></g><text class="g" transform="translate(403 4615)"><tspan x="-6.685" y="0">M</tspan></text><text class="g" transform="translate(440 4615)"><tspan x="-4.326" y="0">T</tspan></text><text class="g" transform="translate(477 4615)"><tspan x="-8.141" y="0">W</tspan></text><text class="g" transform="translate(514 4615)"><tspan x="-4.326" y="0">T</tspan></text><text class="g" transform="translate(551 4615)"><tspan x="-4.473" y="0">F</tspan></text><text class="g" transform="translate(588 4615)"><tspan x="-4.466" y="0">S</tspan></text><text class="g" transform="translate(625 4615)"><tspan x="-4.466" y="0">S</tspan></text><text class="g" transform="translate(662 4615)"><tspan x="-6.685" y="0">M</tspan></text><text class="g" transform="translate(699 4615)"><tspan x="-4.326" y="0">T</tspan></text><text class="g" transform="translate(736 4615)"><tspan x="-8.141" y="0">W</tspan></text><text class="g" transform="translate(773 4615)"><tspan x="-4.326" y="0">T</tspan></text><text class="g" transform="translate(810 4615)"><tspan x="-4.473" y="0">F</tspan></text><text class="g" transform="translate(847 4615)"><tspan x="-4.466" y="0">S</tspan></text><text class="g" transform="translate(884 4615)"><tspan x="-4.466" y="0">S</tspan></text><text class="g" transform="translate(921 4615)"><tspan x="-6.685" y="0">M</tspan></text><text class="g" transform="translate(958 4615)"><tspan x="-4.326" y="0">T</tspan></text><text class="g" transform="translate(995 4615)"><tspan x="-8.141" y="0">W</tspan></text><text class="g" transform="translate(1032 4615)"><tspan x="-4.326" y="0">T</tspan></text><text class="g" transform="translate(1069 4615)"><tspan x="-4.473" y="0">F</tspan></text><text class="g" transform="translate(1106 4615)"><tspan x="-4.466" y="0">S</tspan></text><text class="g" transform="translate(1143 4615)"><tspan x="-4.466" y="0">S</tspan></text><text class="g" transform="translate(1180 4615)"><tspan x="-6.685" y="0">M</tspan></text><text class="g" transform="translate(1217 4615)"><tspan x="-4.326" y="0">T</tspan></text><text class="g" transform="translate(1254 4615)"><tspan x="-8.141" y="0">W</tspan></text><text class="g" transform="translate(1291 4615)"><tspan x="-4.326" y="0">T</tspan></text><text class="g" transform="translate(1328 4615)"><tspan x="-4.473" y="0">F</tspan></text><text class="g" transform="translate(1365 4615)"><tspan x="-4.466" y="0">S</tspan></text><text class="g" transform="translate(1402 4615)"><tspan x="-4.466" y="0">S</tspan></text><text class="g" transform="translate(1439 4615)"><tspan x="-6.685" y="0">M</tspan></text><text class="g" transform="translate(1476 4615)"><tspan x="-4.326" y="0">T</tspan></text><text class="g" transform="translate(1513 4615)"><tspan x="-8.141" y="0">W</tspan></text><rect class="c" width="881" height="6" transform="translate(393 4623)"/><rect class="h" width="151" height="6" transform="translate(1274 4623)"/><rect class="c" width="115" height="6" transform="translate(1425 4623)"/></g></svg>