<svg xmlns="http://www.w3.org/2000/svg" width="424" height="359.766" viewBox="0 0 424 359.766"><defs><style>.a{fill:#ffc5bc;}.b{fill:#1f6d7f;}.c{fill:#ffc5c1;}.d{fill:#1d8ea8;}.e{fill:#218197;}.f,.i,.j,.n{fill:#2eaac9;}.g,.h{fill:#3bd9ff;}.g,.h,.i,.j,.k,.l,.m{stroke:#1f6d7f;stroke-linecap:round;stroke-width:2px;}.g,.i,.k{stroke-linejoin:round;}.h,.j,.l,.m{stroke-miterlimit:10;}.k,.l{fill:#dbf8ff;}.m{fill:none;}.n{font-size:16px;font-family:Montserrat-SemiBold, Montserrat;font-weight:600;letter-spacing:-0.02em;}</style></defs><g transform="translate(-386 -2796.921)"><path class="a" d="M0,0,68.026,22.166,93.108,20.1a21.983,21.983,0,0,1,23.411,17.88l-.4,13.862c.834,4.47-9.677,5.814-14.036,4.515L5.22,26.318Z" transform="translate(614.809 3050.109) rotate(17)"/><g transform="translate(387 2797)"><g transform="translate(0 0)"><path class="b" d="M567.549,2622.33c3.794,136.853-239.913,137-308,137s-100.594-57.51-76-121c30.822-79.571,94.913-99,163-99S565.662,2554.27,567.549,2622.33Z" transform="translate(-159.049 -2495.83)"/><circle class="a" cx="50" cy="50" r="50" transform="translate(216.5 12.5)"/><rect class="c" width="30.583" height="38.834" transform="matrix(0.82, 0.573, -0.573, 0.82, 215.564, 64.601)"/><path class="d" d="M334.582,2578.939s-106.659,126.668-117,143-14.813,64.671,12,74,57,7,57,7l90-1-6-217Z" transform="translate(-145.083 -2479.439)"/><path class="e" d="M323.807,2576.93s-87.2,104.969-83,134,10.551,56.48,42,76c20.965,13.011,42.276,21.978,52,34,5.252,6.492,11.712,12.975,20,14h8c12.522,1.548,24.246,3.313,27-9l15-67a26.325,26.325,0,0,0-5-22c-15.373-18.751-46.9-67.542-40-147C359.807,2589.93,335.229,2587.7,323.807,2576.93Z" transform="translate(-132.307 -2480.43)"/><path class="f" d="M325.953,2573.424s-87.2,104.969-83,134,10.551,56.481,42,76c20.965,13.012,39.276,32.978,49,45a32.363,32.363,0,0,0,21,12l10,1a24.605,24.605,0,0,0,27-19l15-67a26.326,26.326,0,0,0-5-22c-15.373-18.75-47.9-67.542-41-147C360.953,2586.424,337.375,2584.195,325.953,2573.424Z" transform="translate(-131.452 -2481.924)"/><path class="b" d="M431.223,2526.357c-14.2-10.665-25.592-17.7-48-15l-26,5c-24.334,3.657-41.266-2.408-63,0-17.821,1.975-23.514,20.475-13,35,4.517,6.24,21.259,23.118,28,32,39.96,52.638,39,4,39,4s-.424-5.868-2-26c-.513-6.547,12.344-4.626,18-1,13.74,9.628,15.5,10.571,29,20,25.969,18.133,44.009,10.106,53-9C451.249,2560.678,456.548,2545.378,431.223,2526.357Z" transform="translate(-117.722 -2507.857)"/><path class="f" d="M432.2,2524.128c-14.2-10.665-25.593-17.7-48-15l-26,5c-24.334,3.657-41.266-2.408-63,0-17.821,1.975-28.512,20.476-18,35,4.517,6.24,25.82,26.469,33,35,43.1,51.18,39,1,39,1s-.424-4.868-2-25c-.513-6.549,12.343-5.628,18-2,13.74,9.628,15.5,10.573,29,20,25.97,18.135,51.008,12.107,60-7C459.221,2560.451,457.523,2543.15,432.2,2524.128Z" transform="translate(-118.694 -2508.628)"/><ellipse class="f" cx="6.233" cy="19.813" rx="6.233" ry="19.813" transform="matrix(0.961, -0.276, 0.276, 0.961, 287.946, 160.625)"/><ellipse class="f" cx="5.32" cy="6.959" rx="5.32" ry="6.959" transform="matrix(0.961, -0.276, 0.276, 0.961, 274.088, 123.035)"/><ellipse class="f" cx="3.116" cy="4.077" rx="3.116" ry="4.077" transform="matrix(0.961, -0.276, 0.276, 0.961, 273.818, 147.736)"/><ellipse class="f" cx="3.116" cy="4.077" rx="3.116" ry="4.077" transform="matrix(0.961, -0.276, 0.276, 0.961, 315.179, 247.321)"/><path class="f" d="M367.275,2589.3l-12-8s-5.879,9.947-4,10A50.77,50.77,0,0,0,367.275,2589.3Z" transform="translate(-86.775 -2478.801)"/><g transform="translate(0 197.592)"><path class="g" d="M222.873,2657.316v13c0,5.792-12.652,12-29,12s-30-6.207-30-12v-13" transform="translate(-163.873 -2644.908)"/><ellipse class="g" cx="29.5" cy="12" rx="29.5" ry="12" transform="translate(0 0.408)"/><line class="h" y1="3" x2="39" transform="translate(10 9.408)"/></g><g transform="translate(78.317 128.252)"><path class="i" d="M264,2606.468v9c0,4.344-9.739,9-22,9s-23-4.656-23-9v-9" transform="translate(-219.316 -2596.721)"/><ellipse class="i" cx="22.5" cy="9.5" rx="22.5" ry="9.5" transform="translate(-0.316 -0.252)"/><line class="j" y1="3" x2="29" transform="translate(7.684 6.748)"/></g><g transform="translate(377.99 111.01)"><path class="k" d="M475.475,2593.5v10c0,4.342-9.74,9-22,9s-22-4.657-22-9v-10" transform="translate(-431.464 -2584.515)"/><ellipse class="k" cx="22" cy="9.5" rx="22" ry="9.5" transform="translate(0.01 -0.01)"/><line class="l" y1="3" x2="29" transform="translate(8.01 6.99)"/></g><ellipse class="l" cx="30" cy="30.5" rx="30" ry="30.5" transform="translate(81 29)"/><path class="m" d="M242.453,2536.124v22l12,10" transform="translate(-131.452 -2497.124)"/></g><text class="n" transform="translate(77.5 17.5)"><tspan x="0" y="0">4 HOUR</tspan></text></g></g></svg>