<svg xmlns="http://www.w3.org/2000/svg" width="349.448" height="375.792" viewBox="0 0 349.448 375.792"><defs><style>.a{fill:#1f6d7f;}.b{fill:#ffc5bc;}.c{fill:#ffc5c1;}.d{fill:#1d8ea8;}.e{fill:#218197;}.f{fill:#2eaac9;}.g,.h{fill:none;stroke-linecap:round;stroke-linejoin:round;stroke-width:6px;}.g{stroke:#3bd9ff;}.h{stroke:#2eaac9;}.i{fill:#dbf8ff;}.j{fill:#3bd9ff;}</style></defs><g transform="translate(0.075 4.533)"><path class="a" d="M673.58,2602.966c-3.424,123.551,216.532,185,278,185s78.361-47.249,69-108c-11.087-71.965-83.532-109-145-109S675.283,2541.521,673.58,2602.966Z" transform="translate(-673.616 -2462.792)"/><circle class="b" cx="44" cy="44" r="44" transform="translate(108.965 44.173)"/><path class="b" d="M0,51.821,62.029,31.609,84.9,33.492a20.045,20.045,0,0,0,21.347-16.3l-.362-12.64c.76-4.076-8.823-5.3-12.8-4.117L4.76,27.823Z" transform="translate(163.569 317.851) rotate(176)"/><rect class="c" width="27" height="34" transform="translate(160.965 115.173)"/><path class="d" d="M758.848,2600.449s89.484,113.4,98,128,11.722,57.7-12,65-50,3-50,3l-79-3,12-189Z" transform="translate(-565.883 -2454.276)"/><path class="e" d="M822.025,2598.024s72.586,94.77,68,120-10.9,48.944-39,65c-18.729,10.7-37.123,16.806-46,27-4.8,5.506-10.727,11.368-18,12h-7c-10.99.956-20.985,1.845-23-9l-11-59a20.759,20.759,0,0,1,5-18c14.026-15.894,42.5-58.359,39-128C790.025,2608.024,811.7,2607.071,822.025,2598.024Z" transform="translate(-630.06 -2454.85)"/><path class="f" d="M824.359,2593.891s72.587,94.771,68,120-11.9,48.945-40,65c-18.729,10.7-35.122,27.806-44,38-4.794,5.505-11.727,8.366-19,9l-8,1c-10.99.956-20.985-6.155-23-17l-11-59a22.843,22.843,0,0,1,5-19c14.026-15.893,43.5-57.359,40-127C792.359,2604.891,814.038,2602.938,824.359,2593.891Z" transform="translate(-634.394 -2455.718)"/><path class="a" d="M787.67,2508.982c15.517-.537,27.291-.152,42,13l16,16c15.612,14.8,30.627,19.4,45,32,11.785,10.336,6.806,26.852-8,32-6.361,2.213-26.723,5.008-36,8-54.989,17.73-30-16-30-16s2.793-3.359,14-17c3.646-4.437-6.129-9.77-12-10-14.669.023-16.6-1-31-1-27.691,0-37.118-13.8-34-32C755.412,2523.812,760,2509.94,787.67,2508.982Z" transform="translate(-646.705 -2475.808)"/><path class="f" d="M790.908,2507.329c15.516-.538,27.289-.152,42,13l16,16c15.611,14.8,30.627,19.395,45,32,11.786,10.335,10.806,28.852-4,34-6.361,2.213-31.584,5.48-41,8-56.508,15.116-29-18-29-18s2.794-3.357,14-17c3.646-4.437-6.129-9.768-12-10-14.667.025-15.6,0-30,0-27.691,0-43.118-17.8-40-36C753.651,2519.159,763.233,2508.286,790.908,2507.329Z" transform="translate(-648.943 -2476.156)"/><path class="g" d="M805.332,2481.747l-23,30-7-15-23,30" transform="translate(-552.866 -2482.073)"/><path class="h" d="M802.717,2492.408l-2,13-5-3-3,13" transform="translate(-601.251 -2479.735)"/><path class="h" d="M789.645,2532.412l-13-1,2-5h-13" transform="translate(-554.18 -2471.738)"/><path class="h" d="M880.518,2498.081l37,6-10,14,36,6" transform="translate(-850.053 -2478.408)"/><path class="g" d="M871.854,2490.666l12,10-6,3,12,9" transform="translate(-786.388 -2479.992)"/><path class="f" d="M911.854,2674.774a18.247,18.247,0,0,1-26,0c-7.327-7.186-8.186-18.672-1-26l12-11,26,26Z" transform="translate(-828.889 -2445.601)"/><path class="i" d="M877.016,2628.216a18.246,18.246,0,0,1,26,0c7.327,7.186,8.186,18.672,1,26l-12,12-26-26Z" transform="translate(-797.051 -2449.043)"/><path class="f" d="M737.807,2621.038a13.73,13.73,0,0,1-15,23l-10-6,15-23Z" transform="translate(-443.842 -2450.865)"/><path class="j" d="M732.8,2632.812a13.73,13.73,0,1,1,15-23l10,6-15,23Z" transform="translate(-474.838 -2452.639)"/></g></svg>