<svg xmlns="http://www.w3.org/2000/svg" width="448.395" height="366.235" viewBox="0 0 448.395 366.235"><defs><style>.a{fill:#1f6d7f;}.b{fill:#ffc5bc;}.c{fill:#ffc5c1;}.d{fill:#1d8ea8;}.e{fill:#218197;}.f,.g{fill:#2eaac9;}.g{stroke:#2eaac9;stroke-linecap:round;stroke-linejoin:round;}.g,.h,.i{stroke-width:2px;}.h,.i,.m{fill:none;}.h{stroke:#dbf8ff;}.h,.i{stroke-miterlimit:10;}.i{stroke:#1f6d7f;}.j{fill:#dbf8ff;}.k{fill:#32b1ce;}.l{stroke:none;}</style></defs><g transform="translate(49.098 -0.085)"><ellipse class="a" cx="171" cy="171.5" rx="171" ry="171.5" transform="translate(-49.098 23.235)"/><path class="b" d="M0,59.009,70.632,35.994l26.043,2.144a22.825,22.825,0,0,0,24.308-18.565l-.412-14.394C121.437.537,110.524-.859,106,.49L5.42,31.683Z" transform="translate(266.326 305.386) rotate(163)"/><g transform="translate(189.331)"><ellipse class="b" cx="47.5" cy="47" rx="47.5" ry="47" transform="translate(6.572 14.235)"/><rect class="c" width="28" height="37" transform="translate(63.572 90.235)"/><path class="d" d="M124.387,2355.646s96.83,122.28,106,138,11.542,61.14-14,69-54,4-54,4l-85-3,14-204Z" transform="translate(-26.815 -2231.411)"/><path class="e" d="M190.209,2352.452s78.939,101.833,74,129-12.745,52.712-43,70c-20.167,11.524-40.442,19.024-50,30-5.163,5.928-11.169,12.319-19,13h-8c-11.834,1.029-22.83,1.678-25-10l-11-63c-1.33-7.154.185-14.544,5-20,15.1-17.113,46.773-63.014,43-138C156.209,2363.452,179.1,2362.195,190.209,2352.452Z" transform="translate(-93.638 -2232.218)"/><path class="f" d="M191.727,2348.67s78.939,101.833,74,129-12.745,52.712-43,70c-20.167,11.524-37.44,30.024-47,41a29.415,29.415,0,0,1-20,10l-10,1c-11.834,1.028-21.83-7.322-24-19l-12-63c-1.33-7.154.185-14.544,5-20,15.1-17.113,46.774-62.013,43-137C157.727,2360.67,180.612,2358.412,191.727,2348.67Z" transform="translate(-98.155 -2233.436)"/><path class="a" d="M152.5,2263.869c16.709-.579,29.161-.163,45,14l17,17c16.811,15.937,33.523,20.428,49,34,12.69,11.13,7.943,29.456-8,35-6.85,2.383-30.011,5.779-40,9-59.212,19.091-32-18-32-18s2.932-3.311,15-18c3.925-4.777-6.678-10.75-13-11-15.795.026-17.5,0-33,0-29.817,0-39.356-16.406-36-36C118.38,2278.918,122.705,2264.9,152.5,2263.869Z" transform="translate(-110.931 -2261.634)"/><path class="f" d="M156.07,2262.356c16.707-.577,30.16-.162,46,14l17,17c16.81,15.937,32.523,20.427,48,34,12.69,11.129,10.943,31.455-5,37-6.85,2.381-33.861,6.287-44,9-60.847,16.276-31-20-31-20s3.934-3.312,16-18c3.925-4.778-7.678-10.751-14-11-15.794.025-16.5,0-32,0-29.817,0-46.358-18.407-43-38C115.947,2275.406,126.27,2263.388,156.07,2262.356Z" transform="translate(-113.498 -2262.122)"/></g><line class="g" y2="5" transform="translate(133.402 104.735)"/><g class="g" transform="translate(103.902 151.235)"><rect class="l" width="59" height="13"/><rect class="m" x="1" y="1" width="57" height="11"/></g><path class="g" d="M273.813,2384.428c0,3.6,2.4,7,6,7a7.374,7.374,0,0,0,7-7" transform="translate(-147.41 -2221.694)"/><path class="g" d="M304.217,2385.3v-18c0-11.738-9.262-22-21-22h0c-11.738,0-21,10.262-21,22v18" transform="translate(-149.815 -2234.567)"/><path class="h" d="M276.521,2474.7h46v-61h-72v33" transform="translate(-153.119 -2211.97)"/><line class="h" x1="72" transform="translate(97.402 222.735)"/><line class="h" y2="13" transform="translate(153.402 195.735)"/><line class="h" y2="13" transform="translate(133.402 195.735)"/><line class="h" y2="13" transform="translate(113.402 195.735)"/><circle class="f" cx="22" cy="22" r="22" transform="translate(74.902 240.235)"/><path class="i" d="M319.252,2459.787l-8,8-14-14" transform="translate(-211.849 -2199.053)"/><rect class="j" width="12.078" height="4.026" transform="matrix(-0.174, -0.985, 0.985, -0.174, 113.342, 105.829)"/><rect class="j" width="12.08" height="4.027" transform="translate(109.231 110.601) rotate(-144.975)"/><rect class="j" width="12.085" height="4.028" transform="translate(106.018 117.24) rotate(-173.976)"/><path class="k" d="M30.08,28.382c.132-.755,1.367-1.569,2-2,.478-.326,0-1.357,0-2v-13c0-.485.327-1.657,0-2l-7-9c-.327-.343-.538,0-1,0h-15c-.462,0-.673-.343-1,0l-7,9a4.75,4.75,0,0,0-1,2v13a3.371,3.371,0,0,0,1,2,2.244,2.244,0,0,1,1,2h0a2.571,2.571,0,0,1-1,2,3.217,3.217,0,0,0-1,2v43a2.094,2.094,0,0,0,2,2h28a2.094,2.094,0,0,0,2-2v-43a3.981,3.981,0,0,0-1-2c-.688-.653-1.163-1.065-1-2Z" transform="translate(28.822 143.852)"/><rect class="k" width="15" height="8" rx="1.254" transform="translate(37.902 131.235)"/></g></svg>