<svg xmlns="http://www.w3.org/2000/svg" width="1194" height="367" viewBox="0 0 1194 367"><defs><style>.a{fill:#1ec2ef;}.b{fill:#2eaac9;}.c{fill:#fd60ad;}.d,.i,.p{fill:none;}.d{stroke:#fff;}.e{fill:#f8d719;}.f,.k,.m{fill:#fff;}.f,.g,.h{font-size:18px;font-family:NotoSansCJKkr-Medium, Noto Sans CJK KR;font-weight:500;letter-spacing:-0.02em;}.g,.n{fill:#f8f8f8;}.h,.l{fill:#ff50a7;}.i{stroke:#f8d719;stroke-linecap:round;stroke-linejoin:round;stroke-width:2px;}.j{fill:#383838;}.j,.k{font-size:14px;font-family:Montserrat-Bold, Montserrat;font-weight:700;letter-spacing:0.05em;}.o{stroke:none;}</style></defs><g transform="translate(-363 -3255)"><rect class="a" width="1194" height="367" rx="14" transform="translate(363 3255)"/><rect class="b" width="261" height="31" transform="translate(975 3407)"/><rect class="c" width="34" height="31" transform="translate(941 3407)"/><g class="d" transform="translate(608 3372)"><rect class="o" width="31" height="66" rx="15.5"/><rect class="p" x="0.5" y="0.5" width="30" height="65" rx="15"/></g><rect class="e" width="31" height="66" rx="15.5" transform="translate(386 3372)"/><g class="d" transform="translate(1016.75 3343) rotate(90)"><rect class="o" width="28" height="47.5" rx="14"/><rect class="p" x="0.5" y="0.5" width="27" height="46.5" rx="13.5"/></g><g class="d" transform="translate(867 3372)"><rect class="o" width="31" height="66" rx="15.5"/><rect class="p" x="0.5" y="0.5" width="30" height="65" rx="15"/></g><g class="d" transform="translate(1126 3372)"><rect class="o" width="31" height="66" rx="15.5"/><rect class="p" x="0.5" y="0.5" width="30" height="65" rx="15"/></g><g class="d" transform="translate(1385 3372)"><rect class="o" width="31" height="66" rx="15.5"/><rect class="p" x="0.5" y="0.5" width="30" height="65" rx="15"/></g><text class="f" transform="translate(422 3319)"><tspan x="0" y="0">생리시작일에 복용시작</tspan></text><text class="g" transform="translate(391 3483)"><tspan x="0" y="0">매일 9시에 1정씩 복용 중</tspan></text><text class="g" transform="translate(1274 3483)"><tspan x="0" y="0">흰색 위약 4정</tspan></text><text class="g" transform="translate(1423 3483)"><tspan x="0" y="0">새로운 팩으로</tspan><tspan x="0" y="26">복용 시작</tspan></text><text class="g" transform="translate(1006 3291)"><tspan x="0" y="0">즉시 1정을 복용하고 </tspan><tspan x="0" y="26">평소 같이 9시에 복용</tspan></text><text class="g" transform="translate(976 3483)"><tspan x="0" y="0">누락된 정제를 복용 후</tspan><tspan x="0" y="26">반드시 첫 7일 동안 콘돔과 같은 </tspan><tspan x="0" y="52">격막피임법을 병행해야함</tspan></text><text class="h" transform="translate(958 3587)"><tspan x="0" y="0">복용 잊어버림</tspan></text><path class="i" d="M20.84,4.61a5.5,5.5,0,0,0-7.78,0L12,5.67,10.94,4.61a5.5,5.5,0,0,0-7.78,7.78l1.06,1.06L12,21.23l7.78-7.78,1.06-1.06a5.5,5.5,0,0,0,0-7.78Z" transform="translate(389.5 3301.386)"/><text class="j" transform="translate(402 3427)"><tspan x="-7.805" y="0">01</tspan></text><text class="k" transform="translate(439 3427)"><tspan x="-9.191" y="0">02</tspan></text><text class="k" transform="translate(476 3427)"><tspan x="-9.177" y="0">03</tspan></text><text class="k" transform="translate(513 3427)"><tspan x="-9.926" y="0">04</tspan></text><text class="k" transform="translate(550 3427)"><tspan x="-9.268" y="0">05</tspan></text><text class="k" transform="translate(587 3427)"><tspan x="-9.562" y="0">06</tspan></text><text class="k" transform="translate(624 3427)"><tspan x="-9.415" y="0">07</tspan></text><text class="k" transform="translate(661 3427)"><tspan x="-9.723" y="0">08</tspan></text><text class="k" transform="translate(698 3427)"><tspan x="-9.562" y="0">09</tspan></text><text class="k" transform="translate(735 3427)"><tspan x="-7.847" y="0">10</tspan></text><text class="k" transform="translate(772 3427)"><tspan x="-5.838" y="0">11</tspan></text><text class="k" transform="translate(809 3427)"><tspan x="-7.224" y="0">12</tspan></text><text class="k" transform="translate(846 3427)"><tspan x="-7.238" y="0">13</tspan></text><text class="k" transform="translate(883 3427)"><tspan x="-7.917" y="0">14</tspan></text><text class="k" transform="translate(920 3427)"><tspan x="-7.259" y="0">15</tspan></text><text class="k" transform="translate(957 3427)"><tspan x="-7.553" y="0">16</tspan></text><text class="k" transform="translate(994 3427)"><tspan x="-7.434" y="0">17</tspan></text><text class="k" transform="translate(1031 3427)"><tspan x="-7.714" y="0">18</tspan></text><text class="k" transform="translate(1068 3427)"><tspan x="-7.553" y="0">19</tspan></text><text class="k" transform="translate(1105 3427)"><tspan x="-9.219" y="0">20</tspan></text><text class="k" transform="translate(1142 3427)"><tspan x="-7.224" y="0">21</tspan></text><text class="k" transform="translate(1179 3427)"><tspan x="-8.61" y="0">22</tspan></text><text class="k" transform="translate(1216 3427)"><tspan x="-8.624" y="0">23</tspan></text><text class="k" transform="translate(1253 3427)"><tspan x="-9.233" y="0">24</tspan></text><text class="k" transform="translate(1290 3427)"><tspan x="-8.645" y="0">25</tspan></text><text class="k" transform="translate(1327 3427)"><tspan x="-8.925" y="0">26</tspan></text><text class="k" transform="translate(1364 3427)"><tspan x="-8.806" y="0">27</tspan></text><text class="k" transform="translate(1401 3427)"><tspan x="-9.1" y="0">28</tspan></text><text class="k" transform="translate(1438 3427)"><tspan x="-8.939" y="0">29</tspan></text><text class="k" transform="translate(1475 3427)"><tspan x="-9.247" y="0">30</tspan></text><text class="k" transform="translate(1512 3427)"><tspan x="-7.238" y="0">31</tspan></text><text class="j" transform="translate(401 3394)"><tspan x="-6.685" y="0">M</tspan></text><text class="k" transform="translate(438 3394)"><tspan x="-4.326" y="0">T</tspan></text><text class="k" transform="translate(475 3394)"><tspan x="-8.141" y="0">W</tspan></text><text class="k" transform="translate(512 3394)"><tspan x="-4.326" y="0">T</tspan></text><text class="k" transform="translate(549 3394)"><tspan x="-4.473" y="0">F</tspan></text><text class="k" transform="translate(586 3394)"><tspan x="-4.466" y="0">S</tspan></text><text class="k" transform="translate(623 3394)"><tspan x="-4.466" y="0">S</tspan></text><text class="k" transform="translate(660 3394)"><tspan x="-6.685" y="0">M</tspan></text><text class="k" transform="translate(697 3394)"><tspan x="-4.326" y="0">T</tspan></text><text class="k" transform="translate(734 3394)"><tspan x="-8.141" y="0">W</tspan></text><text class="k" transform="translate(771 3394)"><tspan x="-4.326" y="0">T</tspan></text><text class="k" transform="translate(808 3394)"><tspan x="-4.473" y="0">F</tspan></text><text class="k" transform="translate(845 3394)"><tspan x="-4.466" y="0">S</tspan></text><text class="k" transform="translate(882 3394)"><tspan x="-4.466" y="0">S</tspan></text><text class="k" transform="translate(919 3394)"><tspan x="-6.685" y="0">M</tspan></text><text class="k" transform="translate(956 3394)"><tspan x="-4.326" y="0">T</tspan></text><text class="k" transform="translate(993 3394)"><tspan x="-8.141" y="0">W</tspan></text><text class="k" transform="translate(1030 3394)"><tspan x="-4.326" y="0">T</tspan></text><text class="k" transform="translate(1067 3394)"><tspan x="-4.473" y="0">F</tspan></text><text class="k" transform="translate(1104 3394)"><tspan x="-4.466" y="0">S</tspan></text><text class="k" transform="translate(1141 3394)"><tspan x="-4.466" y="0">S</tspan></text><text class="k" transform="translate(1178 3394)"><tspan x="-6.685" y="0">M</tspan></text><text class="k" transform="translate(1215 3394)"><tspan x="-4.326" y="0">T</tspan></text><text class="k" transform="translate(1252 3394)"><tspan x="-8.141" y="0">W</tspan></text><text class="k" transform="translate(1289 3394)"><tspan x="-4.326" y="0">T</tspan></text><text class="k" transform="translate(1326 3394)"><tspan x="-4.473" y="0">F</tspan></text><text class="k" transform="translate(1363 3394)"><tspan x="-4.466" y="0">S</tspan></text><text class="k" transform="translate(1400 3394)"><tspan x="-4.466" y="0">S</tspan></text><text class="k" transform="translate(1437 3394)"><tspan x="-6.685" y="0">M</tspan></text><text class="k" transform="translate(1474 3394)"><tspan x="-4.326" y="0">T</tspan></text><text class="k" transform="translate(1511 3394)"><tspan x="-8.141" y="0">W</tspan></text><rect class="e" width="550" height="6" transform="translate(391 3446)"/><rect class="l" width="34" height="6" transform="translate(941 3446)"/><rect class="e" width="297" height="6" transform="translate(975 3446)"/><rect class="m" width="151" height="6" transform="translate(1272 3446)"/><rect class="e" width="115" height="6" transform="translate(1423 3446)"/><rect class="l" width="1" height="146" transform="translate(941 3446)"/><rect class="n" width="1" height="67" transform="translate(991 3276)"/><circle class="e" cx="7" cy="7" r="7" transform="translate(394 3351)"/><circle class="e" cx="7" cy="7" r="7" transform="translate(432 3351)"/><circle class="e" cx="7" cy="7" r="7" transform="translate(470 3351)"/><circle class="e" cx="7" cy="7" r="7" transform="translate(505 3351)"/><circle class="e" cx="7" cy="7" r="7" transform="translate(543 3351)"/><circle class="e" cx="7" cy="7" r="7" transform="translate(578 3351)"/><circle class="e" cx="7" cy="7" r="7" transform="translate(616 3351)"/><circle class="e" cx="7" cy="7" r="7" transform="translate(654 3351)"/><circle class="e" cx="7" cy="7" r="7" transform="translate(689 3351)"/><circle class="e" cx="7" cy="7" r="7" transform="translate(727 3351)"/><circle class="e" cx="7" cy="7" r="7" transform="translate(765 3351)"/><circle class="e" cx="7" cy="7" r="7" transform="translate(800 3351)"/><circle class="e" cx="7" cy="7" r="7" transform="translate(838 3351)"/><circle class="e" cx="7" cy="7" r="7" transform="translate(873 3351)"/><circle class="e" cx="7" cy="7" r="7" transform="translate(911 3351)"/><circle class="c" cx="7" cy="7" r="7" transform="translate(949 3351)"/><circle class="e" cx="7" cy="7" r="7" transform="translate(977 3351)"/><circle class="e" cx="7" cy="7" r="7" transform="translate(995 3351)"/><circle class="e" cx="7" cy="7" r="7" transform="translate(1023 3351)"/><circle class="e" cx="7" cy="7" r="7" transform="translate(1061 3351)"/><circle class="e" cx="7" cy="7" r="7" transform="translate(1099 3351)"/><circle class="e" cx="7" cy="7" r="7" transform="translate(1134 3351)"/><circle class="e" cx="7" cy="7" r="7" transform="translate(1172 3351)"/><circle class="e" cx="7" cy="7" r="7" transform="translate(1207 3351)"/><circle class="e" cx="7" cy="7" r="7" transform="translate(1242 3351)"/><circle class="n" cx="7" cy="7" r="7" transform="translate(1280 3351)"/><circle class="n" cx="7" cy="7" r="7" transform="translate(1318 3351)"/><circle class="n" cx="7" cy="7" r="7" transform="translate(1353 3351)"/><circle class="n" cx="7" cy="7" r="7" transform="translate(1391 3351)"/><circle class="e" cx="7" cy="7" r="7" transform="translate(1429 3351)"/><circle class="e" cx="7" cy="7" r="7" transform="translate(1464 3351)"/><circle class="e" cx="7" cy="7" r="7" transform="translate(1502 3351)"/></g></svg>