<svg xmlns="http://www.w3.org/2000/svg" width="462" height="258.16" viewBox="0 0 462 258.16"><defs><style>.a{fill:#1f6d7f;}.b{fill:#ffc5bc;}.c{fill:#ffc5c1;}.d{fill:#2eaac9;}.e{fill:none;stroke:#2eaac9;stroke-width:2px;}.e,.f,.g,.h,.i{stroke-linecap:round;}.e,.f,.h{stroke-linejoin:round;}.f,.g{fill:#3bd9ff;}.f,.g,.h,.i{stroke:#1f6d7f;}.g,.i{stroke-miterlimit:10;}.h,.i{fill:#dbf8ff;}.j{fill:#1d8ea8;}.k{fill:#218197;}</style></defs><g transform="translate(-0.15 0.019)"><path class="a" d="M1391.854,2448.4c0-70.988-58.012-128-129-128a127.625,127.625,0,0,0-128,128" transform="translate(-1132.703 -2192.261)"/><circle class="b" cx="53.5" cy="53.5" r="53.5" transform="translate(194.15 16.141)"/><rect class="c" width="33" height="41" transform="translate(257.15 102.141)"/><path class="a" d="M1102.145,2233.389c18.9-.655,33.082-.022,51,16l19,20c19.016,18.028,37.492,22.647,55,38,14.356,12.59,9.035,32.727-9,39-7.748,2.695-33.7,7.357-45,11-66.982,21.6-36-21-36-21s3.349-3.383,17-20c4.439-5.4-7.85-12.717-15-13-17.868.029-19.464,0-37,0-33.73,0-44.8-17.835-41-40C1063.268,2251,1068.434,2234.556,1102.145,2233.389Z" transform="translate(-868.994 -2231.248)"/><path class="d" d="M1106.238,2232.078c18.9-.654,34.081-.02,52,16l19,20c19.016,18.029,37.492,22.646,55,38,14.355,12.591,12.035,35.728-6,42-7.749,2.694-38.53,6.931-50,10-68.833,18.412-35-23-35-23s4.349-3.384,18-20c4.441-5.4-7.85-12.719-15-13-17.868.029-19.464,0-37,0-33.731,0-52.8-20.835-49-43C1060.36,2246.691,1072.528,2233.245,1106.238,2232.078Z" transform="translate(-872.089 -2231.937)"/><path class="e" d="M1009.959,2383.717l6-4c1.444-.892,5.257-.828,7,0h0c1.742.829,4.555.892,6,0l6-4" transform="translate(-595.309 -2167.075)"/><path class="e" d="M1012.82,2378.223l6-4c1.444-.89,4.258-.83,6,0h0c1.743.83,5.555.891,7,0l6-4" transform="translate(-602.171 -2169.582)"/><path class="e" d="M1014.684,2372.73l6-4c1.444-.89,5.257-.829,7,0h0c1.742.83,5.556.89,7,0l6-4" transform="translate(-609.033 -2172.089)"/><path class="e" d="M1289.176,2333.631l8-2c1.871-.371,5.489,1.442,7,3h0c1.51,1.558,6.128,2.372,8,2l7-1" transform="translate(-1285.525 -2186.99)"/><path class="e" d="M1290.055,2326.768l8-2c1.872-.371,5.489,1.442,7,3h0c1.511,1.557,6.129,2.373,8,2l7-1" transform="translate(-1287.404 -2190.127)"/><path class="e" d="M1290.934,2319.9l8-2c1.872-.371,5.49,1.443,7,3h0c1.511,1.558,6.129,2.373,8,2l7-1" transform="translate(-1289.283 -2193.263)"/><g transform="translate(373.021 198.952)"><path class="f" d="M1027.688,2375.223v8c0,3.919,8.935,8,20,8s20-4.08,20-8v-8" transform="translate(-1028.057 -2366.534)"/><ellipse class="f" cx="20" cy="8.5" rx="20" ry="8.5" transform="translate(-0.371 -0.311)"/><line class="g" x1="26" y1="2" transform="translate(6.629 6.689)"/></g><g transform="translate(37.532 122.113)"><path class="h" d="M1255.711,2322.721v10c0,4.459,10.414,9,23,9s22-4.539,22-9v-10" transform="translate(-1255.594 -2313.193)"/><ellipse class="h" cx="22.5" cy="9.5" rx="22.5" ry="9.5" transform="translate(0.119 -0.472)"/><line class="i" x1="29" y1="2" transform="translate(8.119 7.528)"/></g><rect class="d" width="409" height="10" transform="translate(0.15 248.141)"/><rect class="d" width="24" height="10" transform="translate(419.15 248.141)"/><rect class="d" width="9" height="10" transform="translate(453.15 248.141)"/><path class="j" d="M1084.133,2416.287c-10.066-19.708-25.4-43.253-39-63,18.94,24.288,43.985,56.913,63,82h-15C1090.688,2429.464,1087.708,2422.931,1084.133,2416.287Z" transform="translate(-719.983 -2177.146)"/><path class="k" d="M1055.955,2396.883c3.575,6.644,6.555,13.177,9,19h-1A163.7,163.7,0,0,0,1055.955,2396.883Z" transform="translate(-691.805 -2157.742)"/><path class="d" d="M1151.623,2327.455a39.189,39.189,0,0,1-8,5l-28,4v4a7.811,7.811,0,0,1-2,0c2.325,46.2-8.087,82.513-20,109h-5c13.084-26.9,24.491-65.483,22-115,0,0,25.427-.978,38-12,0,0,15.368,19.405,33,45-3.6-4.615-6.9-9.038-10-13C1160.031,2338.314,1151.623,2327.455,1151.623,2327.455Z" transform="translate(-856.473 -2191.314)"/><path class="d" d="M1061.889,2344.3c3.1,3.962,6.4,8.385,10,13,13.6,19.748,28.934,43.292,39,63C1097.341,2395.115,1076.865,2365.147,1061.889,2344.3Z" transform="translate(-746.738 -2181.154)"/><path class="d" d="M1114.91,2333.208l28-4c-10.5,5.239-22.956,7.5-28,8Z" transform="translate(-855.761 -2188.067)"/><path class="d" d="M1133.98,2443.882c11.913-26.487,22.325-62.8,20-109a7.8,7.8,0,0,0,2,0l-8,109Z" transform="translate(-896.83 -2185.74)"/><path class="d" d="M1095.043,2330.73a39.179,39.179,0,0,0,8-5s8.408,10.859,20,27c-11.055-14.143-18-23-18-23Z" transform="translate(-807.893 -2189.589)"/><path class="d" d="M1055.891,2446.588l8-109c5.044-.5,17.5-2.761,28-8l10-1s6.945,8.857,18,23c14.976,20.852,35.452,50.82,49,76a163.723,163.723,0,0,1,8,19Z" transform="translate(-804.741 -2188.447)"/><g transform="translate(92.184 133.42)"><path class="d" d="M1279.234,2365.256c2.564,0,4.223,1.445,4,4-2.426,27.706-26.447,50-55,50s-51.574-22.294-54-50c-.223-2.555,1.436-4,4-4Z" transform="translate(-1174.267 -2305.535)"/><rect class="d" width="41" height="10" rx="2.298" transform="translate(33.967 107.721)"/><path class="d" d="M1227.316,2323.659l2,2c.587.393.583,1.143,0,2l-65,96c-.572.841-1.421,1.385-2,1h0c-.576-.383-.552-1.15,0-2l63-98C1225.882,2323.789,1226.726,2323.266,1227.316,2323.659Z" transform="translate(-1103.349 -2323.938)"/><path class="d" d="M1231.67,2326.448l2,1c.623.332.5,2.091,0,3l-55,101c-.487.893-1.388,1.327-2,1h0c-.611-.325-1.467-1.1-1-2l54-103C1230.148,2326.526,1231.045,2326.115,1231.67,2326.448Z" transform="translate(-1127.703 -2322.727)"/></g></g></svg>