<svg xmlns="http://www.w3.org/2000/svg" width="1194" height="367" viewBox="0 0 1194 367"><defs><style>.a{fill:#1ec2ef;}.b{fill:#f8d719;}.c,.g,.n{fill:none;}.c{stroke:#fff;}.d,.i,.j{fill:#fff;}.d,.e,.f{font-size:18px;font-family:NotoSansCJKkr-Medium, Noto Sans CJK KR;font-weight:500;letter-spacing:-0.02em;}.e,.k{fill:#f8f8f8;}.f,.l{fill:#fd60ad;}.g{stroke:#f8d719;stroke-linecap:round;stroke-linejoin:round;stroke-width:2px;}.h{fill:#383838;}.h,.i{font-size:14px;font-family:Montserrat-Bold, Montserrat;font-weight:700;letter-spacing:0.05em;}.m{stroke:none;}</style></defs><g transform="translate(-363 -2912)"><rect class="a" width="1194" height="367" rx="14" transform="translate(363 2912)"/><rect class="b" width="31" height="66" rx="15.5" transform="translate(386 3055)"/><g class="c" transform="translate(608 3053)"><rect class="m" width="31" height="66" rx="15.5"/><rect class="n" x="0.5" y="0.5" width="30" height="65" rx="15"/></g><g class="c" transform="translate(867 3053)"><rect class="m" width="31" height="66" rx="15.5"/><rect class="n" x="0.5" y="0.5" width="30" height="65" rx="15"/></g><g class="c" transform="translate(1126 3053)"><rect class="m" width="31" height="66" rx="15.5"/><rect class="n" x="0.5" y="0.5" width="30" height="65" rx="15"/></g><g class="c" transform="translate(1385 3053)"><rect class="m" width="31" height="66" rx="15.5"/><rect class="n" x="0.5" y="0.5" width="30" height="65" rx="15"/></g><text class="d" transform="translate(422 3000)"><tspan x="0" y="0">생리시작일에 복용시작</tspan></text><text class="e" transform="translate(408 3227)"><tspan x="0" y="0">매일 9시에 1정씩 복용 중</tspan></text><text class="e" transform="translate(1438 3201)"><tspan x="0" y="0">새로운 팩으로</tspan><tspan x="0" y="26">복용 시작</tspan></text><text class="e" transform="translate(1375 2980)"><tspan x="0" y="0">평소 같이 9시에 복용</tspan></text><text class="f" transform="translate(1314 3227)"><tspan x="0" y="0">복용 잊어버림</tspan></text><path class="g" d="M20.84,4.61a5.5,5.5,0,0,0-7.78,0L12,5.67,10.94,4.61a5.5,5.5,0,0,0-7.78,7.78l1.06,1.06L12,21.23l7.78-7.78,1.06-1.06a5.5,5.5,0,0,0,0-7.78Z" transform="translate(389.5 2982.386)"/><text class="h" transform="translate(402 3108)"><tspan x="-7.805" y="0">01</tspan></text><text class="i" transform="translate(439 3108)"><tspan x="-9.191" y="0">02</tspan></text><text class="i" transform="translate(476 3108)"><tspan x="-9.177" y="0">03</tspan></text><text class="i" transform="translate(513 3108)"><tspan x="-9.926" y="0">04</tspan></text><text class="i" transform="translate(550 3108)"><tspan x="-9.268" y="0">05</tspan></text><text class="i" transform="translate(587 3108)"><tspan x="-9.562" y="0">06</tspan></text><text class="i" transform="translate(624 3108)"><tspan x="-9.415" y="0">07</tspan></text><text class="i" transform="translate(661 3108)"><tspan x="-9.723" y="0">08</tspan></text><text class="i" transform="translate(698 3108)"><tspan x="-9.562" y="0">09</tspan></text><text class="i" transform="translate(735 3108)"><tspan x="-7.847" y="0">10</tspan></text><text class="i" transform="translate(772 3108)"><tspan x="-5.838" y="0">11</tspan></text><text class="i" transform="translate(809 3108)"><tspan x="-7.224" y="0">12</tspan></text><text class="i" transform="translate(846 3108)"><tspan x="-7.238" y="0">13</tspan></text><text class="i" transform="translate(883 3108)"><tspan x="-7.917" y="0">14</tspan></text><text class="i" transform="translate(920 3108)"><tspan x="-7.259" y="0">15</tspan></text><text class="i" transform="translate(957 3108)"><tspan x="-7.553" y="0">16</tspan></text><text class="i" transform="translate(994 3108)"><tspan x="-7.434" y="0">17</tspan></text><text class="i" transform="translate(1031 3108)"><tspan x="-7.714" y="0">18</tspan></text><text class="i" transform="translate(1068 3108)"><tspan x="-7.553" y="0">19</tspan></text><text class="i" transform="translate(1105 3108)"><tspan x="-9.219" y="0">20</tspan></text><text class="i" transform="translate(1142 3108)"><tspan x="-7.224" y="0">21</tspan></text><text class="i" transform="translate(1179 3108)"><tspan x="-8.61" y="0">22</tspan></text><text class="i" transform="translate(1216 3108)"><tspan x="-8.624" y="0">23</tspan></text><text class="i" transform="translate(1253 3108)"><tspan x="-9.233" y="0">24</tspan></text><text class="i" transform="translate(1290 3108)"><tspan x="-8.645" y="0">25</tspan></text><text class="i" transform="translate(1327 3108)"><tspan x="-8.925" y="0">26</tspan></text><text class="i" transform="translate(1364 3108)"><tspan x="-8.806" y="0">27</tspan></text><text class="i" transform="translate(1401 3108)"><tspan x="-9.1" y="0">28</tspan></text><text class="i" transform="translate(1438 3108)"><tspan x="-8.939" y="0">29</tspan></text><text class="i" transform="translate(1475 3108)"><tspan x="-9.247" y="0">30</tspan></text><text class="i" transform="translate(1512 3108)"><tspan x="-7.238" y="0">31</tspan></text><text class="h" transform="translate(401 3075)"><tspan x="-6.685" y="0">M</tspan></text><text class="i" transform="translate(438 3075)"><tspan x="-4.326" y="0">T</tspan></text><text class="i" transform="translate(475 3075)"><tspan x="-8.141" y="0">W</tspan></text><text class="i" transform="translate(512 3075)"><tspan x="-4.326" y="0">T</tspan></text><text class="i" transform="translate(549 3075)"><tspan x="-4.473" y="0">F</tspan></text><text class="i" transform="translate(586 3075)"><tspan x="-4.466" y="0">S</tspan></text><text class="i" transform="translate(623 3075)"><tspan x="-4.466" y="0">S</tspan></text><text class="i" transform="translate(660 3075)"><tspan x="-6.685" y="0">M</tspan></text><text class="i" transform="translate(697 3075)"><tspan x="-4.326" y="0">T</tspan></text><text class="i" transform="translate(734 3075)"><tspan x="-8.141" y="0">W</tspan></text><text class="i" transform="translate(771 3075)"><tspan x="-4.326" y="0">T</tspan></text><text class="i" transform="translate(808 3075)"><tspan x="-4.473" y="0">F</tspan></text><text class="i" transform="translate(845 3075)"><tspan x="-4.466" y="0">S</tspan></text><text class="i" transform="translate(882 3075)"><tspan x="-4.466" y="0">S</tspan></text><text class="i" transform="translate(919 3075)"><tspan x="-6.685" y="0">M</tspan></text><text class="i" transform="translate(956 3075)"><tspan x="-4.326" y="0">T</tspan></text><text class="i" transform="translate(993 3075)"><tspan x="-8.141" y="0">W</tspan></text><text class="i" transform="translate(1030 3075)"><tspan x="-4.326" y="0">T</tspan></text><text class="i" transform="translate(1067 3075)"><tspan x="-4.473" y="0">F</tspan></text><text class="i" transform="translate(1104 3075)"><tspan x="-4.466" y="0">S</tspan></text><text class="i" transform="translate(1141 3075)"><tspan x="-4.466" y="0">S</tspan></text><text class="i" transform="translate(1178 3075)"><tspan x="-6.685" y="0">M</tspan></text><text class="i" transform="translate(1215 3075)"><tspan x="-4.326" y="0">T</tspan></text><text class="i" transform="translate(1252 3075)"><tspan x="-8.141" y="0">W</tspan></text><text class="i" transform="translate(1289 3075)"><tspan x="-4.326" y="0">T</tspan></text><text class="i" transform="translate(1326 3075)"><tspan x="-4.473" y="0">F</tspan></text><text class="i" transform="translate(1363 3075)"><tspan x="-4.466" y="0">S</tspan></text><text class="i" transform="translate(1400 3075)"><tspan x="-4.466" y="0">S</tspan></text><text class="i" transform="translate(1437 3075)"><tspan x="-6.685" y="0">M</tspan></text><text class="i" transform="translate(1474 3075)"><tspan x="-4.326" y="0">T</tspan></text><text class="i" transform="translate(1511 3075)"><tspan x="-8.141" y="0">W</tspan></text><rect class="b" width="883" height="6" transform="translate(391 3127)"/><rect class="j" width="151" height="6" transform="translate(1272 3127)"/><rect class="b" width="115" height="6" transform="translate(1423 3127)"/><rect class="k" width="1" height="105" transform="translate(391 3127)"/><rect class="k" width="1" height="105" transform="translate(1424 3127)"/><rect class="k" width="1" height="67" transform="translate(1360 2965)"/><circle class="b" cx="7" cy="7" r="7" transform="translate(394 3032)"/><circle class="b" cx="7" cy="7" r="7" transform="translate(432 3032)"/><circle class="b" cx="7" cy="7" r="7" transform="translate(470 3032)"/><circle class="b" cx="7" cy="7" r="7" transform="translate(505 3032)"/><circle class="b" cx="7" cy="7" r="7" transform="translate(543 3032)"/><circle class="b" cx="7" cy="7" r="7" transform="translate(578 3032)"/><circle class="b" cx="7" cy="7" r="7" transform="translate(616 3032)"/><circle class="b" cx="7" cy="7" r="7" transform="translate(654 3032)"/><circle class="b" cx="7" cy="7" r="7" transform="translate(689 3032)"/><circle class="b" cx="7" cy="7" r="7" transform="translate(727 3032)"/><circle class="b" cx="7" cy="7" r="7" transform="translate(765 3032)"/><circle class="b" cx="7" cy="7" r="7" transform="translate(800 3032)"/><circle class="b" cx="7" cy="7" r="7" transform="translate(838 3032)"/><circle class="b" cx="7" cy="7" r="7" transform="translate(873 3032)"/><circle class="b" cx="7" cy="7" r="7" transform="translate(911 3032)"/><circle class="b" cx="7" cy="7" r="7" transform="translate(949 3032)"/><circle class="b" cx="7" cy="7" r="7" transform="translate(985 3032)"/><circle class="b" cx="7" cy="7" r="7" transform="translate(1023 3032)"/><circle class="b" cx="7" cy="7" r="7" transform="translate(1061 3032)"/><circle class="b" cx="7" cy="7" r="7" transform="translate(1099 3032)"/><circle class="b" cx="7" cy="7" r="7" transform="translate(1134 3032)"/><circle class="b" cx="7" cy="7" r="7" transform="translate(1172 3032)"/><circle class="b" cx="7" cy="7" r="7" transform="translate(1207 3032)"/><circle class="b" cx="7" cy="7" r="7" transform="translate(1242 3032)"/><circle class="k" cx="7" cy="7" r="7" transform="translate(1280 3032)"/><circle class="l" cx="7" cy="7" r="7" transform="translate(1318 3032)"/><circle class="k" cx="7" cy="7" r="7" transform="translate(1353 3032)"/><circle class="k" cx="7" cy="7" r="7" transform="translate(1391 3032)"/><circle class="b" cx="7" cy="7" r="7" transform="translate(1429 3032)"/><circle class="b" cx="7" cy="7" r="7" transform="translate(1464 3032)"/><circle class="b" cx="7" cy="7" r="7" transform="translate(1502 3032)"/><rect class="l" width="34" height="6" transform="translate(1310 3127)"/><rect class="l" width="1" height="105" transform="translate(1310 3127)"/></g></svg>