<svg xmlns="http://www.w3.org/2000/svg" width="582" height="490.616" viewBox="0 0 582 490.616"><defs><style>.a,.b{fill:#fff;}.a,.n,.o{stroke:#5aa8c5;}.a,.b,.o{stroke-width:2px;}.b{stroke:#44b5cf;}.c,.l,.m{fill:#2eaac9;}.c{font-size:20px;letter-spacing:0.05em;}.c,.f,.g,.h,.i,.j,.k{font-family:Montserrat-Bold, Montserrat;font-weight:700;}.d{fill:#f8d719;}.e{fill:#f8f8f8;stroke:#2eaac9;}.f,.j{font-size:16px;}.f,.g,.h,.i,.j,.k{letter-spacing:-0.02em;}.g,.k{font-size:15px;}.h,.l{font-size:14px;}.i{font-size:13px;}.j,.k{opacity:0.2;}.l{font-family:NotoSerifKR-Medium, Noto Serif KR;font-weight:500;}.n,.o,.q{fill:none;}.o{stroke-linecap:round;stroke-linejoin:round;}.p{stroke:none;}</style></defs><g transform="translate(-363 -2355.384)"><g class="a" transform="translate(363 2435)"><rect class="p" width="582" height="362" rx="20"/><rect class="q" x="1" y="1" width="580" height="360" rx="19"/></g><g class="b" transform="translate(363 2435)"><path class="p" d="M20,0H562a20,20,0,0,1,20,20V65a0,0,0,0,1,0,0H0a0,0,0,0,1,0,0V20A20,20,0,0,1,20,0Z"/><path class="q" d="M20,1H562a19,19,0,0,1,19,19V63a1,1,0,0,1-1,1H2a1,1,0,0,1-1-1V20A19,19,0,0,1,20,1Z"/></g><text class="c" transform="translate(647 2475)"><tspan x="-62.35" y="0">CALENDAR</tspan></text><path class="d" d="M18,0H486a17,17,0,0,1,17,17v2a18,18,0,0,1-18,18H18A18,18,0,0,1,0,19V18A18,18,0,0,1,18,0Z" transform="translate(406 2531)"/><path class="d" d="M18,0H486a17,17,0,0,1,17,17v2a18,18,0,0,1-18,18H18A18,18,0,0,1,0,19V18A18,18,0,0,1,18,0Z" transform="translate(406 2579)"/><path class="d" d="M18,0H486a17,17,0,0,1,17,17v3a18,18,0,0,1-18,18H18A18,18,0,0,1,0,20V18A18,18,0,0,1,18,0Z" transform="translate(406 2626)"/><path class="d" d="M18,0H193a17,17,0,0,1,17,17v2a18,18,0,0,1-18,18H18A18,18,0,0,1,0,19V18A18,18,0,0,1,18,0Z" transform="translate(406 2675)"/><g class="e" transform="translate(630 2675)"><path class="p" d="M18,0H264a17,17,0,0,1,17,17v2a18,18,0,0,1-18,18H18A18,18,0,0,1,0,19V18A18,18,0,0,1,18,0Z"/><path class="q" d="M18,.5H264A16.5,16.5,0,0,1,280.5,17v2A17.5,17.5,0,0,1,263,36.5H18A17.5,17.5,0,0,1,.5,19V18A17.5,17.5,0,0,1,18,.5Z"/></g><path class="d" d="M18,0H486a17,17,0,0,1,17,17v2a18,18,0,0,1-18,18H18A18,18,0,0,1,0,19V18A18,18,0,0,1,18,0Z" transform="translate(406 2723)"/><g transform="translate(427.449 2539.059)"><text class="f" transform="translate(7.551 14.942)"><tspan x="-3.136" y="0">1</tspan></text><text class="f" transform="translate(83.551 14.942)"><tspan x="-4.72" y="0">2</tspan></text><text class="f" transform="translate(158.551 14.942)"><tspan x="-4.736" y="0">3</tspan></text><text class="g" transform="translate(232.551 14.942)"><tspan x="-5.168" y="0">4</tspan></text><text class="f" transform="translate(308.551 14.942)"><tspan x="-4.76" y="0">5</tspan></text><text class="f" transform="translate(382.551 14.942)"><tspan x="-5.096" y="0">6</tspan></text><text class="f" transform="translate(457.551 14.942)"><tspan x="-4.96" y="0">7</tspan></text><text class="f" transform="translate(7.551 62.942)"><tspan x="-5.28" y="0">8</tspan></text><text class="f" transform="translate(82.551 62.942)"><tspan x="-5.096" y="0">9</tspan></text><text class="h" transform="translate(155.551 61.942)"><tspan x="-7.357" y="0">10</tspan></text><text class="f" transform="translate(232.551 62.942)"><tspan x="-6.112" y="0">11</tspan></text><text class="i" transform="translate(306.551 60.942)"><tspan x="-6.253" y="0">12</tspan></text><text class="i" transform="translate(381.551 60.942)"><tspan x="-6.266" y="0">13</tspan></text><text class="h" transform="translate(455.551 61.942)"><tspan x="-7.427" y="0">14</tspan></text><text class="i" transform="translate(8.551 109.942)"><tspan x="-6.286" y="0">15</tspan></text><text class="h" transform="translate(81.551 110.942)"><tspan x="-7.063" y="0">16</tspan></text><text class="i" transform="translate(155.551 109.942)"><tspan x="-6.448" y="0">17</tspan></text><text class="h" transform="translate(230.551 110.942)"><tspan x="-7.224" y="0">18</tspan></text><text class="h" transform="translate(305.551 110.942)"><tspan x="-7.063" y="0">19</tspan></text><text class="i" transform="translate(380.551 109.942)"><tspan x="-8.106" y="0">20</tspan></text><text class="i" transform="translate(456.551 109.942)"><tspan x="-6.253" y="0">21</tspan></text><text class="h" transform="translate(7.551 158.942)"><tspan x="-8.12" y="0">22</tspan></text><text class="h" transform="translate(82.551 158.942)"><tspan x="-8.134" y="0">23</tspan></text><text class="i" transform="translate(156.551 157.942)"><tspan x="-8.118" y="0">24</tspan></text><text class="j" transform="translate(157.551 206.942)"><tspan x="-3.136" y="0">1</tspan></text><text class="h" transform="translate(230.551 158.942)"><tspan x="-8.155" y="0">25</tspan></text><text class="j" transform="translate(233.551 206.942)"><tspan x="-4.72" y="0">2</tspan></text><text class="h" transform="translate(305.551 158.942)"><tspan x="-8.435" y="0">26</tspan></text><text class="j" transform="translate(308.551 206.942)"><tspan x="-4.736" y="0">3</tspan></text><text class="h" transform="translate(380.551 158.942)"><tspan x="-8.316" y="0">27</tspan></text><text class="k" transform="translate(382.551 206.942)"><tspan x="-5.168" y="0">4</tspan></text><text class="i" transform="translate(455.551 157.942)"><tspan x="-7.995" y="0">28</tspan></text><text class="j" transform="translate(458.551 206.942)"><tspan x="-4.76" y="0">5</tspan></text><text class="h" transform="translate(7.551 207.942)"><tspan x="-8.449" y="0">29</tspan></text><text class="i" transform="translate(82.551 206.942)"><tspan x="-8.132" y="0">30</tspan></text></g><text class="l" transform="translate(444 2822)"><tspan x="0" y="0">다시 24일동안</tspan><tspan x="0" y="20">노란색 1정씩</tspan></text><rect class="m" width="1" height="86" transform="translate(434 2760)"/><g class="n" transform="translate(415 2723)"><circle class="p" cx="19" cy="19" r="19"/><circle class="q" cx="19" cy="19" r="18.5"/></g><g class="n" transform="translate(415 2530)"><circle class="p" cx="19" cy="19" r="19"/><circle class="q" cx="19" cy="19" r="18.5"/></g><text class="l" transform="translate(447 2402)"><tspan x="0" y="0">24일동안 </tspan><tspan x="0" y="20">노란색 1정씩</tspan></text><rect class="m" width="1" height="145" transform="translate(433 2386)"/><text class="l" transform="translate(454 2373)"><tspan x="0" y="0">생리시작일에 복용시작</tspan></text><g transform="translate(423.549 2356.384)"><path class="o" d="M20.84,4.61a5.5,5.5,0,0,0-7.78,0L12,5.67,10.94,4.61a5.5,5.5,0,0,0-7.78,7.78l1.06,1.06L12,21.23l7.78-7.78,1.06-1.06a5.5,5.5,0,0,0,0-7.78Z" transform="translate(-1.549 -2.998)"/></g><text class="l" transform="translate(668 2822)"><tspan x="0" y="0">4일동안 </tspan><tspan x="0" y="20">흰색 1정씩</tspan></text><rect class="m" width="1" height="134" transform="translate(658 2712)"/></g></svg>