<svg xmlns="http://www.w3.org/2000/svg" width="583" height="362" viewBox="0 0 583 362"><defs><style>.a,.c{fill:#fff;}.a{stroke:#5aa8c5;stroke-width:2px;}.b{fill:#f5f5f5;}.c{stroke:#f2f2f2;}.d{fill:#e0e0e0;}.e{fill:#e8c918;stroke:#e6c62b;}.f{fill:#ead266;}.f,.j{opacity:0.724;mix-blend-mode:overlay;isolation:isolate;}.g,.k,.n{fill:none;}.g,.k{stroke:#fff;stroke-linecap:round;stroke-width:3px;}.g{opacity:0.5;}.h{fill:#e9cc27;opacity:0.2;}.i{fill:#ededed;stroke:#e2e2e2;}.j{fill:#dedede;}.l{fill:#bebebe;opacity:0.099;}.m{stroke:none;}</style></defs><g transform="translate(9626 16058)"><g class="a" transform="translate(-9626 -16058)"><rect class="m" width="583" height="362" rx="20"/><rect class="n" x="1" y="1" width="581" height="360" rx="19"/></g><rect class="b" width="252" height="14" rx="7" transform="translate(-9589 -15823)"/><rect class="b" width="182" height="14" rx="7" transform="translate(-9309 -15764)"/><g class="c" transform="translate(-9592 -16022)"><circle class="m" cx="24" cy="24" r="24"/><circle class="n" cx="24" cy="24" r="23.5"/></g><g class="c" transform="translate(-9592 -15961)"><circle class="m" cx="24" cy="24" r="24"/><circle class="n" cx="24" cy="24" r="23.5"/></g><g class="c" transform="translate(-9592 -15900)"><circle class="m" cx="24" cy="24" r="24"/><circle class="n" cx="24" cy="24" r="23.5"/></g><g class="c" transform="translate(-9592 -15780)"><circle class="m" cx="24" cy="24" r="24"/><circle class="n" cx="24" cy="24" r="23.5"/></g><g class="c" transform="translate(-9522 -16022)"><circle class="m" cx="24" cy="24" r="24"/><circle class="n" cx="24" cy="24" r="23.5"/></g><g class="c" transform="translate(-9522 -15961)"><circle class="m" cx="24" cy="24" r="24"/><circle class="n" cx="24" cy="24" r="23.5"/></g><g class="c" transform="translate(-9522 -15900)"><circle class="m" cx="24" cy="24" r="24"/><circle class="n" cx="24" cy="24" r="23.5"/></g><g class="c" transform="translate(-9522 -15780)"><circle class="m" cx="24" cy="24" r="24"/><circle class="n" cx="24" cy="24" r="23.5"/></g><g class="c" transform="translate(-9449 -16022)"><circle class="m" cx="24" cy="24" r="24"/><circle class="n" cx="24" cy="24" r="23.5"/></g><g class="c" transform="translate(-9449 -15961)"><circle class="m" cx="24" cy="24" r="24"/><circle class="n" cx="24" cy="24" r="23.5"/></g><g class="c" transform="translate(-9449 -15900)"><circle class="m" cx="24" cy="24" r="24"/><circle class="n" cx="24" cy="24" r="23.5"/></g><g class="c" transform="translate(-9449 -15780)"><circle class="m" cx="24" cy="24" r="24"/><circle class="n" cx="24" cy="24" r="23.5"/></g><g class="c" transform="translate(-9379 -16022)"><circle class="m" cx="24" cy="24" r="24"/><circle class="n" cx="24" cy="24" r="23.5"/></g><g class="c" transform="translate(-9379 -15961)"><circle class="m" cx="24" cy="24" r="24"/><circle class="n" cx="24" cy="24" r="23.5"/></g><g class="c" transform="translate(-9379 -15900)"><circle class="m" cx="24" cy="24" r="24"/><circle class="n" cx="24" cy="24" r="23.5"/></g><g class="c" transform="translate(-9379 -15780)"><circle class="m" cx="24" cy="24" r="24"/><circle class="n" cx="24" cy="24" r="23.5"/></g><g class="c" transform="translate(-9309 -16022)"><circle class="m" cx="24" cy="24" r="24"/><circle class="n" cx="24" cy="24" r="23.5"/></g><g class="c" transform="translate(-9309 -15961)"><circle class="m" cx="24" cy="24" r="24"/><circle class="n" cx="24" cy="24" r="23.5"/></g><g class="c" transform="translate(-9309 -15900)"><circle class="m" cx="24" cy="24" r="24"/><circle class="n" cx="24" cy="24" r="23.5"/></g><g class="c" transform="translate(-9309 -15839)"><circle class="m" cx="24" cy="24" r="24"/><circle class="n" cx="24" cy="24" r="23.5"/></g><g class="c" transform="translate(-9239 -16022)"><circle class="m" cx="24" cy="24" r="24"/><circle class="n" cx="24" cy="24" r="23.5"/></g><g class="c" transform="translate(-9239 -15961)"><circle class="m" cx="24" cy="24" r="24"/><circle class="n" cx="24" cy="24" r="23.5"/></g><g class="c" transform="translate(-9239 -15900)"><circle class="m" cx="24" cy="24" r="24"/><circle class="n" cx="24" cy="24" r="23.5"/></g><g class="c" transform="translate(-9239 -15839)"><circle class="m" cx="24" cy="24" r="24"/><circle class="n" cx="24" cy="24" r="23.5"/></g><g class="c" transform="translate(-9169 -16022)"><circle class="m" cx="24" cy="24" r="24"/><circle class="n" cx="24" cy="24" r="23.5"/></g><g class="c" transform="translate(-9169 -15961)"><circle class="m" cx="24" cy="24" r="24"/><circle class="n" cx="24" cy="24" r="23.5"/></g><g class="c" transform="translate(-9169 -15900)"><circle class="m" cx="24" cy="24" r="24"/><circle class="n" cx="24" cy="24" r="23.5"/></g><g class="c" transform="translate(-9169 -15839)"><circle class="m" cx="24" cy="24" r="24"/><circle class="n" cx="24" cy="24" r="23.5"/></g><g transform="translate(-9536 -16003)"><path class="d" d="M6,0l6,7H0Z" transform="translate(140 252) rotate(-90)"/><path class="d" d="M6,0l6,7H0Z" transform="translate(70 252) rotate(-90)"/><path class="d" d="M6,0l6,7H0Z" transform="translate(0 252) rotate(-90)"/><path class="d" d="M6,0l6,7H0Z" transform="translate(350 12) rotate(-90)"/><path class="d" d="M6,0l6,7H0Z" transform="translate(280 12) rotate(-90)"/><path class="d" d="M6,0l6,7H0Z" transform="translate(210 12) rotate(-90)"/><path class="d" d="M6,0l6,7H0Z" transform="translate(140 12) rotate(-90)"/><path class="d" d="M6,0l6,7H0Z" transform="translate(70 12) rotate(-90)"/><path class="d" d="M6,0l6,7H0Z" transform="translate(0 12) rotate(-90)"/><path class="d" d="M6,0l6,7H0Z" transform="translate(350 72) rotate(-90)"/><path class="d" d="M6,0l6,7H0Z" transform="translate(280 72) rotate(-90)"/><path class="d" d="M6,0l6,7H0Z" transform="translate(210 72) rotate(-90)"/><path class="d" d="M6,0l6,7H0Z" transform="translate(140 72) rotate(-90)"/><path class="d" d="M6,0l6,7H0Z" transform="translate(70 72) rotate(-90)"/><path class="d" d="M6,0l6,7H0Z" transform="translate(0 72) rotate(-90)"/><path class="d" d="M6,0l6,7H0Z" transform="translate(350 132) rotate(-90)"/><path class="d" d="M6,0l6,7H0Z" transform="translate(280 132) rotate(-90)"/><path class="d" d="M6,0l6,7H0Z" transform="translate(210 132) rotate(-90)"/><path class="d" d="M6,0l6,7H0Z" transform="translate(140 132) rotate(-90)"/><path class="d" d="M6,0l6,7H0Z" transform="translate(70 132) rotate(-90)"/><path class="d" d="M6,0l6,7H0Z" transform="translate(0 132) rotate(-90)"/><path class="d" d="M6,0l6,7H0Z" transform="translate(350 192) rotate(-90)"/><path class="d" d="M6,0l6,7H0Z" transform="translate(280 192) rotate(-90)"/></g><g transform="translate(-9589 -16019)"><g class="e" transform="translate(0 0)"><circle class="m" cx="21" cy="21" r="21"/><circle class="n" cx="21" cy="21" r="20.5"/></g><circle class="f" cx="19" cy="19" r="19" transform="translate(2 2)"/><path class="g" d="M-7607.364-18592.82s4.3-10.209,18.662-8.445" transform="translate(-601.992 20088.291) rotate(24)"/><rect class="h" width="40" height="6" transform="translate(1 19)"/></g><g transform="translate(-9589 -15958)"><g class="e" transform="translate(0 0)"><circle class="m" cx="21" cy="21" r="21"/><circle class="n" cx="21" cy="21" r="20.5"/></g><circle class="f" cx="19" cy="19" r="19" transform="translate(2 2)"/><path class="g" d="M-7607.364-18592.82s4.3-10.209,18.662-8.445" transform="translate(-601.992 20088.291) rotate(24)"/><rect class="h" width="40" height="6" transform="translate(1 19)"/></g><g transform="translate(-9589 -15897)"><g class="e" transform="translate(0 0)"><circle class="m" cx="21" cy="21" r="21"/><circle class="n" cx="21" cy="21" r="20.5"/></g><circle class="f" cx="19" cy="19" r="19" transform="translate(2 2)"/><path class="g" d="M-7607.364-18592.82s4.3-10.209,18.662-8.445" transform="translate(-601.992 20088.291) rotate(24)"/><rect class="h" width="40" height="6" transform="translate(1 19)"/></g><g transform="translate(-9589 -15777)"><g class="i" transform="translate(0 0)"><circle class="m" cx="21" cy="21" r="21"/><circle class="n" cx="21" cy="21" r="20.5"/></g><circle class="j" cx="19" cy="19" r="19" transform="translate(2 2)"/><path class="k" d="M-7607.364-18592.82s4.3-10.209,18.662-8.445" transform="translate(-601.992 20088.291) rotate(24)"/><rect class="l" width="40" height="6" transform="translate(1 19)"/></g><g transform="translate(-9519 -15777)"><g class="i" transform="translate(0 0)"><circle class="m" cx="21" cy="21" r="21"/><circle class="n" cx="21" cy="21" r="20.5"/></g><circle class="j" cx="19" cy="19" r="19" transform="translate(2 2)"/><path class="k" d="M-7607.364-18592.82s4.3-10.209,18.662-8.445" transform="translate(-601.992 20088.291) rotate(24)"/><rect class="l" width="40" height="6" transform="translate(1 19)"/></g><g transform="translate(-9446 -15777)"><g class="i" transform="translate(0 0)"><circle class="m" cx="21" cy="21" r="21"/><circle class="n" cx="21" cy="21" r="20.5"/></g><circle class="j" cx="19" cy="19" r="19" transform="translate(2 2)"/><path class="k" d="M-7607.364-18592.82s4.3-10.209,18.662-8.445" transform="translate(-601.992 20088.291) rotate(24)"/><rect class="l" width="40" height="6" transform="translate(1 19)"/></g><g transform="translate(-9376 -15777)"><g class="i" transform="translate(0 0)"><circle class="m" cx="21" cy="21" r="21"/><circle class="n" cx="21" cy="21" r="20.5"/></g><circle class="j" cx="19" cy="19" r="19" transform="translate(2 2)"/><path class="k" d="M-7607.364-18592.82s4.3-10.209,18.662-8.445" transform="translate(-601.992 20088.291) rotate(24)"/><rect class="l" width="40" height="6" transform="translate(1 19)"/></g><g transform="translate(-9519 -16019)"><g class="e" transform="translate(0 0)"><circle class="m" cx="21" cy="21" r="21"/><circle class="n" cx="21" cy="21" r="20.5"/></g><circle class="f" cx="19" cy="19" r="19" transform="translate(2 2)"/><path class="g" d="M-7607.364-18592.82s4.3-10.209,18.662-8.445" transform="translate(-601.992 20088.291) rotate(24)"/><rect class="h" width="40" height="6" transform="translate(1 19)"/></g><g transform="translate(-9519 -15958)"><g class="e" transform="translate(0 0)"><circle class="m" cx="21" cy="21" r="21"/><circle class="n" cx="21" cy="21" r="20.5"/></g><circle class="f" cx="19" cy="19" r="19" transform="translate(2 2)"/><path class="g" d="M-7607.364-18592.82s4.3-10.209,18.662-8.445" transform="translate(-601.992 20088.291) rotate(24)"/><rect class="h" width="40" height="6" transform="translate(1 19)"/></g><g transform="translate(-9519 -15897)"><g class="e" transform="translate(0 0)"><circle class="m" cx="21" cy="21" r="21"/><circle class="n" cx="21" cy="21" r="20.5"/></g><circle class="f" cx="19" cy="19" r="19" transform="translate(2 2)"/><path class="g" d="M-7607.364-18592.82s4.3-10.209,18.662-8.445" transform="translate(-601.992 20088.291) rotate(24)"/><rect class="h" width="40" height="6" transform="translate(1 19)"/></g><g transform="translate(-9446 -16019)"><g class="e" transform="translate(0 0)"><circle class="m" cx="21" cy="21" r="21"/><circle class="n" cx="21" cy="21" r="20.5"/></g><circle class="f" cx="19" cy="19" r="19" transform="translate(2 2)"/><path class="g" d="M-7607.364-18592.82s4.3-10.209,18.662-8.445" transform="translate(-601.992 20088.291) rotate(24)"/><rect class="h" width="40" height="6" transform="translate(1 19)"/></g><g transform="translate(-9446 -15958)"><g class="e" transform="translate(0 0)"><circle class="m" cx="21" cy="21" r="21"/><circle class="n" cx="21" cy="21" r="20.5"/></g><circle class="f" cx="19" cy="19" r="19" transform="translate(2 2)"/><path class="g" d="M-7607.364-18592.82s4.3-10.209,18.662-8.445" transform="translate(-601.992 20088.291) rotate(24)"/><rect class="h" width="40" height="6" transform="translate(1 19)"/></g><g transform="translate(-9446 -15897)"><g class="e" transform="translate(0 0)"><circle class="m" cx="21" cy="21" r="21"/><circle class="n" cx="21" cy="21" r="20.5"/></g><circle class="f" cx="19" cy="19" r="19" transform="translate(2 2)"/><path class="g" d="M-7607.364-18592.82s4.3-10.209,18.662-8.445" transform="translate(-601.992 20088.291) rotate(24)"/><rect class="h" width="40" height="6" transform="translate(1 19)"/></g><g transform="translate(-9376 -16019)"><g class="e" transform="translate(0 0)"><circle class="m" cx="21" cy="21" r="21"/><circle class="n" cx="21" cy="21" r="20.5"/></g><circle class="f" cx="19" cy="19" r="19" transform="translate(2 2)"/><path class="g" d="M-7607.364-18592.82s4.3-10.209,18.662-8.445" transform="translate(-601.992 20088.291) rotate(24)"/><rect class="h" width="40" height="6" transform="translate(1 19)"/></g><g transform="translate(-9376 -15958)"><g class="e" transform="translate(0 0)"><circle class="m" cx="21" cy="21" r="21"/><circle class="n" cx="21" cy="21" r="20.5"/></g><circle class="f" cx="19" cy="19" r="19" transform="translate(2 2)"/><path class="g" d="M-7607.364-18592.82s4.3-10.209,18.662-8.445" transform="translate(-601.992 20088.291) rotate(24)"/><rect class="h" width="40" height="6" transform="translate(1 19)"/></g><g transform="translate(-9376 -15897)"><g class="e" transform="translate(0 0)"><circle class="m" cx="21" cy="21" r="21"/><circle class="n" cx="21" cy="21" r="20.5"/></g><circle class="f" cx="19" cy="19" r="19" transform="translate(2 2)"/><path class="g" d="M-7607.364-18592.82s4.3-10.209,18.662-8.445" transform="translate(-601.992 20088.291) rotate(24)"/><rect class="h" width="40" height="6" transform="translate(1 19)"/></g><g transform="translate(-9306 -16019)"><g class="e" transform="translate(0 0)"><circle class="m" cx="21" cy="21" r="21"/><circle class="n" cx="21" cy="21" r="20.5"/></g><circle class="f" cx="19" cy="19" r="19" transform="translate(2 2)"/><path class="g" d="M-7607.364-18592.82s4.3-10.209,18.662-8.445" transform="translate(-601.992 20088.291) rotate(24)"/><rect class="h" width="40" height="6" transform="translate(1 19)"/></g><g transform="translate(-9306 -15958)"><g class="e" transform="translate(0 0)"><circle class="m" cx="21" cy="21" r="21"/><circle class="n" cx="21" cy="21" r="20.5"/></g><circle class="f" cx="19" cy="19" r="19" transform="translate(2 2)"/><path class="g" d="M-7607.364-18592.82s4.3-10.209,18.662-8.445" transform="translate(-601.992 20088.291) rotate(24)"/><rect class="h" width="40" height="6" transform="translate(1 19)"/></g><g transform="translate(-9306 -15897)"><g class="e" transform="translate(0 0)"><circle class="m" cx="21" cy="21" r="21"/><circle class="n" cx="21" cy="21" r="20.5"/></g><circle class="f" cx="19" cy="19" r="19" transform="translate(2 2)"/><path class="g" d="M-7607.364-18592.82s4.3-10.209,18.662-8.445" transform="translate(-601.992 20088.291) rotate(24)"/><rect class="h" width="40" height="6" transform="translate(1 19)"/></g><g transform="translate(-9306 -15836)"><g class="e" transform="translate(0 0)"><circle class="m" cx="21" cy="21" r="21"/><circle class="n" cx="21" cy="21" r="20.5"/></g><circle class="f" cx="19" cy="19" r="19" transform="translate(2 2)"/><path class="g" d="M-7607.364-18592.82s4.3-10.209,18.662-8.445" transform="translate(-601.992 20088.291) rotate(24)"/><rect class="h" width="40" height="6" transform="translate(1 19)"/></g><g transform="translate(-9236 -16019)"><g class="e" transform="translate(0 0)"><circle class="m" cx="21" cy="21" r="21"/><circle class="n" cx="21" cy="21" r="20.5"/></g><circle class="f" cx="19" cy="19" r="19" transform="translate(2 2)"/><path class="g" d="M-7607.364-18592.82s4.3-10.209,18.662-8.445" transform="translate(-601.992 20088.291) rotate(24)"/><rect class="h" width="40" height="6" transform="translate(1 19)"/></g><g transform="translate(-9236 -15958)"><g class="e" transform="translate(0 0)"><circle class="m" cx="21" cy="21" r="21"/><circle class="n" cx="21" cy="21" r="20.5"/></g><circle class="f" cx="19" cy="19" r="19" transform="translate(2 2)"/><path class="g" d="M-7607.364-18592.82s4.3-10.209,18.662-8.445" transform="translate(-601.992 20088.291) rotate(24)"/><rect class="h" width="40" height="6" transform="translate(1 19)"/></g><g transform="translate(-9236 -15897)"><g class="e" transform="translate(0 0)"><circle class="m" cx="21" cy="21" r="21"/><circle class="n" cx="21" cy="21" r="20.5"/></g><circle class="f" cx="19" cy="19" r="19" transform="translate(2 2)"/><path class="g" d="M-7607.364-18592.82s4.3-10.209,18.662-8.445" transform="translate(-601.992 20088.291) rotate(24)"/><rect class="h" width="40" height="6" transform="translate(1 19)"/></g><g transform="translate(-9236 -15836)"><g class="e" transform="translate(0 0)"><circle class="m" cx="21" cy="21" r="21"/><circle class="n" cx="21" cy="21" r="20.5"/></g><circle class="f" cx="19" cy="19" r="19" transform="translate(2 2)"/><path class="g" d="M-7607.364-18592.82s4.3-10.209,18.662-8.445" transform="translate(-601.992 20088.291) rotate(24)"/><rect class="h" width="40" height="6" transform="translate(1 19)"/></g><g transform="translate(-9166 -16019)"><g class="e" transform="translate(0 0)"><circle class="m" cx="21" cy="21" r="21"/><circle class="n" cx="21" cy="21" r="20.5"/></g><circle class="f" cx="19" cy="19" r="19" transform="translate(2 2)"/><path class="g" d="M-7607.364-18592.82s4.3-10.209,18.662-8.445" transform="translate(-601.992 20088.291) rotate(24)"/><rect class="h" width="40" height="6" transform="translate(1 19)"/></g><g transform="translate(-9166 -15958)"><g class="e" transform="translate(0 0)"><circle class="m" cx="21" cy="21" r="21"/><circle class="n" cx="21" cy="21" r="20.5"/></g><circle class="f" cx="19" cy="19" r="19" transform="translate(2 2)"/><path class="g" d="M-7607.364-18592.82s4.3-10.209,18.662-8.445" transform="translate(-601.992 20088.291) rotate(24)"/><rect class="h" width="40" height="6" transform="translate(1 19)"/></g><g transform="translate(-9166 -15897)"><g class="e" transform="translate(0 0)"><circle class="m" cx="21" cy="21" r="21"/><circle class="n" cx="21" cy="21" r="20.5"/></g><circle class="f" cx="19" cy="19" r="19" transform="translate(2 2)"/><path class="g" d="M-7607.364-18592.82s4.3-10.209,18.662-8.445" transform="translate(-601.992 20088.291) rotate(24)"/><rect class="h" width="40" height="6" transform="translate(1 19)"/></g><g transform="translate(-9166 -15836)"><g class="e" transform="translate(0 0)"><circle class="m" cx="21" cy="21" r="21"/><circle class="n" cx="21" cy="21" r="20.5"/></g><circle class="f" cx="19" cy="19" r="19" transform="translate(2 2)"/><path class="g" d="M-7607.364-18592.82s4.3-10.209,18.662-8.445" transform="translate(-601.992 20088.291) rotate(24)"/><rect class="h" width="40" height="6" transform="translate(1 19)"/></g><rect class="b" width="287" height="28" rx="14" transform="translate(-9071 -16022) rotate(90)"/></g></svg>